<svg preserveAspectRatio="xMidYMid meet" data-bbox="0 0.327 46 15" width="46" height="16" viewBox="0 0.327 46 15" xmlns="http://www.w3.org/2000/svg" data-type="color" role="presentation" aria-hidden="true" aria-label="">
    <g>
        <path fill-rule="evenodd" clip-rule="evenodd" d="M27.884 10.752c-.423.603-.892 1.158-1.53 1.557-.44.275-.924.424-1.438.486a4.5 4.5 0 0 1-1.16.004c-.818-.114-1.275-.74-1.124-1.533.085-.443.358-.727.738-.94.47-.262.984-.407 1.502-.542.76-.198 1.527-.378 2.251-.687.244-.105.473-.243.702-.378.074-.044.133-.043.188 0a.18.18 0 0 1 .06.125 80 80 0 0 1 .007 1.253c0 .25-.053.452-.196.655m3.3-5.684c-.425-.956-1.128-1.64-2.104-2.061-.719-.311-1.475-.465-2.25-.54-.954-.093-1.907-.1-2.86.037-.952.138-1.846.426-2.659.942-.889.565-1.522 1.332-1.865 2.307-.378 1.072-.426 1.722-.108 2.805.011.035.043.06.08.064l3.583.312c-.25-.495-.331-.589-.31-1.146.015-.4.098-.782.301-1.133a2.26 2.26 0 0 1 1.085-.946c.606-.264 1.245-.296 1.894-.241.393.033.774.11 1.132.28.54.256.836.685.932 1.253.027.165.036.333.037.5.002.287-.15.504-.372.676-.307.239-.652.42-1.024.53-.987.294-1.98.568-2.97.849-.117.032-.355.092-.355.092s-1.056.247-1.076.25c-.644.12-1.269.29-1.826.647a2.15 2.15 0 0 0-.95 1.265 2.9 2.9 0 0 0-.077 1.14c.03.242.084.488.17.717.24.642.732 1.049 1.361 1.312.385.161.79.24 1.205.286a5.9 5.9 0 0 0 2.205-.148 4.9 4.9 0 0 0 2.565-1.67c.503-.613.837-1.311 1.087-2.052l.072-.202a.11.11 0 0 1 .214.044l-.283 3.754h3.636V7.615c0-.876-.11-1.734-.47-2.547" fill="#252F9C" data-color="1"></path>
        <path fill-rule="evenodd" clip-rule="evenodd" d="M42.382 9.017c-.003-.634-.06-1.259-.294-1.857-.318-.812-.922-1.323-1.76-1.579-.583-.177-1.18-.172-1.776-.085-.394.057-.774.165-1.104.396-.502.351-.778.848-.922 1.42-.154.61-.177 1.23-.144 1.855.028.507.104 1.003.294 1.478.32.804.93 1.3 1.758 1.551.633.192 1.279.177 1.924.063.953-.168 1.542-.727 1.817-1.622.162-.529.208-1.072.207-1.62m-3.098-6.6c.93.016 1.79.088 2.63.317 1.05.285 1.975.77 2.688 1.592.553.637.898 1.378 1.109 2.184.26.996.324 2.009.272 3.029-.043.848-.229 1.67-.615 2.437a5.7 5.7 0 0 1-2.296 2.434 7 7 0 0 1-2.483.835c-.714.105-1.432.099-2.15.04a8.7 8.7 0 0 1-1.66-.283c-.996-.282-1.882-.746-2.576-1.52a5 5 0 0 1-.964-1.652c-.271-.75-.401-1.525-.449-2.317a10 10 0 0 1 .052-1.877 5.78 5.78 0 0 1 1.704-3.453c.799-.79 1.783-1.266 2.876-1.54.7-.177 1.267-.215 1.862-.226" fill="#252F9C" data-color="1"></path>
        <path fill-rule="evenodd" clip-rule="evenodd" d="M12.31 7.064c.051-.275.051-.275-.017-.67a4.27 4.27 0 0 0-.949-2.051c-.79-.943-1.846-1.441-3.033-1.699a12 12 0 0 0-1.391-.198 7 7 0 0 0-1.812.053c-.468.076-.92.206-1.362.38q-1.374.54-2.32 1.652C.513 5.611.083 6.871.015 8.255c-.033.671-.014 1.343.084 2.012.117.798.317 1.569.71 2.284.568 1.039 1.426 1.756 2.535 2.196.728.289 1.49.442 2.27.508.8.068 1.597.062 2.394-.046 1.026-.14 1.965-.485 2.811-1.073a4.85 4.85 0 0 0 1.678-1.989c.387-.845.526-1.565.47-2.47 0 0-.011-.072-.054-.08h-3.51c.04.135.015.332 0 .516-.007.083-.007.108-.187.55a2.3 2.3 0 0 1-1.23 1.278c-.633.284-1.299.328-1.982.238-.469-.06-.905-.2-1.295-.469a2.2 2.2 0 0 1-.828-1.088c-.28-.764-.312-1.558-.262-2.36.025-.406.092-.806.23-1.192.258-.73.773-1.21 1.518-1.443a2.92 2.92 0 0 1 2.154.144c.635.295.999.807 1.16 1.48.08.338.038.338 0 .738" fill="#252F9C" data-color="1"></path>
        <path fill-rule="evenodd" clip-rule="evenodd" d="M17.77 14.974h-3.558V4.31a5.14 5.14 0 0 0 3.558-.001z" fill="#252F9C" data-color="1"></path>
        <path fill-rule="evenodd" clip-rule="evenodd" d="M16.003.327c-1.9 0-2.155.574-2.289 1.437v.378c.066.857.522 1.437 2.289 1.437s2.222-.58 2.288-1.437v-.378C18.157.9 17.901.327 16.003.327" fill="#252F9C" data-color="1"></path>
    </g>
</svg>