<svg preserveAspectRatio="xMidYMid meet" data-bbox="0.75 0.75 96.5 96.5" width="98" height="98" viewBox="0 0 98 98" xmlns="http://www.w3.org/2000/svg" data-type="ugc" role="presentation" aria-hidden="true" aria-label="">
    <g>
        <path d="M97.25 11v76c0 5.66-4.59 10.25-10.25 10.25H11C5.34 97.25.75 92.66.75 87V11C.75 5.34 5.34.75 11 .75h76C92.66.75 97.25 5.34 97.25 11z" fill="url(#fba5b8ea-724f-4351-b582-44b1ed2c3472_comp-lycvqpj3)" stroke="#ffffff" stroke-width=".5" stroke-linejoin="round"></path>
        <path opacity=".234" d="M34.33 61.88C30.395 61.88 10 76.55 10 76.55v3.936h78V49s-5.725 6.798-9.09 6.647c-3.147-.142-2.794-2.243-6.295-2.711-3.502-.469-19.321 16.458-23.668 16.303-3.363-.12-10.68-7.358-14.617-7.358Z" fill="url(#cdde5952-c3c9-4114-8318-eecb09055272_comp-lycvqpj3)"></path>
        <path fill="none" d="M10.715 76.193 29.742 63.43a7.89 7.89 0 0 1 8.932.1l5.575 3.922a7.89 7.89 0 0 0 9.518-.335l15.92-12.96a4.74 4.74 0 0 1 6.224.21v0a4.74 4.74 0 0 0 6.504-.037L88 49" stroke="#ffffff" stroke-opacity=".7" stroke-width=".716" stroke-linecap="round"></path>
        <path d="M41.005 42h-.88v-7.865h.88v3.685l3.564-3.685h1.166l-3.761 3.784L46.163 42h-1.309l-3.85-3.828V42Z" fill="#ffffff"></path>
        <path d="M36.345 34.135h.847V42h-.88v-6.919l-1.881 1.584v-.946z" fill="#ffffff"></path>
        <path d="M32.91 42h-4.96v-.704l2.607-2.673q.55-.56.869-.979t.45-.781q.133-.374.133-.77 0-.65-.385-1.023-.385-.375-1.056-.374-.66 0-1.155.319-.494.32-.902 1.023l-.605-.55q.967-1.53 2.673-1.529.681 0 1.188.264.516.264.803.748.297.473.297 1.1 0 .484-.154.924-.154.429-.55.946a17 17 0 0 1-1.111 1.243l-2.024 2.079h3.883z" fill="#ffffff"></path>
        <path d="M26.738 42h-4.96v-.704l2.606-2.673q.55-.56.87-.979.318-.418.45-.781a2.3 2.3 0 0 0 .132-.77q0-.65-.385-1.023-.384-.375-1.056-.374-.66 0-1.155.319-.494.32-.902 1.023l-.605-.55q.969-1.53 2.673-1.529.682 0 1.188.264.518.264.803.748.297.473.297 1.1.001.484-.154.924-.154.429-.55.946-.396.506-1.11 1.243l-2.025 2.079h3.883z" fill="#ffffff"></path>
        <path d="m14.682 40.636.594-.55q.759 1.089 1.936 1.221V38.26q-1.21-.253-1.738-.715-.528-.473-.528-1.331 0-.572.286-1.034.298-.472.814-.759.517-.285 1.177-.341v-1.221h.671v1.232q.672.088 1.232.451.561.352.99.957l-.594.55q-.648-1-1.628-1.199v2.75q1.276.264 1.826.77.561.495.561 1.408 0 .605-.297 1.1-.297.484-.836.803-.539.308-1.265.374v1.221h-.67v-1.221q-1.564-.132-2.53-1.419Zm1.067-4.433q0 .55.341.836.353.285 1.133.44v-2.651q-.66.077-1.067.451t-.407.924m3.73 3.575q0-.55-.375-.869-.374-.33-1.22-.517v2.915q.736-.077 1.165-.495a1.4 1.4 0 0 0 .43-1.034" fill="#ffffff"></path>
        <path d="m66.033 23.164.55-.583q.352.407.803.649a2.3 2.3 0 0 0 1.034.231q.594 0 .957-.275a.85.85 0 0 0 .374-.715.65.65 0 0 0-.319-.572q-.307-.22-1.067-.33-1.155-.187-1.628-.539-.462-.352-.462-.979 0-.748.583-1.188.583-.45 1.507-.451.682 0 1.221.264.54.264.957.748l-.55.583a2.35 2.35 0 0 0-.715-.638 1.7 1.7 0 0 0-.913-.242q-.539 0-.88.253-.34.241-.34.627 0 .307.285.495.285.176 1.012.286 1.2.176 1.694.572.495.385.495 1.1a1.5 1.5 0 0 1-.286.902q-.285.385-.792.605-.495.21-1.133.209-.792 0-1.364-.264a3.5 3.5 0 0 1-1.023-.748" fill="#ffffff"></path>
        <path d="m64.248 22.449.572.55a2.84 2.84 0 0 1-1.012.891 2.8 2.8 0 0 1-1.266.286q-.814 0-1.44-.374a2.65 2.65 0 0 1-.968-1.023 3.2 3.2 0 0 1-.342-1.485q0-.825.341-1.474.352-.66.947-1.034.605-.374 1.352-.374.737 0 1.298.363.573.363.892 1.012.319.638.319 1.474v.33h-4.258q.089.814.595 1.331.516.517 1.32.517.505 0 .913-.242.406-.241.736-.748Zm-1.816-3.3a1.6 1.6 0 0 0-1.166.484q-.472.484-.572 1.265h3.367q-.078-.802-.518-1.276-.428-.473-1.11-.473Z" fill="#ffffff"></path>
        <path d="M58.063 24h-.847v-7.92h.847z" fill="#ffffff"></path>
        <path d="M52.528 24.176a2.2 2.2 0 0 1-1.012-.22 1.74 1.74 0 0 1-.693-.605 1.67 1.67 0 0 1-.242-.891q0-.825.627-1.309.638-.484 1.705-.484h1.518v-.044q0-.682-.418-1.078-.407-.407-1.122-.407-.934 0-1.584.781l-.55-.539q.924-.968 2.19-.968.691 0 1.21.275.516.264.802.759.285.484.286 1.144V24h-.803v-.737a2.25 2.25 0 0 1-.803.671q-.495.242-1.11.242Zm.121-.704a1.94 1.94 0 0 0 1.111-.319q.473-.33.671-.869v-.935h-1.419q-.737 0-1.144.286-.407.274-.407.792 0 .473.32.759.33.285.868.286" fill="#ffffff"></path>
        <path d="m43.164 22.735.627-.627q1.044 1.276 2.53 1.276.924 0 1.474-.429.56-.429.56-1.144 0-.616-.483-.946-.474-.34-1.617-.528-1.497-.242-2.145-.726-.65-.495-.65-1.397 0-.66.353-1.166.363-.505.99-.792a3.4 3.4 0 0 1 1.44-.297q1.793 0 2.993 1.364l-.616.616q-.517-.615-1.09-.902a2.8 2.8 0 0 0-1.286-.286q-.87 0-1.375.385-.495.385-.495 1.067 0 .528.45.825.452.297 1.508.462 1.572.242 2.244.781.681.528.682 1.529 0 .693-.374 1.232a2.5 2.5 0 0 1-1.045.847q-.66.297-1.518.297-1.904 0-3.157-1.441" fill="#ffffff"></path>
        <path d="M38.829 24h-.847v-7.92h.847z" fill="#ffffff"></path>
        <path d="M33.294 24.176q-.571 0-1.012-.22a1.74 1.74 0 0 1-.693-.605 1.67 1.67 0 0 1-.242-.891q0-.825.627-1.309.639-.484 1.705-.484h1.518v-.044q0-.682-.418-1.078-.407-.407-1.122-.407-.934 0-1.584.781l-.55-.539q.924-.968 2.19-.968.691 0 1.21.275.516.264.802.759.285.484.286 1.144V24h-.803v-.737a2.25 2.25 0 0 1-.803.671q-.495.242-1.11.242Zm.121-.704a1.94 1.94 0 0 0 1.111-.319q.474-.33.671-.869v-.935h-1.419q-.736 0-1.144.286-.407.274-.407.792 0 .473.32.759.33.285.868.286" fill="#ffffff"></path>
        <path d="M30.258 24h-1.21q-.572 0-.87-.308-.296-.319-.296-.902v-3.476h-1.034v-.726h1.034v-1.584h.847v1.584h1.452v.726h-1.452v3.399q0 .561.528.561h1V24Z" fill="#ffffff"></path>
        <path d="M23.215 24.176q-.78 0-1.397-.374-.616-.374-.968-1.023-.342-.65-.341-1.485c.001-.835.113-1.052.34-1.485a2.65 2.65 0 0 1 .969-1.023 2.63 2.63 0 0 1 1.397-.374q.792 0 1.408.374t.957 1.023q.352.65.352 1.485c0 .835-.117 1.052-.352 1.485a2.57 2.57 0 0 1-.957 1.023q-.615.374-1.408.374m0-.737q.55 0 .957-.275.407-.274.638-.759a2.55 2.55 0 0 0 .23-1.111q0-.638-.23-1.111a1.86 1.86 0 0 0-.638-.759 1.67 1.67 0 0 0-.957-.275q-.54 0-.946.275a1.86 1.86 0 0 0-.638.759q-.231.473-.231 1.111 0 .627.23 1.111.232.485.639.759.407.275.946.275" fill="#ffffff"></path>
        <path d="M17.74 24h-.88v-7.084h-2.442v-.781h5.764v.781H17.74z" fill="#ffffff"></path>
        <defs fill="none">
            <linearGradient id="fba5b8ea-724f-4351-b582-44b1ed2c3472_comp-lycvqpj3" x1="89" y1="1" x2="-43" y2="1" gradientUnits="userSpaceOnUse">
                <stop offset=".085" stop-color="#5C71BF"></stop>
                <stop offset=".86" stop-color="#D3C3EB"></stop>
                <stop offset="1" stop-color="#5C71BF"></stop>
            </linearGradient>
            <linearGradient id="cdde5952-c3c9-4114-8318-eecb09055272_comp-lycvqpj3" x1="47.768" y1="55.358" x2="47.768" y2="80.625" gradientUnits="userSpaceOnUse">
                <stop offset=".208" stop-color="#ffffff" stop-opacity=".75"></stop>
                <stop offset="1" stop-color="#ffffff" stop-opacity=".01"></stop>
            </linearGradient>
        </defs>
    </g>
</svg>