<svg preserveAspectRatio="xMidYMid meet" data-bbox="0.75 0.75 189.5 33.5" width="191" height="35" viewBox="0 0 191 35" xmlns="http://www.w3.org/2000/svg" data-type="ugc" role="presentation" aria-hidden="true" aria-label="">
    <g>
        <path d="M34.25 51v156c0 9.25-7.5 16.75-16.75 16.75S.75 216.25.75 207V51c0-9.25 7.5-16.75 16.75-16.75S34.25 41.75 34.25 51z" transform="rotate(-90 .75 34.25)" fill="url(#77b29488-8b4a-418e-8191-5f0a08495746_comp-lycvpuc1)" stroke="#ffffff" stroke-width=".5" stroke-linejoin="round"></path>
        <path d="M170.823 21h-.847v-3.124q0-.814-.319-1.265-.32-.45-.902-.451-.737 0-1.166.649-.429.65-.429 1.76V21h-.847v-3.124q0-.814-.319-1.265-.32-.45-.902-.451-.726 0-1.155.649-.429.65-.429 1.76V21h-.847v-5.412h.836v1.1q.22-.605.671-.935a1.8 1.8 0 0 1 1.1-.341q.66 0 1.089.363.428.352.605 1.023.22-.66.715-1.023.506-.363 1.199-.363.934 0 1.441.616.506.615.506 1.76z" fill="#ffffff"></path>
        <path d="M158.342 21.176q-.782 0-1.397-.374a2.65 2.65 0 0 1-.968-1.023q-.341-.65-.341-1.485c0-.835.113-1.052.341-1.485a2.64 2.64 0 0 1 .968-1.023 2.63 2.63 0 0 1 1.397-.374q.792 0 1.408.374t.957 1.023q.352.65.352 1.485c0 .835-.118 1.052-.352 1.485a2.6 2.6 0 0 1-.957 1.023 2.66 2.66 0 0 1-1.408.374m0-.737q.549 0 .957-.275.407-.274.638-.759a2.55 2.55 0 0 0 .231-1.111q0-.638-.231-1.111a1.86 1.86 0 0 0-.638-.759 1.67 1.67 0 0 0-.957-.275q-.54 0-.946.275a1.85 1.85 0 0 0-.638.759q-.231.473-.231 1.111 0 .627.231 1.111.23.485.638.759.406.275.946.275" fill="#ffffff"></path>
        <path d="m154.143 19.559.594.561q-.78 1.056-2.156 1.056-.792 0-1.408-.363a2.7 2.7 0 0 1-.957-1.023q-.34-.649-.341-1.496c-.001-.847.118-1.063.352-1.496a2.6 2.6 0 0 1 .968-1.012q.616-.375 1.408-.374 1.376 0 2.145 1.056l-.605.561a1.64 1.64 0 0 0-.638-.649 1.84 1.84 0 0 0-.924-.231q-.802 0-1.309.583-.506.584-.506 1.562 0 .968.506 1.562.517.583 1.342.583.99 0 1.529-.88" fill="#ffffff"></path>
        <path d="M148.086 21.132a.63.63 0 0 1-.462-.187.65.65 0 0 1-.176-.462q0-.274.176-.462a.63.63 0 0 1 .462-.187q.274 0 .451.187a.63.63 0 0 1 .187.462.63.63 0 0 1-.187.462.6.6 0 0 1-.451.187" fill="#ffffff"></path>
        <path d="m141.56 20.164.55-.583q.352.407.803.649a2.3 2.3 0 0 0 1.034.231q.594 0 .957-.275a.85.85 0 0 0 .374-.715.65.65 0 0 0-.319-.572q-.308-.22-1.067-.33-1.155-.187-1.628-.539-.462-.352-.462-.979 0-.748.583-1.188.583-.45 1.507-.451.683 0 1.221.264t.957.748l-.55.583a2.35 2.35 0 0 0-.715-.638 1.7 1.7 0 0 0-.913-.242q-.539 0-.88.253-.34.242-.341.627 0 .307.286.495.286.176 1.012.286 1.199.176 1.694.572.495.385.495 1.1a1.5 1.5 0 0 1-.286.902 1.9 1.9 0 0 1-.792.605 2.9 2.9 0 0 1-1.133.209q-.792 0-1.364-.264a3.5 3.5 0 0 1-1.023-.748" fill="#ffffff"></path>
        <path d="M137.252 21h-.847v-7.92h.847v4.961l2.607-2.453h1.133l-2.838 2.607L141.289 21h-1.221l-2.816-2.552z" fill="#ffffff"></path>
        <path d="M134.558 21h-.847v-3.113q0-.858-.363-1.287-.352-.44-.957-.44-.44 0-.825.253-.386.242-.627.781-.242.528-.242 1.375V21h-.847v-5.412h.836v1.111q.264-.705.781-.99a2.16 2.16 0 0 1 1.089-.297q.935 0 1.463.616.539.605.539 1.76z" fill="#ffffff"></path>
        <path d="M128.067 13.542a.6.6 0 0 1-.176.44.57.57 0 0 1-.418.165.6.6 0 0 1-.429-.165.62.62 0 0 1-.165-.44.58.58 0 0 1 .594-.605q.253 0 .418.176.176.165.176.429M127.902 21h-.847v-5.412h.847z" fill="#ffffff"></path>
        <path d="M125.778 15.5v.814h-.187a1.8 1.8 0 0 0-.946.264q-.429.253-.693.792-.264.528-.264 1.364V21h-.847v-5.412h.836v1.21q.276-.705.814-1.001.54-.297 1.111-.297z" fill="#ffffff"></path>
        <path d="M120.059 21v-.858a2.05 2.05 0 0 1-.781.759 2.36 2.36 0 0 1-1.144.275q-.759 0-1.353-.374a2.65 2.65 0 0 1-.924-1.023q-.341-.65-.341-1.485 0-.825.33-1.474a2.63 2.63 0 0 1 .924-1.034q.594-.375 1.331-.374.637 0 1.155.308.516.307.792.825V13.08h.847V21zm-3.652-2.706q0 .627.231 1.111.242.485.66.759.417.275.957.275.627 0 1.111-.352.483-.363.682-.946v-.693q0-.682-.231-1.199a1.87 1.87 0 0 0-.649-.803 1.56 1.56 0 0 0-.946-.297 1.7 1.7 0 0 0-.946.275 1.85 1.85 0 0 0-.638.759 2.55 2.55 0 0 0-.231 1.111" fill="#ffffff"></path>
        <path d="M111.538 21.176q-.782 0-1.397-.374a2.65 2.65 0 0 1-.968-1.023q-.341-.65-.341-1.485c0-.835.113-1.052.341-1.485a2.64 2.64 0 0 1 .968-1.023 2.63 2.63 0 0 1 1.397-.374q.792 0 1.408.374t.957 1.023q.351.65.352 1.485c.001.835-.118 1.052-.352 1.485a2.6 2.6 0 0 1-.957 1.023 2.66 2.66 0 0 1-1.408.374m0-.737q.549 0 .957-.275.407-.274.638-.759a2.55 2.55 0 0 0 .231-1.111q0-.638-.231-1.111a1.86 1.86 0 0 0-.638-.759 1.67 1.67 0 0 0-.957-.275q-.54 0-.946.275a1.85 1.85 0 0 0-.638.759q-.231.473-.231 1.111 0 .627.231 1.111.23.485.638.759.406.275.946.275" fill="#ffffff"></path>
        <path d="M104.607 21.176a2.2 2.2 0 0 1-1.012-.22 1.75 1.75 0 0 1-.693-.605 1.7 1.7 0 0 1-.242-.891q0-.825.627-1.309.638-.484 1.705-.484h1.518v-.044q0-.682-.418-1.078-.406-.407-1.122-.407-.934 0-1.584.781l-.55-.539q.924-.968 2.189-.968.693 0 1.21.275.517.264.803.759.286.484.286 1.144V21h-.803v-.737a2.25 2.25 0 0 1-.803.671 2.5 2.5 0 0 1-1.111.242m.121-.704a1.94 1.94 0 0 0 1.111-.319q.473-.33.671-.869v-.935h-1.419q-.737 0-1.144.286-.407.274-.407.792 0 .473.319.759.33.285.869.286" fill="#ffffff"></path>
        <path d="M101.339 13.542a.6.6 0 0 1-.176.44.57.57 0 0 1-.418.165.6.6 0 0 1-.429-.165.62.62 0 0 1-.165-.44.58.58 0 0 1 .594-.605q.253 0 .418.176.176.165.176.429M101.174 21h-.847v-5.412h.847z" fill="#ffffff"></path>
        <path d="m98.279 19.559.594.561q-.781 1.056-2.156 1.056a2.7 2.7 0 0 1-1.408-.363 2.7 2.7 0 0 1-.957-1.023q-.341-.649-.341-1.496c0-.847.117-1.063.352-1.496q.351-.65.968-1.012.615-.375 1.408-.374 1.374 0 2.145 1.056l-.605.561a1.65 1.65 0 0 0-.638-.649 1.84 1.84 0 0 0-.924-.231q-.803 0-1.31.583-.505.584-.505 1.562 0 .968.506 1.562.517.583 1.342.583.99 0 1.529-.88" fill="#ffffff"></path>
        <path d="M92.22 21.132a.63.63 0 0 1-.462-.187.65.65 0 0 1-.175-.462.65.65 0 0 1 .175-.462.63.63 0 0 1 .463-.187q.275 0 .45.187a.63.63 0 0 1 .188.462.63.63 0 0 1-.188.462.6.6 0 0 1-.45.187Z" fill="#ffffff"></path>
        <path d="M89.426 21h-.946l-1.243-4.345L86.005 21h-.957l-1.606-5.412h.869l1.232 4.499 1.276-4.499h.858l1.276 4.543 1.265-4.543h.836z" fill="#ffffff"></path>
        <path d="M80.905 21h-.946l-1.243-4.345L77.484 21h-.957l-1.606-5.412h.869l1.232 4.499 1.276-4.499h.858l1.276 4.543 1.265-4.543h.836z" fill="#ffffff"></path>
        <path d="M72.384 21h-.946l-1.243-4.345L68.963 21h-.957L66.4 15.588h.869l1.232 4.499 1.276-4.499h.858l1.276 4.543 1.265-4.543h.836z" fill="#ffffff"></path>
        <path d="M62.726 21h-.847l3.036-8.041h.847z" fill="#ffffff"></path>
        <path d="M59.361 21h-.847l3.036-8.041h.847z" fill="#ffffff"></path>
        <path d="M56.52 16.886a.63.63 0 0 1-.462-.187.65.65 0 0 1-.176-.462q0-.274.176-.462a.63.63 0 0 1 .462-.187.6.6 0 0 1 .451.187.63.63 0 0 1 .187.462.63.63 0 0 1-.187.462.6.6 0 0 1-.45.187Zm0 4.246a.63.63 0 0 1-.462-.187.65.65 0 0 1-.176-.462q0-.275.176-.462a.63.63 0 0 1 .462-.187.6.6 0 0 1 .451.187.63.63 0 0 1 .187.462.63.63 0 0 1-.187.462.6.6 0 0 1-.45.187Z" fill="#ffffff"></path>
        <path d="m49.995 20.164.55-.583q.351.407.803.649a2.3 2.3 0 0 0 1.034.231q.594 0 .957-.275a.85.85 0 0 0 .374-.715.65.65 0 0 0-.32-.572q-.307-.22-1.066-.33-1.155-.187-1.628-.539-.462-.352-.462-.979 0-.748.583-1.188.582-.45 1.507-.451.681 0 1.22.264.54.264.958.748l-.55.583a2.35 2.35 0 0 0-.715-.638 1.7 1.7 0 0 0-.913-.242q-.54 0-.88.253-.342.242-.341.627 0 .307.286.495.285.176 1.012.286 1.199.176 1.694.572.495.385.495 1.1 0 .506-.286.902a1.9 1.9 0 0 1-.792.605 2.9 2.9 0 0 1-1.133.209q-.792 0-1.364-.264a3.5 3.5 0 0 1-1.023-.748" fill="#ffffff"></path>
        <path d="M44.495 23.134h-.847v-7.546h.836V16.6q.274-.54.803-.858.54-.33 1.188-.33.749 0 1.32.374.572.375.902 1.034.33.65.33 1.474 0 .835-.341 1.485a2.63 2.63 0 0 1-.935 1.023 2.43 2.43 0 0 1-1.342.374q-.65 0-1.144-.264a2 2 0 0 1-.77-.737zm0-4.686v.693q.198.583.682.946a1.84 1.84 0 0 0 1.11.352q.552 0 .958-.275.418-.274.649-.759.242-.484.242-1.111a2.55 2.55 0 0 0-.231-1.111 1.8 1.8 0 0 0-.627-.759 1.6 1.6 0 0 0-.924-.275q-.54 0-.957.297-.419.285-.66.803a2.8 2.8 0 0 0-.242 1.199" fill="#ffffff"></path>
        <path d="M42.218 21h-1.21q-.571 0-.869-.308-.297-.319-.297-.902v-3.476h-1.034v-.726h1.034v-1.584h.847v1.584h1.452v.726H40.69v3.399q0 .56.528.56h1.001z" fill="#ffffff"></path>
        <path d="M38.306 21h-1.21q-.572 0-.87-.308-.296-.319-.297-.902v-3.476h-1.034v-.726h1.034v-1.584h.847v1.584h1.452v.726h-1.452v3.399q0 .56.528.56h1.002z" fill="#ffffff"></path>
        <path d="M33.643 21h-.847v-3.113q0-.825-.352-1.276-.342-.45-.968-.451-.77 0-1.232.649-.462.65-.462 1.76V21h-.847v-7.92h.847v3.619q.23-.627.704-.957.483-.33 1.155-.33.945 0 1.474.627.528.616.528 1.749z" fill="#ffffff"></path>
        <path fill-rule="evenodd" clip-rule="evenodd" d="M18.697 14.838c0-.603.517-1.093 1.152-1.093h.3c.636 0 1.153.49 1.153 1.093v1.495h-2.605zm3.45 1.496h-.059V14.84c0-1.014-.87-1.84-1.938-1.84h-.301c-1.069 0-1.938.826-1.938 1.84v1.495h-.059c-.47 0-.852.362-.852.81v3.047c0 .447.381.809.852.809h4.295c.47 0 .853-.362.853-.81v-3.047c0-.447-.382-.809-.853-.809Z" fill="#ffffff"></path>
        <defs fill="none">
            <linearGradient id="77b29488-8b4a-418e-8191-5f0a08495746_comp-lycvpuc1" x1="34.062" y1="191.871" x2="34.062" y2="-19.365" gradientUnits="userSpaceOnUse">
                <stop stop-color="#5C71BF"></stop>
                <stop offset=".86" stop-color="#D3C3EB"></stop>
                <stop offset="1" stop-color="#5C71BF"></stop>
            </linearGradient>
        </defs>
    </g>
</svg>