<svg preserveAspectRatio="xMidYMid meet" data-bbox="0.75 0.75 238.5 145.5" width="240" height="147" viewBox="0 0 240 147" xmlns="http://www.w3.org/2000/svg" data-type="ugc" role="presentation" aria-hidden="true" aria-label="">
    <g>
        <path d="M229 146.25H11C5.34 146.25.75 141.661.75 136V11C.75 5.34 5.34.75 11 .75h218c5.661 0 10.25 4.59 10.25 10.25v125c0 5.661-4.589 10.25-10.25 10.25Z" fill="#ffffff" fill-opacity=".2" stroke="#ffffff" stroke-width=".5" stroke-linejoin="round"></path>
        <path fill="none" d="M220.75 86v33a4.75 4.75 0 0 1-4.75 4.75H24a4.75 4.75 0 0 1-4.75-4.75V86A4.75 4.75 0 0 1 24 81.25h192a4.75 4.75 0 0 1 4.75 4.75z" stroke="#ffffff" stroke-width=".5"></path>
        <path d="M24 88a2 2 0 0 1 2-2h46v33H26a2 2 0 0 1-2-2z" fill="#D8CDFF"></path>
        <path d="M72 86h48v33H72z" fill="#ED775D"></path>
        <path d="M120 86h48v33h-48z" fill="#A74469"></path>
        <path d="M168 86h46a2 2 0 0 1 2 2v29a2 2 0 0 1-2 2h-46z" fill="#252F9C"></path>
        <path d="M224 84.5a6.5 6.5 0 1 1-13 0 6.5 6.5 0 0 1 13 0" fill="#ffffff"></path>
        <path fill="none" d="m215 84.786 1.786 1.785L220 83" stroke="#3049AD" stroke-width=".889" stroke-linecap="round" stroke-linejoin="round"></path>
        <path d="m95.268 63.394.649.693a2.8 2.8 0 0 1-1.023.814 2.95 2.95 0 0 1-1.276.275q-.858 0-1.507-.374a2.66 2.66 0 0 1-1.001-1.034 3.05 3.05 0 0 1-.363-1.496q0-.836.352-1.496.351-.66.968-1.034a2.56 2.56 0 0 1 1.386-.385q.747 0 1.32.374.571.363.89 1.012.33.65.33 1.485v.396h-4.091q.1.748.56 1.199.463.44 1.21.44.99 0 1.596-.869m-1.826-3.124q-.617 0-1.034.429-.408.418-.495 1.133h2.97q-.066-.726-.451-1.144-.375-.418-.99-.418" fill="#ffffff" fill-opacity=".9"></path>
        <path d="M87.771 65h-1.078l-2.2-5.467h1.155l1.606 4.356 1.617-4.356h1.1z" fill="#ffffff" fill-opacity=".9"></path>
        <path d="M83.272 57.597q0 .308-.209.506a.7.7 0 0 1-.506.198.72.72 0 0 1-.517-.198.67.67 0 0 1-.209-.506.68.68 0 0 1 .21-.517.72.72 0 0 1 .516-.198q.308 0 .506.198a.68.68 0 0 1 .21.517ZM83.107 65h-1.1v-5.467h1.1z" fill="#ffffff" fill-opacity=".9"></path>
        <path d="M80.524 65H79.28q-1.298 0-1.298-1.342v-3.201h-.968v-.924h.968v-1.529h1.1v1.529h1.375v.924h-1.375v3.058q0 .561.528.561h.913V65Z" fill="#ffffff" fill-opacity=".9"></path>
        <path d="m75.373 63.405.715.704a2.8 2.8 0 0 1-.968.792q-.572.275-1.254.275a2.8 2.8 0 0 1-1.452-.374 2.7 2.7 0 0 1-.99-1.023q-.351-.66-.352-1.507 0-.858.352-1.507a2.66 2.66 0 0 1 1.001-1.034q.639-.374 1.452-.374 1.409 0 2.222 1.067l-.737.704q-.494-.825-1.463-.825-.736 0-1.21.539-.462.528-.462 1.43 0 .88.473 1.43.474.54 1.221.539.462 0 .825-.209.363-.22.627-.627" fill="#ffffff" fill-opacity=".9"></path>
        <path d="M66.695 65.176a2.3 2.3 0 0 1-1.034-.22 1.8 1.8 0 0 1-.704-.627 1.7 1.7 0 0 1-.242-.902q0-.847.649-1.32.649-.484 1.77-.484h1.376q0-.627-.385-1.001-.375-.375-1.056-.374-.858 0-1.54.726l-.638-.682q.967-.935 2.266-.935.726 0 1.254.286a2 2 0 0 1 .836.781q.297.495.297 1.166V65h-1.001v-.715a2.1 2.1 0 0 1-.781.66 2.4 2.4 0 0 1-1.067.231m.22-.858q.56 0 .979-.286.429-.297.616-.781v-.847h-1.276q-.66 0-1.034.264a.82.82 0 0 0-.363.715q0 .418.286.682.297.253.792.253" fill="#ffffff" fill-opacity=".9"></path>
        <path d="m61.325 64.362-.682.737-1.1-1.089q-.517.627-1.09.902-.56.264-1.297.264-.748 0-1.32-.275a2.2 2.2 0 0 1-.88-.781 2.14 2.14 0 0 1-.308-1.155q0-.705.396-1.243.396-.54 1.232-.957-.506-.528-.726-.957a2.1 2.1 0 0 1-.209-.935q0-.55.264-.979t.726-.682 1.056-.253c.594 0 .752.084 1.067.253q.473.242.737.671.275.429.275.979 0 .66-.418 1.199-.419.528-1.188.88l1.55 1.54.903-1.342.814.572-.99 1.474zm-4.917-5.511q0 .363.176.693.176.319.66.803 1.177-.473 1.177-1.463 0-.45-.286-.737a.93.93 0 0 0-.715-.297q-.44 0-.726.275-.285.274-.286.726m-.605 4.081q0 .605.374.968.385.352 1.023.352.45 0 .858-.231.419-.231.792-.704l-1.98-1.958q-.55.264-.814.649-.253.386-.253.924" fill="#ffffff" fill-opacity=".9"></path>
        <path d="M49.856 59.533h1.11l-2.53 6.281q-.252.638-.648.979-.386.34-1.133.341h-.682v-.924h.649q.375 0 .572-.165t.308-.495l.198-.528-2.211-5.489h1.155l1.595 4.323z" fill="#ffffff" fill-opacity=".9"></path>
        <path d="M44.103 65h-1.1v-7.92h1.1z" fill="#ffffff" fill-opacity=".9"></path>
        <path d="m40.645 63.394.65.693a2.8 2.8 0 0 1-1.023.814 2.95 2.95 0 0 1-1.276.275q-.859 0-1.508-.374a2.66 2.66 0 0 1-1-1.034 3.05 3.05 0 0 1-.364-1.496q0-.836.352-1.496.353-.66.968-1.034a2.56 2.56 0 0 1 1.386-.385q.75 0 1.32.374.573.363.892 1.012.33.65.33 1.485v.396h-4.093q.099.748.561 1.199.462.44 1.21.44.99 0 1.596-.869ZM38.82 60.27q-.615 0-1.034.429-.406.418-.494 1.133h2.97q-.066-.726-.452-1.144-.373-.418-.99-.418" fill="#ffffff" fill-opacity=".9"></path>
        <path d="M33.15 65h-1.08l-2.2-5.467h1.155l1.606 4.356 1.617-4.356h1.1z" fill="#ffffff" fill-opacity=".9"></path>
        <path d="M28.65 57.597a.67.67 0 0 1-.208.506.7.7 0 0 1-.506.198.72.72 0 0 1-.517-.198.67.67 0 0 1-.21-.506.68.68 0 0 1 .21-.517.72.72 0 0 1 .517-.198q.307 0 .506.198a.68.68 0 0 1 .209.517ZM28.486 65h-1.1v-5.467h1.1z" fill="#ffffff" fill-opacity=".9"></path>
        <path d="M25.929 65h-4.84v-7.865h1.133v6.875h3.707z" fill="#ffffff" fill-opacity=".9"></path>
        <path d="m108.321 32.603.884.85q-.663.918-1.564 1.377a4.3 4.3 0 0 1-1.955.442q-1.258 0-2.227-.578a4.1 4.1 0 0 1-1.496-1.581q-.528-1.02-.527-2.295 0-1.276.527-2.278a4.15 4.15 0 0 1 1.462-1.598 3.9 3.9 0 0 1 2.091-.578q1.139 0 2.006.561a3.8 3.8 0 0 1 1.377 1.564q.492.986.493 2.278v.51h-6.579q.135 1.258.918 2.057.798.8 2.04.799a2.7 2.7 0 0 0 1.411-.374q.629-.375 1.139-1.156m-2.805-5.1q-1.055 0-1.802.748-.732.748-.884 1.955h5.202q-.12-1.241-.799-1.972-.663-.73-1.717-.731" fill="#ffffff"></path>
        <path d="M99.22 35h-1.309v-4.828q0-1.258-.493-1.955t-1.394-.697q-1.14 0-1.802 1.003t-.663 2.72V35H92.25v-4.828q0-1.258-.493-1.955t-1.394-.697q-1.122 0-1.785 1.003t-.663 2.72V35h-1.309v-8.364h1.292v1.7q.34-.935 1.037-1.445.714-.527 1.7-.527 1.02 0 1.683.561.663.544.935 1.581.34-1.02 1.105-1.581.782-.561 1.853-.561 1.445 0 2.227.952t.782 2.72z" fill="#ffffff"></path>
        <path d="m83.17 32.603.883.85q-.663.918-1.564 1.377a4.3 4.3 0 0 1-1.955.442q-1.257 0-2.227-.578a4.1 4.1 0 0 1-1.496-1.581q-.527-1.02-.527-2.295 0-1.276.527-2.278.544-1.02 1.462-1.598a3.9 3.9 0 0 1 2.091-.578q1.14 0 2.006.561a3.8 3.8 0 0 1 1.377 1.564q.493.986.493 2.278v.51h-6.579q.136 1.258.918 2.057.8.8 2.04.799.783 0 1.411-.374.63-.375 1.14-1.156m-2.806-5.1q-1.054 0-1.802.748-.73.748-.884 1.955h5.202q-.12-1.241-.799-1.972-.663-.73-1.717-.731" fill="#ffffff"></path>
        <path d="M74.076 35h-1.309v-4.811q0-1.275-.544-1.972-.527-.697-1.496-.697-1.19 0-1.904 1.003t-.714 2.72V35H66.8V22.76h1.31v5.593q.356-.969 1.087-1.479.748-.51 1.785-.51 1.462 0 2.278.969.816.953.816 2.703z" fill="#ffffff"></path>
        <path d="M60.942 35h-1.36V24.052h-3.774v-1.207h8.908v1.207h-3.774z" fill="#ffffff"></path>
        <path d="m49.352 32.603.884.85q-.663.918-1.564 1.377a4.3 4.3 0 0 1-1.955.442q-1.258 0-2.227-.578a4.1 4.1 0 0 1-1.496-1.581q-.527-1.02-.527-2.295 0-1.276.527-2.278.544-1.02 1.462-1.598a3.9 3.9 0 0 1 2.09-.578q1.14 0 2.007.561a3.8 3.8 0 0 1 1.377 1.564q.493.986.493 2.278v.51h-6.58q.136 1.258.919 2.057.798.8 2.04.799.782 0 1.41-.374.63-.375 1.14-1.156m-2.805-5.1q-1.054 0-1.802.748-.73.748-.884 1.955h5.202q-.12-1.241-.8-1.972-.662-.73-1.716-.731" fill="#ffffff"></path>
        <path d="M41.236 35h-1.87q-.884 0-1.343-.476-.459-.493-.459-1.394v-5.372h-1.598v-1.122h1.598v-2.448h1.31v2.448h2.243v1.122h-2.244v5.253q0 .867.816.867h1.547z" fill="#ffffff"></path>
        <path d="M34.248 23.474a.92.92 0 0 1-.272.68.88.88 0 0 1-.646.255.93.93 0 0 1-.663-.255.96.96 0 0 1-.255-.68q0-.408.255-.663a.9.9 0 0 1 .663-.272q.39 0 .646.272.272.255.272.663M33.993 35h-1.309v-8.364h1.31V35Z" fill="#ffffff"></path>
        <path d="m20.816 33.045.969-.969q1.615 1.972 3.91 1.972 1.428 0 2.278-.663.867-.663.867-1.768 0-.952-.748-1.462-.73-.527-2.5-.816-2.31-.374-3.314-1.122-1.003-.765-1.003-2.159 0-1.02.544-1.802.561-.782 1.53-1.224.986-.459 2.227-.459 2.771 0 4.624 2.108l-.952.952q-.8-.953-1.683-1.394-.867-.442-1.99-.442-1.342 0-2.124.595-.765.595-.765 1.649 0 .816.697 1.275t2.329.714q2.43.375 3.468 1.207 1.054.816 1.054 2.363a3.26 3.26 0 0 1-.578 1.904q-.578.833-1.615 1.309-1.02.459-2.346.459-2.94 0-4.88-2.227Z" fill="#ffffff"></path>
    </g>
</svg>