<svg preserveAspectRatio="xMidYMid meet" data-bbox="0.792 3.966 115.576 71.128" xmlns="http://www.w3.org/2000/svg" viewBox="0 0 150 76" height="76" width="150" data-type="ugc" role="presentation" aria-hidden="true" aria-label="">
    <g>
        <path fill="#252F9C" d="M8.155 65.6c-.339-.496-.832-.745-1.48-.745-.201 0-.4.03-.594.087-.194.05-.37.133-.529.248a1.2 1.2 0 0 0-.367.432 1.27 1.27 0 0 0-.14.616c0 .345.097.615.291.81.194.187.436.342.724.464.288.123.6.234.94.335.345.094.662.223.95.389.288.158.529.37.723.637.195.266.292.63.292 1.09 0 .346-.076.66-.227.94a2.078 2.078 0 0 1-.583.692 2.652 2.652 0 0 1-.81.432c-.295.1-.594.15-.897.15a3.52 3.52 0 0 1-1.339-.258 2.587 2.587 0 0 1-1.069-.875l.702-.508c.166.281.396.508.691.68.295.166.645.249 1.048.249.194 0 .389-.029.583-.086.194-.065.367-.155.518-.27.159-.123.288-.27.39-.443.1-.173.15-.371.15-.594 0-.267-.057-.486-.172-.659a1.303 1.303 0 0 0-.443-.443 2.53 2.53 0 0 0-.627-.302 24.66 24.66 0 0 0-.723-.238 8.743 8.743 0 0 1-.724-.27c-.23-.1-.439-.227-.626-.378a1.896 1.896 0 0 1-.443-.583c-.108-.238-.162-.533-.162-.886 0-.367.068-.687.205-.96a2.07 2.07 0 0 1 .562-.681 2.46 2.46 0 0 1 .799-.4c.295-.086.598-.13.907-.13.432 0 .825.069 1.177.206.353.137.68.378.983.723l-.68.53Zm2.124-1.781h.713v3.92h.021c.08-.137.18-.263.303-.378.122-.115.259-.212.41-.292.151-.086.31-.15.475-.194.173-.05.342-.076.508-.076.648 0 1.127.173 1.436.519.31.338.465.824.465 1.458v3.207h-.713v-2.797c0-.561-.097-.99-.292-1.285-.194-.302-.554-.454-1.08-.454-.036 0-.137.015-.302.044a1.357 1.357 0 0 0-.53.237c-.18.13-.341.324-.485.583-.144.26-.216.62-.216 1.08v2.592h-.713V63.82Zm10.332 5.637c0-.28-.047-.543-.14-.788a1.827 1.827 0 0 0-.379-.637 1.725 1.725 0 0 0-.604-.422 1.837 1.837 0 0 0-.789-.162 1.91 1.91 0 0 0-.8.162 1.75 1.75 0 0 0-.593.422 2.05 2.05 0 0 0-.378.637c-.087.245-.13.507-.13.788s.044.544.13.789c.093.244.22.457.378.637.165.18.363.324.594.432.238.1.504.151.8.151.294 0 .557-.05.788-.151.237-.108.439-.252.604-.432.166-.18.292-.393.378-.637.094-.245.14-.508.14-.789Zm.777 0c0 .382-.068.735-.205 1.059a2.478 2.478 0 0 1-1.404 1.404c-.324.13-.684.194-1.08.194-.389 0-.749-.065-1.08-.194a2.617 2.617 0 0 1-.842-.562 2.617 2.617 0 0 1-.562-.842 2.824 2.824 0 0 1-.194-1.059c0-.381.064-.734.194-1.058.137-.324.324-.605.562-.843.237-.237.518-.42.842-.55a2.801 2.801 0 0 1 1.08-.206c.396 0 .756.069 1.08.206.331.13.616.313.853.55.238.238.421.519.551.843.137.324.205.677.205 1.058Zm5.905 0c0-.28-.046-.543-.14-.788a1.827 1.827 0 0 0-.378-.637 1.725 1.725 0 0 0-.605-.422 1.837 1.837 0 0 0-.788-.162c-.295 0-.565.054-.81.162a1.93 1.93 0 0 0-.637.422c-.18.18-.32.392-.421.637a2.05 2.05 0 0 0-.152.788c0 .281.05.544.152.789.1.244.24.457.42.637s.393.324.638.432c.245.1.515.151.81.151.295 0 .558-.05.788-.151.238-.108.44-.252.605-.432.166-.18.292-.393.378-.637.094-.245.14-.508.14-.789Zm-4.611-2.527h.713v.842h.021c.116-.172.252-.32.41-.442.16-.123.325-.224.497-.303.173-.079.35-.137.53-.173.187-.036.363-.054.529-.054.396 0 .756.069 1.08.206.331.13.616.313.853.55.238.238.421.519.55.843.138.324.206.677.206 1.058 0 .382-.068.735-.205 1.059a2.478 2.478 0 0 1-1.404 1.404 2.884 2.884 0 0 1-1.61.14 2.394 2.394 0 0 1-.529-.173 2.548 2.548 0 0 1-.496-.302 1.855 1.855 0 0 1-.41-.443h-.022v3.953h-.713v-8.165Zm15.397 3.888h.021v-6.48h.778v7.646h-.972L33.35 65.44h-.022v6.544h-.778v-7.646h.972l4.558 6.48Zm6.948-1.36a2.21 2.21 0 0 0-.14-.79 1.827 1.827 0 0 0-.379-.636 1.725 1.725 0 0 0-.604-.422 1.837 1.837 0 0 0-.789-.162 1.91 1.91 0 0 0-.799.162c-.23.101-.428.242-.594.422-.158.18-.284.392-.378.637-.086.245-.13.507-.13.788s.044.544.13.789a2.1 2.1 0 0 0 .378.637c.166.18.364.324.594.432.238.1.504.151.8.151.294 0 .557-.05.788-.151.237-.108.439-.252.604-.432.166-.18.292-.393.378-.637.094-.245.14-.508.14-.789Zm.777 0c0 .38-.068.734-.205 1.058a2.478 2.478 0 0 1-1.404 1.404c-.324.13-.684.194-1.08.194-.389 0-.749-.065-1.08-.194a2.617 2.617 0 0 1-.842-.562 2.617 2.617 0 0 1-.562-.842 2.824 2.824 0 0 1-.194-1.059c0-.381.065-.734.194-1.058.137-.324.324-.605.562-.843.237-.237.518-.42.842-.55a2.801 2.801 0 0 1 1.08-.206c.396 0 .756.069 1.08.206.331.13.616.313.853.55.238.238.422.519.551.843.137.324.205.677.205 1.058Zm1.51-2.528 1.166 4.104h.022l1.35-4.104h.734l1.35 4.104h.022l1.166-4.104h.843l-1.599 5.054h-.799l-1.34-4.147h-.02l-1.34 4.147h-.8l-1.598-5.054h.843Z"></path>
        <path stroke-width=".6" stroke="#252F9C" d="M67.001 68.5h-8" fill="none"></path>
        <path stroke-width=".6" stroke="#252F9C" d="m64.509 66.013 2.493 2.486-2.493 2.486" fill="none"></path>
        <path fill="#252F9C" d="M8.66 4.256c2.032 0 4.25 1.267 5.807 2.482l-.792 2.745h-.185C11.986 5.946 10.058 4.6 7.973 4.6c-2.614 0-4.119 1.479-4.277 3.063C3.194 12.943 14.52 11.2 14.52 17.8c0 3.142-2.825 5.36-6.574 5.36-3.141 0-5.095-1.057-7.154-2.614l.792-3.01h.185c1.346 2.693 3.801 5.095 7.26 5.095 2.244 0 4.118-1.452 4.33-3.115.686-5.623-10.666-3.828-10.666-10.454 0-2.139 1.716-4.805 5.966-4.805Zm15.894 6.046c2.165 0 4.805 1.848 4.91 5.2.159 6.548-5.913 7.656-8.87 7.656-.58 0-1.109-.105-1.558-.237v4.54c0 .925.08 1.189.581 1.268v.185l-2.481.58h-.185v-17.16c0-.924-.08-1.188-.58-1.267v-.185l2.48-.58h.186v7.233c.475-3.062 1.821-7.233 5.517-7.233ZM20.621 23c2.534-.026 7.154-1.135 6.784-7.867-.132-2.297-1.742-4.805-4.013-4.356-2.956.58-4.355 6.098-4.355 8.316v3.67c.132.052.739.263 1.584.237Zm22.502-.185V23h-2.666v-3.696c-.686 2.323-2.138 3.854-4.673 3.854-2.165 0-4.277-1.03-4.62-2.93-.449-2.693 1.162-4.277 3.195-5.122-.687-1.53.132-4.804 3.67-4.804 2.19 0 4.514 1.161 4.514 4.408v6.548c0 .924.184 1.32.58 1.557Zm-5.332-12.25c-2.376 0-3.96 2.297-3.168 4.436 1.425-.528 3.01-.713 4.25-.713a5.56 5.56 0 0 1 1.584.238v-.185c0-2.007-.792-3.775-2.666-3.775Zm-1.373 12.25c2.297-.132 3.511-2.085 4.039-3.986v-4.066c-.132-.053-.766-.237-1.584-.237-2.878 0-6.785 1.425-5.65 6.072.344 1.425 1.875 2.296 3.195 2.217Zm15.038-12.513c1.425 0 2.244.501 3.141 1.557l-1.61 2.27-.185-.105c-.053-1.505-.792-3.458-2.217-3.247-2.587.396-2.93 7.207-2.93 9.451v1.03c0 .924.184 1.32.58 1.557V23h-3.273v-.185c.422-.237.607-.633.607-1.557v-8.924c0-.924-.08-1.188-.608-1.267v-.185l2.482-.58h.211v7.075c.264-3.195 1.003-7.075 3.802-7.075Zm12.758 7.867c1.822 2.957 2.535 4.092 3.723 4.646V23h-4.013v-.185c.607-.475.317-1.135-.475-2.481l-2.983-4.858-2.139 1.874v3.776c0 .924.185 1.452.607 1.69V23h-3.273v-.185c.396-.237.58-.765.58-1.69V5.84c0-.924-.079-1.03-.58-1.109V4.52l2.481-.554h.185v13.147l2.799-2.455c2.719-2.43 3.352-3.459 2.296-4.145v-.211h3.485v.21c-1.452.582-2.72 1.664-5.121 3.776l2.428 3.88Zm7.7 3.089c0 .924.185 1.32.58 1.557V23h-3.247v-.185c.396-.237.581-.633.581-1.557V5.998c0-.924-.079-1.188-.58-1.267V4.52l2.481-.554h.185v17.292Zm5.105 0c0 .924.184 1.32.607 1.557V23h-3.274v-.185c.396-.237.58-.633.58-1.557v-8.924c0-.924-.078-1.188-.58-1.267v-.185l2.482-.58h.184v10.956Zm-1.11-13.095a1.24 1.24 0 0 1-1.24-1.24 1.24 1.24 0 1 1 2.482 0 1.24 1.24 0 0 1-1.241 1.24Zm15.876 13.095c.106.95.343 1.32.74 1.557V23H89.25v-.185c.422-.237.528-.686.448-1.557-.079-.872-.475-5.333-.607-6.706-.185-1.98-1.161-4.224-3.432-3.775-2.957.58-3.511 6.098-3.511 8.316v2.165c0 .924.185 1.32.607 1.557V23h-3.273v-.185c.396-.237.58-.633.58-1.557v-8.924c0-.924-.079-1.188-.58-1.267v-.185l2.481-.58h.185v6.547c.343-2.957 1.24-6.547 4.673-6.547 2.165 0 4.013 1.478 4.33 4.646.263 2.56.527 5.333.633 6.31Zm15.733 1.03c1.584-.027 2.191.87 2.191 2.032 0 2.086-2.64 3.432-4.884 3.432-1.901 0-2.825-1.03-3.458-1.9-1.215.738-2.535 1.425-3.776 1.504-1.399.106-2.455-.396-2.481-1.61-.053-1.61 2.481-2.482 4.33-2.667-3.09-.37-5.597-2.429-5.597-5.781 0-4.356 3.643-6.996 7.181-6.996 1.056 0 2.059.21 2.956.58l4.515-1.32.158 1.32-4.25.185c1.901.924 3.221 2.693 3.221 5.095 0 4.224-3.617 6.996-7.181 6.996-.079 0-.159 0-.264-.026-1.743.08-3.776.686-3.644 2.27.053.872.502 1.505 1.479 1.505 1.346.027 2.878-1.003 4.567-2.033 1.954-1.161 3.591-2.534 4.937-2.587Zm-11.431-4.146c.924 3.168 3.405 5.439 6.415 4.541 2.983-.871 3.828-4.171 2.904-7.365-.924-3.168-3.406-5.412-6.415-4.541-3.01.871-3.828 4.171-2.904 7.365Zm12.012 6.627c.053-1.215-.264-2.112-1.32-1.954-.819.106-2.508 1.241-4.039 2.191l-1.188.713c.501.74 1.32 1.822 3.273 1.848 2.033.027 3.168-1.056 3.274-2.798Zm-97.09 7.751.845 3.22-.132.08c-1.188-1.346-2.852-3.089-5.782-3.089H3.722v8.633l6.072-.554v1.346l-6.072-.58v7.682c0 .924.185 1.32.581 1.557V51H1.056v-.185c.396-.237.58-.633.58-1.557v-14.97c0-.923-.184-1.32-.58-1.557v-.211h9.953Zm8.117 5.782c1.426 0 2.244.501 3.142 1.557l-1.61 2.27-.185-.105c-.053-1.505-.792-3.458-2.218-3.247-2.587.396-2.93 7.207-2.93 9.451v1.03c0 .924.184 1.32.58 1.557V51h-3.273v-.185c.422-.237.607-.633.607-1.557v-8.924c0-.924-.08-1.188-.607-1.267v-.185l2.481-.58h.212v7.075c.264-3.195 1.003-7.075 3.801-7.075Zm16.507 12.513V51h-2.692v-6.415c-.344 2.983-1.241 6.573-4.673 6.573-2.429 0-4.356-1.53-4.356-4.646v-6.178c0-.924-.08-1.188-.581-1.267v-.185l2.482-.58h.184v8.606c0 2.297 1.188 4.198 3.459 3.775 2.957-.58 3.485-6.098 3.485-8.316v-2.033c0-.924-.08-1.188-.581-1.267v-.185l2.481-.58h.185v10.956c0 .924.185 1.32.607 1.557Zm4.518-1.557c0 .924.185 1.32.607 1.557V51h-3.273v-.185c.396-.237.58-.633.58-1.557v-8.924c0-.924-.078-1.188-.58-1.267v-.185l2.482-.58h.184v10.956Zm-1.109-13.095a1.24 1.24 0 0 1-1.24-1.24 1.24 1.24 0 1 1 2.482 0 1.24 1.24 0 0 1-1.242 1.24Zm12.919 10.164.132.053c-.502 2.482-1.61 4.778-4.382 4.778-2.35 0-3.802-1.53-3.802-4.646v-8h-1.558v-.21c2.244 0 2.43-2.35 2.43-3.617h2.085c0 2.033-2.007 3.537-3.59 3.617h5.834v.21h-3.115v8.396c0 2.297.633 4.066 2.877 3.775 1.743-.237 2.614-2.323 3.089-4.356Zm14.345-14.071c2.033 0 4.25 1.267 5.808 2.482l-.792 2.745h-.185c-1.505-3.537-3.432-4.884-5.517-4.884-2.614 0-4.119 1.479-4.277 3.063-.502 5.28 10.824 3.537 10.824 10.137 0 3.142-2.825 5.36-6.574 5.36-3.141 0-5.095-1.057-7.154-2.614l.792-3.01h.185c1.346 2.693 3.801 5.095 7.26 5.095 2.244 0 4.118-1.452 4.33-3.115.686-5.623-10.666-3.828-10.666-10.454 0-2.139 1.716-4.805 5.966-4.805Zm14.865 6.046c3.538 0 6.6 2.217 6.6 5.86 0 4.224-3.617 6.996-7.154 6.996-3.564 0-6.6-2.164-6.6-5.86 0-4.356 3.617-6.996 7.154-6.996Zm1.479 12.381c3.01-.871 3.828-4.171 2.904-7.365-.924-3.168-3.406-5.412-6.416-4.541-3.01.871-3.828 4.171-2.904 7.365.925 3.168 3.406 5.439 6.416 4.541Zm20.085.132V51h-2.666v-7.075c-.502 3.062-1.848 7.233-5.544 7.233-2.138 0-4.778-1.848-4.884-5.227-.158-6.52 5.914-7.63 8.844-7.63a5.56 5.56 0 0 1 1.584.238V34c0-.925-.08-1.189-.607-1.268v-.211l2.508-.554h.185v17.292c0 .924.184 1.32.58 1.557Zm-7.022-.132c2.957-.58 4.356-6.098 4.356-8.316v-3.696c-.132-.026-.74-.237-1.584-.237-2.56.052-7.154 1.161-6.785 7.893.132 2.297 1.743 4.779 4.013 4.356Zm20.655.132V51h-2.666v-3.696c-.687 2.323-2.139 3.854-4.673 3.854-2.165 0-4.277-1.03-4.62-2.93-.449-2.693 1.161-4.277 3.194-5.122-.686-1.53.132-4.804 3.67-4.804 2.191 0 4.514 1.161 4.514 4.408v6.548c0 .924.185 1.32.581 1.557Zm-5.333-12.25c-2.376 0-3.96 2.297-3.168 4.436 1.426-.528 3.01-.713 4.251-.713a5.56 5.56 0 0 1 1.584.238v-.185c0-2.007-.792-3.775-2.667-3.775Zm-1.373 12.25c2.297-.132 3.512-2.085 4.04-3.986v-4.066c-.132-.053-.766-.237-1.584-.237-2.878 0-6.785 1.425-5.65 6.072.343 1.425 1.874 2.296 3.194 2.217Z"></path>
    </g>
</svg>