<svg preserveAspectRatio="xMidYMid meet" data-bbox="0.75 0.75 193.5 76.5" width="195" height="78" viewBox="0 0 195 78" xmlns="http://www.w3.org/2000/svg" data-type="ugc" role="presentation" aria-hidden="true" aria-label="">
    <g>
        <path d="M194.25 11v56c0 5.66-4.59 10.25-10.25 10.25H11C5.34 77.25.75 72.66.75 67V11C.75 5.34 5.34.75 11 .75h173c5.66 0 10.25 4.59 10.25 10.25z" fill="#ffffff" fill-opacity=".2" stroke="#ffffff" stroke-width=".5" stroke-linejoin="round"></path>
        <path opacity=".234" d="M110 42c-5.5 0-34 20.5-34 20.5V68h109V24s-8 9.5-12.702 9.289c-4.398-.198-3.905-3.135-8.798-3.789s-27 23-33.075 22.783C125.727 52.116 115.5 42 110 42" fill="url(#1f98b0a2-3eaf-40d7-85c7-48b379b1c9ed_comp-lyctt1p0)"></path>
        <path fill="none" d="m77 62 26.589-17.834a11.02 11.02 0 0 1 12.481.14l7.792 5.48a11.02 11.02 0 0 0 13.3-.467l22.247-18.112a6.62 6.62 0 0 1 8.697.294v0a6.62 6.62 0 0 0 9.089-.05L185 24" stroke="#ffffff" stroke-opacity=".7" stroke-linecap="round"></path>
        <path d="M46.388 52h-.96v-8.58h.96v4.02l3.888-4.02h1.272l-4.104 4.128L52.016 52h-1.428l-4.2-4.176z" fill="#ffffff"></path>
        <path d="M41.321 43.42h.924V52h-.96v-7.548l-2.052 1.728v-1.032z" fill="#ffffff"></path>
        <path d="M37.594 52h-5.412v-.768l2.844-2.916q.6-.612.948-1.068t.492-.852q.144-.408.144-.84 0-.708-.42-1.116t-1.152-.408q-.72 0-1.26.348t-.984 1.116l-.66-.6q1.056-1.668 2.916-1.668.744 0 1.296.288.564.288.876.816.324.516.324 1.2 0 .528-.168 1.008-.168.468-.6 1.032-.432.552-1.212 1.356l-2.208 2.268h4.236z" fill="#ffffff"></path>
        <path d="M30.878 52h-5.412v-.768l2.844-2.916q.6-.612.948-1.068t.492-.852q.144-.408.144-.84 0-.708-.42-1.116t-1.152-.408q-.72 0-1.26.348t-.984 1.116l-.66-.6q1.056-1.668 2.916-1.668.744 0 1.296.288.564.288.876.816.324.516.324 1.2 0 .528-.168 1.008-.168.468-.6 1.032-.432.552-1.212 1.356l-2.208 2.268h4.236z" fill="#ffffff"></path>
        <path d="m17.744 50.512.648-.6q.828 1.188 2.112 1.332V47.92q-1.32-.276-1.896-.78-.576-.516-.576-1.452a2.1 2.1 0 0 1 .312-1.128q.324-.516.888-.828a3.2 3.2 0 0 1 1.284-.372v-1.332h.732v1.344q.732.096 1.344.492.612.384 1.08 1.044l-.648.6q-.708-1.092-1.776-1.308v3q1.392.288 1.992.84.612.54.612 1.536 0 .66-.324 1.2-.324.528-.912.876-.588.336-1.38.408v1.332h-.732V52.06q-1.704-.144-2.76-1.548m1.164-4.836q0 .6.372.912.384.312 1.236.48v-2.892q-.72.084-1.164.492a1.31 1.31 0 0 0-.444 1.008m4.068 3.9q0-.6-.408-.948-.408-.36-1.332-.564v3.18q.804-.084 1.272-.54.468-.468.468-1.128" fill="#ffffff"></path>
        <path d="m73.582 33.088.6-.636q.384.444.876.708.504.252 1.128.252.648 0 1.044-.3.408-.3.408-.78a.71.71 0 0 0-.348-.624q-.336-.24-1.164-.36-1.26-.204-1.776-.588-.504-.384-.504-1.068 0-.816.636-1.296.636-.492 1.644-.492.744 0 1.332.288t1.044.816l-.6.636a2.6 2.6 0 0 0-.78-.696 1.87 1.87 0 0 0-.996-.264q-.588 0-.96.276-.372.264-.372.684 0 .336.312.54.312.192 1.104.312 1.308.192 1.848.624.54.42.54 1.2 0 .552-.312.984-.312.42-.864.66-.54.228-1.236.228-.864 0-1.488-.288a3.8 3.8 0 0 1-1.116-.816" fill="#ffffff"></path>
        <path d="m71.652 32.308.624.6q-.468.648-1.104.972a3.04 3.04 0 0 1-1.38.312q-.888 0-1.572-.408a2.9 2.9 0 0 1-1.056-1.116 3.5 3.5 0 0 1-.372-1.62q0-.9.372-1.608.384-.72 1.032-1.128a2.75 2.75 0 0 1 1.476-.408q.804 0 1.416.396.624.396.972 1.104.348.696.348 1.608v.36h-4.644q.096.888.648 1.452.564.564 1.44.564.552 0 .996-.264t.804-.816m-1.98-3.6q-.744 0-1.272.528-.516.528-.624 1.38h3.672q-.084-.876-.564-1.392-.468-.516-1.212-.516" fill="#ffffff"></path>
        <path d="M64.923 34h-.924v-8.64h.924z" fill="#ffffff"></path>
        <path d="M58.903 34.192q-.624 0-1.104-.24a1.9 1.9 0 0 1-.756-.66 1.83 1.83 0 0 1-.264-.972q0-.9.684-1.428.696-.528 1.86-.528h1.656v-.048q0-.744-.456-1.176-.444-.444-1.224-.444-1.02 0-1.728.852l-.6-.588q1.008-1.056 2.388-1.056.756 0 1.32.3.564.288.876.828.312.528.312 1.248V34h-.876v-.804a2.46 2.46 0 0 1-.876.732q-.54.264-1.212.264m.132-.768q.696 0 1.212-.348a1.95 1.95 0 0 0 .732-.948v-1.02h-1.548q-.804 0-1.248.312-.444.3-.444.864 0 .516.348.828.36.312.948.312" fill="#ffffff"></path>
        <path d="m48.706 32.62.684-.684q1.14 1.392 2.76 1.392 1.008 0 1.608-.468.612-.468.612-1.248 0-.672-.528-1.032-.516-.372-1.764-.576-1.632-.264-2.34-.792-.708-.54-.708-1.524 0-.72.384-1.272a2.65 2.65 0 0 1 1.08-.864 3.7 3.7 0 0 1 1.572-.324q1.956 0 3.264 1.488l-.672.672q-.564-.672-1.188-.984-.612-.312-1.404-.312-.948 0-1.5.42-.54.42-.54 1.164 0 .576.492.9t1.644.504q1.716.264 2.448.852.744.576.744 1.668a2.3 2.3 0 0 1-.408 1.344q-.408.588-1.14.924-.72.324-1.656.324-2.076 0-3.444-1.572" fill="#ffffff"></path>
        <path d="M44.013 34h-.924v-8.64h.924z" fill="#ffffff"></path>
        <path d="M37.994 34.192q-.624 0-1.104-.24a1.9 1.9 0 0 1-.756-.66 1.83 1.83 0 0 1-.264-.972q0-.9.684-1.428.696-.528 1.86-.528h1.656v-.048q0-.744-.456-1.176-.444-.444-1.224-.444-1.02 0-1.728.852l-.6-.588q1.008-1.056 2.388-1.056.756 0 1.32.3.564.288.876.828.312.528.312 1.248V34h-.876v-.804a2.46 2.46 0 0 1-.876.732q-.54.264-1.212.264m.132-.768q.696 0 1.212-.348a1.95 1.95 0 0 0 .732-.948v-1.02h-1.548q-.804 0-1.248.312-.444.3-.444.864 0 .516.348.828.36.312.948.312" fill="#ffffff"></path>
        <path d="M34.699 34h-1.32q-.624 0-.948-.336-.324-.348-.324-.984v-3.792h-1.128v-.792h1.128v-1.728h.924v1.728h1.584v.792h-1.584v3.708q0 .612.576.612h1.092z" fill="#ffffff"></path>
        <path d="M27.035 34.192a2.9 2.9 0 0 1-1.524-.408 2.9 2.9 0 0 1-1.056-1.116q-.372-.708-.372-1.62t.372-1.62a2.9 2.9 0 0 1 1.056-1.116 2.9 2.9 0 0 1 1.524-.408 2.9 2.9 0 0 1 1.535.408q.672.408 1.044 1.116.384.708.384 1.62t-.384 1.62a2.8 2.8 0 0 1-1.044 1.116 2.9 2.9 0 0 1-1.535.408m0-.804q.6 0 1.043-.3.445-.3.697-.828t.252-1.212q0-.696-.253-1.212a2.03 2.03 0 0 0-.696-.828 1.8 1.8 0 0 0-1.043-.3 1.8 1.8 0 0 0-1.032.3q-.445.3-.697.828-.252.516-.252 1.212 0 .684.253 1.212.252.528.696.828t1.032.3" fill="#ffffff"></path>
        <path d="M21.08 34h-.96v-7.728h-2.664v-.852h6.288v.852H21.08z" fill="#ffffff"></path>
        <defs fill="none">
            <linearGradient id="1f98b0a2-3eaf-40d7-85c7-48b379b1c9ed_comp-lyctt1p0" x1="128.779" y1="32.885" x2="128.779" y2="68.194" gradientUnits="userSpaceOnUse">
                <stop offset=".208" stop-color="#ffffff" stop-opacity=".75"></stop>
                <stop offset="1" stop-color="#ffffff" stop-opacity=".01"></stop>
            </linearGradient>
        </defs>
    </g>
</svg>