<svg preserveAspectRatio="xMidYMid meet" data-bbox="0 0 55 18" width="55" height="18" viewBox="0 0 55 18" xmlns="http://www.w3.org/2000/svg" data-type="color" role="presentation" aria-hidden="true" aria-label="">
    <g>
        <path fill-rule="evenodd" clip-rule="evenodd" d="M33.34 12.512c-.506.723-1.067 1.39-1.83 1.868-.526.33-1.105.51-1.72.583-.462.056-.922.07-1.387.006-.977-.138-1.524-.89-1.342-1.84.1-.532.427-.873.881-1.128.562-.315 1.177-.49 1.796-.65.91-.239 1.826-.456 2.692-.826.292-.125.566-.291.839-.454.089-.053.16-.051.225 0 .04.03.072.098.073.15.007.305.008 1.302.008 1.505 0 .299-.065.542-.235.786Zm3.944-6.822c-.508-1.148-1.348-1.968-2.515-2.475-.86-.373-1.764-.557-2.69-.648-1.141-.11-2.28-.119-3.419.046-1.14.164-2.207.51-3.18 1.13-1.063.678-1.82 1.599-2.23 2.77-.452 1.286-.509 2.066-.128 3.365a.11.11 0 0 0 .096.078l4.282.374c-.3-.594-.395-.707-.37-1.375.018-.48.117-.94.36-1.36a2.705 2.705 0 0 1 1.297-1.137c.725-.316 1.489-.354 2.265-.288.47.04.925.13 1.354.335.644.308.999.823 1.113 1.505.033.197.044.399.045.6.002.345-.18.605-.445.812-.367.286-.78.503-1.224.636-1.18.352-2.367.681-3.551 1.018-.14.04-.425.11-.425.11s-1.263.297-1.286.3c-.77.146-1.518.35-2.184.778-.57.368-.954.868-1.135 1.518-.125.45-.15.91-.093 1.368.035.29.1.586.203.861.288.77.876 1.258 1.628 1.575.46.193.945.288 1.44.342.891.099 1.773.058 2.637-.177 1.244-.338 2.259-1.02 3.067-2.005.602-.735 1-1.573 1.3-2.462a10.8 10.8 0 0 1 .085-.243.132.132 0 0 1 .256.053L33.5 17.6h4.347V8.747c0-1.052-.132-2.082-.563-3.057Z" fill="#252F9C" data-color="1"></path>
        <path fill-rule="evenodd" clip-rule="evenodd" d="M50.672 10.426c-.002-.76-.07-1.51-.35-2.228-.381-.975-1.103-1.588-2.106-1.895-.697-.213-1.41-.207-2.123-.103-.47.07-.925.199-1.32.476-.6.421-.93 1.018-1.102 1.704-.184.731-.212 1.476-.172 2.226.033.61.124 1.204.351 1.775.384.965 1.113 1.56 2.103 1.861.756.23 1.528.213 2.3.076 1.139-.202 1.844-.873 2.172-1.947.195-.635.249-1.286.247-1.945ZM46.97 2.504c1.112.02 2.14.106 3.145.38 1.254.342 2.361.926 3.214 1.912.66.764 1.074 1.653 1.326 2.621.31 1.195.387 2.411.325 3.636-.052 1.018-.274 2.004-.735 2.925a6.803 6.803 0 0 1-2.746 2.922c-.922.528-1.919.847-2.969 1.002-.853.125-1.712.118-2.57.048a10.313 10.313 0 0 1-1.985-.34c-1.19-.338-2.25-.895-3.08-1.825-.521-.584-.89-1.255-1.152-1.983-.325-.899-.48-1.83-.537-2.781a11.962 11.962 0 0 1 .061-2.252c.208-1.605.881-2.996 2.039-4.145.955-.948 2.131-1.52 3.438-1.85.837-.21 1.515-.257 2.226-.27Z" fill="#252F9C" data-color="1"></path>
        <mask fill="none" id="65051c10-bc6a-4bb5-9b66-2cd3fe776ba0_comp-lycwqdjo" style="mask-type:alpha" maskUnits="userSpaceOnUse" x="0" y="2" width="16" height="16">
            <path fill-rule="evenodd" clip-rule="evenodd" d="M0 2.5h15.518v15.47H0V2.5Z" fill="#ffffff"></path>
        </mask>
        <g mask="url(#65051c10-bc6a-4bb5-9b66-2cd3fe776ba0_comp-lycwqdjo)">
            <path fill-rule="evenodd" clip-rule="evenodd" d="M14.718 8.086c.062-.331.062-.331-.02-.806a5.135 5.135 0 0 0-1.135-2.461c-.944-1.131-2.206-1.73-3.626-2.039a14.764 14.764 0 0 0-1.664-.238 8.324 8.324 0 0 0-2.166.064 7.886 7.886 0 0 0-1.628.456 6.893 6.893 0 0 0-2.774 1.983C.614 6.342.1 7.853.018 9.515c-.04.805-.017 1.612.1 2.415.14.957.379 1.883.848 2.742.68 1.246 1.706 2.107 3.032 2.634.87.348 1.78.531 2.714.61.956.083 1.91.075 2.862-.055 1.227-.167 2.35-.582 3.362-1.288a5.818 5.818 0 0 0 2.006-2.387c.463-1.014.628-1.879.562-2.965 0 0-.014-.087-.064-.095h-4.197c.047.162.018.398 0 .618-.009.1-.009.13-.223.662a2.758 2.758 0 0 1-1.471 1.532c-.757.341-1.553.395-2.37.287-.56-.074-1.082-.241-1.55-.563a2.623 2.623 0 0 1-.988-1.306c-.335-.918-.374-1.87-.314-2.833.03-.488.11-.968.274-1.43.31-.876.925-1.454 1.816-1.732a3.483 3.483 0 0 1 2.575.172c.76.354 1.194.969 1.387 1.777.097.405.046.405 0 .885" fill="#252F9C" data-color="1"></path>
        </g>
        <path fill-rule="evenodd" clip-rule="evenodd" d="M21.246 17.578h-4.254V4.777c1.416.507 2.83.508 4.254-.001v12.802Z" fill="#252F9C" data-color="1"></path>
        <mask fill="none" id="b230860e-dd6d-4e09-b520-a9a7cfaf29e9_comp-lycwqdjo" style="mask-type:alpha" maskUnits="userSpaceOnUse" x="16" y="0" width="6" height="4">
            <path fill-rule="evenodd" clip-rule="evenodd" d="M16.397 0h5.472v3.903h-5.472V0Z" fill="#ffffff"></path>
        </mask>
        <g mask="url(#b230860e-dd6d-4e09-b520-a9a7cfaf29e9_comp-lycwqdjo)">
            <path fill-rule="evenodd" clip-rule="evenodd" d="M19.133 0c-2.27 0-2.575.689-2.736 1.724v.455c.08 1.028.624 1.724 2.736 1.724 2.113 0 2.657-.696 2.736-1.724v-.455C21.71.69 21.404 0 19.133 0Z" fill="#252F9C" data-color="1"></path>
        </g>
    </g>
</svg>