<svg preserveAspectRatio="xMidYMid meet" data-bbox="0.008 1 186.492 14.929" width="187" height="16" viewBox="0 0 187 16" xmlns="http://www.w3.org/2000/svg" data-type="ugc" role="presentation" aria-hidden="true" aria-label="">
    <g>
        <path fill="none" d="M186.5 4.318V15.3h-10.688V4.318z" stroke="#252F9C" stroke-width=".878"></path>
        <path fill="none" d="M183.447 5.976V3.488c0-1.374-1.026-2.488-2.291-2.488s-2.29 1.114-2.29 2.488v2.488" stroke="#252F9C" stroke-width=".878"></path>
        <path fill="none" d="M164.276 4.96a3.133 3.133 0 1 1-6.266 0 3.133 3.133 0 0 1 6.266 0z" stroke="#252F9C" stroke-width=".878"></path>
        <path fill="none" d="M167.41 15.929a6.267 6.267 0 0 0-12.533 0" stroke="#252F9C" stroke-width=".878"></path>
        <path fill="none" d="M143.99 7.31a5.044 5.044 0 1 1-10.088 0 5.044 5.044 0 0 1 10.088 0z" stroke="#252F9C" stroke-width=".878"></path>
        <path fill="none" d="m142.47 10.837 4.465 4.465" stroke="#252F9C" stroke-width=".878"></path>
        <path d="M113.296 9.16v2.791q-.208.128-.472.224c-.264.096-.36.117-.552.16a4 4 0 0 1-.576.104 5 5 0 0 1-.544.032q-.72 0-1.288-.24a2.9 2.9 0 0 1-.952-.648 2.9 2.9 0 0 1-.592-.944 3.3 3.3 0 0 1-.2-1.144q0-.631.216-1.176.224-.544.608-.944.391-.399.936-.624a3 3 0 0 1 1.192-.232q.783 0 1.28.2.495.192.832.536l-.544.584a2 2 0 0 0-.744-.464 2.5 2.5 0 0 0-.824-.136q-.489 0-.88.184a2 2 0 0 0-.672.48 2.1 2.1 0 0 0-.432.72 2.5 2.5 0 0 0-.152.872q0 .48.168.896a2.2 2.2 0 0 0 1.16 1.192q.4.168.872.168.408 0 .768-.072.368-.08.624-.224V9.88h-1.256v-.72z" fill="#252F9C"></path>
        <path d="M104.116 12.471a3.1 3.1 0 0 1-1.192-.224 2.9 2.9 0 0 1-.936-.632 3 3 0 0 1-.608-.944 3.2 3.2 0 0 1-.216-1.176q0-.631.216-1.176.224-.544.608-.944.391-.399.936-.624a3 3 0 0 1 1.192-.232q.648 0 1.192.232.543.224.928.624.392.4.608.944.224.545.224 1.176 0 .632-.224 1.176a2.82 2.82 0 0 1-1.536 1.576 3.1 3.1 0 0 1-1.192.224m0-.72q.487 0 .88-.176.391-.183.672-.488.279-.304.432-.712.152-.415.152-.88t-.152-.872a2.04 2.04 0 0 0-1.104-1.2 2.05 2.05 0 0 0-.88-.184q-.489 0-.88.184a2 2 0 0 0-.672.48 2.1 2.1 0 0 0-.432.72 2.5 2.5 0 0 0-.152.872q0 .465.152.88a2.1 2.1 0 0 0 1.104 1.2q.391.177.88.176" fill="#252F9C"></path>
        <path d="M97.067 6.663h.768v4.944h2.6v.72h-3.368z" fill="#252F9C"></path>
        <path d="M91.728 6.663h1.968q.368 0 .68.088.32.088.544.264.233.168.36.44.136.264.136.624 0 .489-.272.8a1.6 1.6 0 0 1-.704.448v.016q.255.015.48.136.224.112.384.304.168.184.264.432t.096.536a1.4 1.4 0 0 1-.584 1.168 2 2 0 0 1-.632.304q-.36.105-.776.104h-1.944zm.768 2.352h1.048q.216 0 .408-.04a1 1 0 0 0 .336-.152.7.7 0 0 0 .224-.264.8.8 0 0 0 .088-.392.86.86 0 0 0-.216-.584q-.216-.248-.68-.248h-1.208zm0 2.64h1.128q.175 0 .384-.032a1.3 1.3 0 0 0 .4-.144 1 1 0 0 0 .312-.296q.128-.184.128-.488 0-.504-.328-.752-.328-.256-.888-.256h-1.136z" fill="#252F9C"></path>
        <path d="M68.659 6.663h1.992q.543 0 .896.152.351.144.552.376.207.224.288.512.08.28.08.544t-.08.552q-.081.28-.288.512-.201.225-.552.376-.353.144-.896.144h-1.224v2.496h-.768zm.768 2.496h1.008a3 3 0 0 0 .44-.032q.224-.04.392-.136a.7.7 0 0 0 .28-.272.95.95 0 0 0 .104-.472.9.9 0 0 0-.104-.464.7.7 0 0 0-.28-.28 1.1 1.1 0 0 0-.392-.128 2.4 2.4 0 0 0-.44-.04h-1.008z" fill="#252F9C"></path>
        <path d="M64.303 12.471q-.648 0-1.192-.224a2.9 2.9 0 0 1-.936-.632 3 3 0 0 1-.608-.944 3.2 3.2 0 0 1-.216-1.176q0-.631.216-1.176.224-.544.608-.944a2.8 2.8 0 0 1 .936-.624 3 3 0 0 1 1.192-.232q.648 0 1.192.232.543.224.928.624.391.4.608.944.224.545.224 1.176 0 .632-.224 1.176a2.82 2.82 0 0 1-1.536 1.576 3.1 3.1 0 0 1-1.192.224m0-.72q.487 0 .88-.176a2.1 2.1 0 0 0 .672-.488q.279-.304.432-.712.151-.415.152-.88 0-.465-.152-.872a2.04 2.04 0 0 0-1.104-1.2 2.05 2.05 0 0 0-.88-.184q-.49 0-.88.184a2.04 2.04 0 0 0-1.104 1.2 2.5 2.5 0 0 0-.152.872q0 .465.152.88a2.1 2.1 0 0 0 1.104 1.2q.39.177.88.176" fill="#252F9C"></path>
        <path d="M55.473 6.663h.768v2.352h2.936V6.663h.768v5.664h-.768V9.735h-2.936v2.592h-.768z" fill="#252F9C"></path>
        <path d="M50.896 11.143q.207.312.528.464.327.144.672.144a1.2 1.2 0 0 0 .752-.24 1 1 0 0 0 .272-.296.8.8 0 0 0 .104-.408q0-.328-.208-.496a1.7 1.7 0 0 0-.52-.288 7 7 0 0 0-.672-.224 3 3 0 0 1-.672-.304 1.7 1.7 0 0 1-.512-.512q-.208-.328-.208-.88 0-.248.104-.528a1.5 1.5 0 0 1 .344-.512q.232-.231.592-.384.367-.16.88-.16.463 0 .888.128.423.128.744.52l-.624.568a1.04 1.04 0 0 0-.408-.36 1.3 1.3 0 0 0-.6-.136q-.32 0-.536.088a.9.9 0 0 0-.52.496 1 1 0 0 0-.048.28q0 .36.208.552.207.192.512.312.312.12.672.216.367.096.672.272a1.5 1.5 0 0 1 .52.464q.207.288.208.8 0 .409-.16.736-.153.329-.416.552-.264.225-.624.344-.36.12-.768.12a2.8 2.8 0 0 1-1.032-.192 1.7 1.7 0 0 1-.776-.592z" fill="#252F9C"></path>
        <path d="M26.073 7.383h-1.825v-.72h4.416v.72H26.84v4.944h-.767z" fill="#252F9C"></path>
        <path d="M19.62 6.663v3.472q0 .264.072.552.072.28.24.52t.44.392.672.152c.4 0 .49-.05.672-.152q.272-.152.44-.392a1.6 1.6 0 0 0 .24-.52q.072-.288.072-.552V6.663h.768v3.592q0 .495-.168.904a2.2 2.2 0 0 1-.464.696 2.05 2.05 0 0 1-.696.456 2.3 2.3 0 0 1-.864.16q-.464 0-.864-.16a2.05 2.05 0 0 1-.696-.456 2.2 2.2 0 0 1-.464-.696 2.4 2.4 0 0 1-.168-.904V6.663z" fill="#252F9C"></path>
        <path d="M14.6 12.471q-.649 0-1.192-.224a2.9 2.9 0 0 1-.936-.632 3 3 0 0 1-.608-.944 3.2 3.2 0 0 1-.216-1.176q0-.631.216-1.176.223-.544.607-.944a2.8 2.8 0 0 1 .937-.624 3 3 0 0 1 1.192-.232q.647 0 1.191.232.544.224.928.624.393.4.608.944.224.545.224 1.176 0 .632-.223 1.176a2.82 2.82 0 0 1-1.537 1.576q-.544.224-1.191.224m0-.72q.487 0 .88-.176a2.1 2.1 0 0 0 .671-.488q.28-.304.433-.712.15-.415.151-.88 0-.465-.151-.872a2.04 2.04 0 0 0-1.104-1.2 2.05 2.05 0 0 0-.88-.184q-.49 0-.88.184a2.03 2.03 0 0 0-1.104 1.2 2.5 2.5 0 0 0-.152.872q0 .465.152.88.151.409.431.712.28.305.672.488.393.177.88.176Z" fill="#252F9C"></path>
        <path d="M6.66 6.663h1.97q.368 0 .68.088.32.088.544.264.231.168.36.44.135.264.136.624 0 .489-.272.8a1.6 1.6 0 0 1-.704.448v.016q.255.015.48.136.223.112.384.304.168.184.264.432t.096.536a1.4 1.4 0 0 1-.584 1.168 2 2 0 0 1-.632.304q-.36.105-.776.104H6.66zm.769 2.352h1.048q.216 0 .408-.04a1 1 0 0 0 .336-.152.7.7 0 0 0 .224-.264.8.8 0 0 0 .088-.392.86.86 0 0 0-.216-.584q-.216-.248-.68-.248H7.429zm0 2.64h1.128q.175 0 .384-.032a1.3 1.3 0 0 0 .4-.144 1 1 0 0 0 .312-.296q.128-.184.128-.488 0-.504-.328-.752-.328-.256-.888-.256H7.429z" fill="#252F9C"></path>
        <path d="M2.504 6.663H3.2l2.424 5.664h-.896l-.568-1.4H1.464l-.56 1.4H.008zm1.376 3.592-1.056-2.6h-.016l-1.072 2.6z" fill="#252F9C"></path>
    </g>
</svg>