<svg preserveAspectRatio="xMidYMid meet" data-bbox="0.75 0.75 40.5 211.5" width="42" height="213" viewBox="0 0 42 213" xmlns="http://www.w3.org/2000/svg" data-type="ugc" role="presentation" aria-hidden="true" aria-label="">
    <g>
        <path d="M21 .75C9.816.75.75 9.816.75 21v171c0 11.184 9.066 20.25 20.25 20.25s20.25-9.066 20.25-20.25V21C41.25 9.816 32.184.75 21 .75z" fill="#ffffff" fill-opacity=".2" stroke="#ffffff" stroke-width=".5" stroke-linejoin="round"></path>
        <path d="M35 22c0 7.732-6.268 14-14 14S7 29.732 7 22 13.268 8 21 8s14 6.268 14 14" fill="#D5E1FF"></path>
        <path d="M35 22c0 7.732-6.268 14-14 14S7 29.732 7 22 13.268 8 21 8s14 6.268 14 14" fill="url(#6b583970-5117-49a9-864b-1dd7ead4cc29_comp-lycvkuaf)" style="mix-blend-mode:multiply"></path>
        <path fill-rule="evenodd" clip-rule="evenodd" d="M21 36c7.732 0 14-6.268 14-14S28.732 8 21 8 7 14.268 7 22s6.268 14 14 14m0-5.091c5.272 0 8.909-3.637 8.909-8.91 0-5.27-3.637-8.908-8.91-8.908-5.27 0-8.908 3.637-8.908 8.909s3.637 8.909 8.909 8.909" fill="url(#ac6ae15c-2381-455a-9867-4bf3c84273f8_comp-lycvkuaf)"></path>
        <path fill-rule="evenodd" clip-rule="evenodd" d="M35 22c0-7.732-6.268-14-14-14S7 14.268 7 22s6.268 14 14 14 14-6.268 14-14m-4.455 0A9.545 9.545 0 0 0 21 12.454 9.545 9.545 0 0 0 11.454 22 9.545 9.545 0 0 0 21 31.545 9.545 9.545 0 0 0 30.545 22" fill="url(#93a91316-7acc-4114-9d6b-ad4b5c1cc063_comp-lycvkuaf)"></path>
        <path d="M25.363 15.074a.38.38 0 0 1 .373.306l.082.41a1.9 1.9 0 0 0 1.49 1.49l.41.083a.38.38 0 0 1 0 .746l-.41.081a1.9 1.9 0 0 0-1.49 1.492l-.082.41a.38.38 0 0 1-.745 0l-.082-.41a1.9 1.9 0 0 0-1.49-1.491l-.41-.082a.38.38 0 0 1 0-.746l.41-.082a1.9 1.9 0 0 0 1.49-1.491l.082-.41a.38.38 0 0 1 .372-.306" fill="#ffffff"></path>
        <path d="M20.043 17.355a.38.38 0 0 1 .366.28l.34 1.248a4.94 4.94 0 0 0 3.467 3.469l1.247.34a.38.38 0 0 1 0 .734l-1.247.34a4.94 4.94 0 0 0-3.467 3.468l-.34 1.248a.38.38 0 0 1-.733 0l-.34-1.248a4.94 4.94 0 0 0-3.467-3.468l-1.247-.34a.38.38 0 0 1 0-.734l1.247-.34a4.94 4.94 0 0 0 3.467-3.468l.34-1.248a.38.38 0 0 1 .367-.28Z" fill="#ffffff"></path>
        <path fill-rule="evenodd" clip-rule="evenodd" d="M25.186 185.814h-8.372c-.577 0-1.046.469-1.046 1.047v6.278c0 .578.469 1.047 1.046 1.047h8.372c.578 0 1.046-.469 1.046-1.047v-6.278c0-.578-.468-1.047-1.046-1.047m-7.064 1.57a.785.785 0 1 1 .001 1.57.785.785 0 0 1 0-1.57Zm2.036 2.789-2.82 2.443h7.325l-2.365-2.365a1.57 1.57 0 0 0-2.14-.078" fill="#ffffff"></path>
        <path fill-rule="evenodd" clip-rule="evenodd" d="M19.169 157.291c.433 0 .784.351.784.785v2.093a.785.785 0 0 1-.784.785h-2.093a.785.785 0 0 1-.785-.785v-2.093c0-.434.351-.785.785-.785zm.784 6.54a.785.785 0 0 0-.784-.785h-2.093a.785.785 0 0 0-.785.785v2.093c0 .434.351.785.785.785h2.093a.785.785 0 0 0 .784-.785zm5.756 0a.785.785 0 0 0-.785-.785h-2.093a.785.785 0 0 0-.785.785v2.093c0 .434.352.785.785.785h2.093a.785.785 0 0 0 .785-.785zm0-5.755a.785.785 0 0 0-.785-.785h-2.093a.785.785 0 0 0-.785.785v2.093c0 .433.352.785.785.785h2.093a.785.785 0 0 0 .785-.785z" fill="#ffffff"></path>
        <path fill-rule="evenodd" clip-rule="evenodd" d="M24.662 129.291h-7.325c-.578 0-1.046.469-1.046 1.047v7.324c0 .578.468 1.047 1.046 1.047h7.325c.578 0 1.047-.469 1.047-1.047v-7.324c0-.578-.469-1.047-1.047-1.047m-.523 7.587a.26.26 0 0 1-.261.261h-5.756a.105.105 0 0 1-.073-.178l5.912-5.922a.1.1 0 0 1 .113-.022.1.1 0 0 1 .065.095z" fill="#ffffff"></path>
        <path fill-rule="evenodd" clip-rule="evenodd" d="m20.477 101.291 1.49 3.485-1.186 2.212-.027.058h-2.742l-.675 1.57h-1.57l3.14-7.325zm3.427 1.831 2.26 4.186a2.57 2.57 0 1 1-4.581.109l.055-.109zm-5.222 2.355 1.01-2.355 1.01 2.355z" fill="#ffffff"></path>
        <path fill-rule="evenodd" clip-rule="evenodd" d="M21.921 72.768c.416 0 .815.166 1.11.46l1.694 1.696c.295.294.46.693.46 1.109v6.153c0 .578-.468 1.046-1.046 1.046h-6.278a1.046 1.046 0 0 1-1.047-1.046v-8.372c0-.578.469-1.046 1.047-1.046zm.91 6.278H19.17a.26.26 0 0 0-.258.215l-.004.047v.523c0 .129.093.236.215.258l.047.004h3.662a.26.26 0 0 0 .258-.215l.004-.047v-.523a.26.26 0 0 0-.215-.257l-.047-.005Zm0-2.616H19.17a.26.26 0 0 0-.258.215l-.004.047v.523c0 .129.093.235.215.258l.047.004h3.662a.26.26 0 0 0 .258-.215l.004-.047v-.523a.26.26 0 0 0-.215-.257l-.047-.005Z" fill="#ffffff"></path>
        <path d="M21.139 49c.537 0 .972.435.972.972v2.917h2.917c.537 0 .972.435.972.972v.278a.97.97 0 0 1-.972.972H22.11v2.917a.97.97 0 0 1-.972.972h-.278a.97.97 0 0 1-.972-.972V55.11h-2.917a.97.97 0 0 1-.971-.97v-.278c0-.537.435-.972.972-.972h2.917v-2.917c0-.537.435-.972.972-.972z" fill="#ffffff"></path>
        <defs fill="none">
            <radialGradient id="ac6ae15c-2381-455a-9867-4bf3c84273f8_comp-lycvkuaf" cx="0" cy="0" r="1" gradientUnits="userSpaceOnUse" gradientTransform="matrix(0 58.2268 -61.7268 0 21 24.864)">
                <stop offset=".225" stop-color="#ffffff" stop-opacity="0"></stop>
                <stop offset=".31" stop-color="#ffffff" stop-opacity=".67"></stop>
            </radialGradient>
            <radialGradient id="93a91316-7acc-4114-9d6b-ad4b5c1cc063_comp-lycvkuaf" cx="0" cy="0" r="1" gradientUnits="userSpaceOnUse" gradientTransform="matrix(60.1359 0 0 68.5676 21.954 22)">
                <stop offset=".19" stop-color="#ffffff" stop-opacity="0"></stop>
                <stop offset=".26" stop-color="#ffffff" stop-opacity=".25"></stop>
            </radialGradient>
            <linearGradient id="6b583970-5117-49a9-864b-1dd7ead4cc29_comp-lycvkuaf" x1="9.316" y1="2" x2="26.824" y2="34.88" gradientUnits="userSpaceOnUse">
                <stop stop-color="#033FA0"></stop>
                <stop offset=".526" stop-color="#116DFF"></stop>
                <stop offset="1" stop-color="#5BEAB3"></stop>
            </linearGradient>
        </defs>
    </g>
</svg>