<svg preserveAspectRatio="xMidYMid meet" data-bbox="0.75 0.75 238.5 44.5" width="240" height="46" viewBox="0 0 240 46" xmlns="http://www.w3.org/2000/svg" data-type="ugc" role="presentation" aria-hidden="true" aria-label="">
    <g>
        <path d="M23 .75h194c12.288 0 22.25 9.962 22.25 22.25S229.288 45.25 217 45.25H23C10.712 45.25.75 35.288.75 23S10.712.75 23 .75z" fill="#ffffff" fill-opacity=".2" stroke="#ffffff" stroke-width=".5" stroke-linejoin="round"></path>
        <path d="M216.805 27h-1.078v-3.976q0-1.035-.407-1.61-.406-.574-1.147-.574-.939 0-1.484.826-.546.825-.546 2.24V27h-1.079v-3.976q0-1.035-.405-1.61-.406-.574-1.149-.574-.924 0-1.47.826-.545.825-.545 2.24V27h-1.078v-6.888h1.063v1.4q.28-.77.855-1.19.588-.434 1.399-.434.84 0 1.386.462.546.448.771 1.302.28-.84.91-1.302.644-.462 1.526-.462 1.19 0 1.834.784.644.785.644 2.24z" fill="#ffffff"></path>
        <path d="M200.919 27.224q-.995 0-1.778-.476a3.37 3.37 0 0 1-1.232-1.302q-.434-.825-.434-1.89c0-1.065.144-1.34.434-1.89a3.37 3.37 0 0 1 1.232-1.302q.783-.476 1.778-.476 1.008 0 1.792.476a3.3 3.3 0 0 1 1.218 1.302q.448.825.448 1.89c0 1.065-.15 1.34-.448 1.89q-.435.826-1.218 1.302-.784.476-1.792.476m0-.938q.699 0 1.218-.35.518-.35.812-.966t.294-1.414q0-.812-.294-1.414a2.37 2.37 0 0 0-.812-.966q-.519-.35-1.218-.35a2.1 2.1 0 0 0-1.204.35 2.36 2.36 0 0 0-.812.966q-.294.602-.294 1.414 0 .798.294 1.414.293.616.812.966a2.1 2.1 0 0 0 1.204.35" fill="#ffffff"></path>
        <path d="m195.574 25.166.756.714q-.994 1.344-2.744 1.344-1.008 0-1.792-.462a3.4 3.4 0 0 1-1.218-1.302q-.434-.825-.434-1.904t.448-1.904q.448-.826 1.232-1.288.784-.476 1.792-.476 1.75 0 2.73 1.344l-.77.714a2.1 2.1 0 0 0-.812-.826 2.34 2.34 0 0 0-1.176-.294q-1.022 0-1.666.742t-.644 1.988q0 1.232.644 1.988.658.742 1.708.742 1.26 0 1.946-1.12" fill="#ffffff"></path>
        <path d="M187.863 27.168a.8.8 0 0 1-.588-.238.82.82 0 0 1-.224-.588q0-.35.224-.588a.8.8 0 0 1 .588-.238q.35 0 .574.238a.8.8 0 0 1 .238.588.8.8 0 0 1-.238.588.76.76 0 0 1-.574.238" fill="#ffffff"></path>
        <path d="m179.556 25.936.7-.742q.448.517 1.022.826.588.294 1.316.294.756 0 1.218-.35.476-.35.476-.91 0-.461-.406-.728-.392-.28-1.358-.42-1.47-.238-2.072-.686-.588-.448-.588-1.246 0-.953.742-1.512.742-.574 1.918-.574.869 0 1.554.336t1.218.952l-.7.742a3 3 0 0 0-.91-.812 2.2 2.2 0 0 0-1.162-.308q-.686 0-1.12.322-.434.308-.434.798 0 .392.364.63.364.224 1.288.364 1.526.224 2.156.728.63.49.63 1.4 0 .645-.364 1.148-.364.49-1.008.77-.63.266-1.442.266-1.008 0-1.736-.336a4.5 4.5 0 0 1-1.302-.952" fill="#ffffff"></path>
        <path d="M174.073 27h-1.078V16.92h1.078v6.314l3.318-3.122h1.442l-3.612 3.318 3.99 3.57h-1.554l-3.584-3.248z" fill="#ffffff"></path>
        <path d="M170.643 27h-1.078v-3.962q0-1.092-.462-1.638-.449-.56-1.218-.56-.56 0-1.05.322-.49.308-.798.994-.308.672-.308 1.75V27h-1.078v-6.888h1.064v1.414q.336-.895.994-1.26a2.74 2.74 0 0 1 1.386-.378q1.19 0 1.862.784.686.77.686 2.24z" fill="#ffffff"></path>
        <path d="M162.38 17.508q0 .335-.224.56a.72.72 0 0 1-.532.21.77.77 0 0 1-.546-.21.8.8 0 0 1-.21-.56.74.74 0 0 1 .756-.77.7.7 0 0 1 .532.224q.224.21.224.546M162.17 27h-1.078v-6.888h1.078z" fill="#ffffff"></path>
        <path d="M159.466 20v1.036h-.238a2.3 2.3 0 0 0-1.204.336q-.546.322-.882 1.008-.336.672-.336 1.736V27h-1.078v-6.888h1.064v1.54q.35-.896 1.036-1.274a2.9 2.9 0 0 1 1.414-.378z" fill="#ffffff"></path>
        <path d="M152.185 27v-1.092a2.6 2.6 0 0 1-.994.966 3 3 0 0 1-1.456.35 3.16 3.16 0 0 1-1.722-.476 3.4 3.4 0 0 1-1.176-1.302q-.434-.825-.434-1.89 0-1.05.42-1.876a3.35 3.35 0 0 1 1.176-1.316 3.1 3.1 0 0 1 1.694-.476q.812 0 1.47.392.658.391 1.008 1.05v-4.41h1.078V27zm-4.648-3.444q0 .798.294 1.414.308.616.84.966t1.218.35q.798 0 1.414-.448.616-.462.868-1.204v-.882q0-.868-.294-1.526a2.4 2.4 0 0 0-.826-1.022 2 2 0 0 0-1.204-.378q-.672 0-1.204.35a2.37 2.37 0 0 0-.812.966q-.294.616-.294 1.414" fill="#ffffff"></path>
        <path d="M141.339 27.224a3.36 3.36 0 0 1-1.778-.476 3.4 3.4 0 0 1-1.232-1.302q-.434-.825-.434-1.89c0-1.065.145-1.34.434-1.89q.448-.826 1.232-1.302a3.36 3.36 0 0 1 1.778-.476q1.008 0 1.792.476a3.27 3.27 0 0 1 1.218 1.302q.448.825.448 1.89c0 1.065-.149 1.34-.448 1.89a3.27 3.27 0 0 1-1.218 1.302q-.784.476-1.792.476m0-.938q.7 0 1.218-.35t.812-.966.294-1.414q0-.812-.294-1.414a2.37 2.37 0 0 0-.812-.966q-.518-.35-1.218-.35a2.1 2.1 0 0 0-1.204.35 2.37 2.37 0 0 0-.812.966q-.294.602-.294 1.414 0 .798.294 1.414t.812.966a2.1 2.1 0 0 0 1.204.35" fill="#ffffff"></path>
        <path d="M132.517 27.224q-.728 0-1.288-.28a2.2 2.2 0 0 1-.882-.77 2.13 2.13 0 0 1-.308-1.134q0-1.05.798-1.666.812-.615 2.17-.616h1.932v-.056q0-.868-.532-1.372-.518-.518-1.428-.518-1.19 0-2.016.994l-.7-.686q1.176-1.232 2.786-1.232.882 0 1.54.35.658.336 1.022.966.364.616.364 1.456V27h-1.022v-.938q-.392.533-1.022.854a3.2 3.2 0 0 1-1.414.308m.154-.896q.812 0 1.414-.406a2.28 2.28 0 0 0 .854-1.106v-1.19h-1.806q-.938 0-1.456.364-.518.35-.518 1.008 0 .601.406.966.42.364 1.106.364" fill="#ffffff"></path>
        <path d="M128.356 17.508q0 .335-.224.56a.72.72 0 0 1-.532.21.77.77 0 0 1-.546-.21.8.8 0 0 1-.21-.56.74.74 0 0 1 .756-.77q.322 0 .532.224.224.21.224.546m-.21 9.492h-1.078v-6.888h1.078z" fill="#ffffff"></path>
        <path d="m124.46 25.166.756.714q-.993 1.344-2.744 1.344-1.008 0-1.792-.462a3.4 3.4 0 0 1-1.218-1.302q-.434-.825-.434-1.904t.448-1.904q.449-.826 1.232-1.288.784-.476 1.792-.476 1.75 0 2.73 1.344l-.77.714a2.1 2.1 0 0 0-.812-.826 2.34 2.34 0 0 0-1.176-.294q-1.021 0-1.666.742-.644.742-.644 1.988 0 1.232.644 1.988.658.742 1.708.742 1.26 0 1.946-1.12" fill="#ffffff"></path>
        <path d="M116.749 27.168a.8.8 0 0 1-.588-.238.83.83 0 0 1-.224-.588q0-.35.224-.588a.8.8 0 0 1 .588-.238q.35 0 .574.238a.8.8 0 0 1 .238.588q0 .35-.238.588a.75.75 0 0 1-.574.238" fill="#ffffff"></path>
        <path d="M113.191 27h-1.204l-1.582-5.53-1.568 5.53h-1.218l-2.044-6.888h1.106l1.568 5.726 1.624-5.726h1.092l1.624 5.782 1.61-5.782h1.064z" fill="#ffffff"></path>
        <path d="M102.345 27h-1.204l-1.582-5.53L97.991 27h-1.218l-2.044-6.888h1.106l1.568 5.726 1.624-5.726h1.092l1.624 5.782 1.61-5.782h1.064z" fill="#ffffff"></path>
        <path d="M91.499 27h-1.204l-1.582-5.53L87.145 27h-1.218l-2.044-6.888h1.106l1.568 5.726 1.624-5.726h1.092l1.624 5.782 1.61-5.782h1.064z" fill="#ffffff"></path>
        <path d="M79.205 27h-1.078l3.864-10.234h1.078z" fill="#ffffff"></path>
        <path d="M74.922 27h-1.078l3.864-10.234h1.078z" fill="#ffffff"></path>
        <path d="M71.306 21.764a.8.8 0 0 1-.588-.238.83.83 0 0 1-.224-.588q0-.35.224-.588a.8.8 0 0 1 .588-.238q.35 0 .574.238a.8.8 0 0 1 .238.588.8.8 0 0 1-.238.588.75.75 0 0 1-.574.238m0 5.404a.8.8 0 0 1-.588-.238.83.83 0 0 1-.224-.588q0-.35.224-.588a.8.8 0 0 1 .588-.238q.35 0 .574.238a.8.8 0 0 1 .238.588.8.8 0 0 1-.238.588.75.75 0 0 1-.574.238" fill="#ffffff"></path>
        <path d="m62.999 25.936.7-.742q.449.517 1.022.826a2.9 2.9 0 0 0 1.316.294q.756 0 1.218-.35.476-.35.476-.91 0-.461-.406-.728-.392-.28-1.358-.42-1.47-.238-2.072-.686-.588-.448-.588-1.246 0-.953.742-1.512.742-.574 1.918-.574.868 0 1.554.336.685.336 1.218.952l-.7.742a3 3 0 0 0-.91-.812 2.2 2.2 0 0 0-1.162-.308q-.685 0-1.12.322-.435.308-.434.798 0 .392.364.63.364.224 1.288.364 1.526.224 2.156.728.63.49.63 1.4 0 .645-.364 1.148-.364.49-1.008.77-.63.266-1.442.266-1.007 0-1.736-.336a4.5 4.5 0 0 1-1.302-.952" fill="#ffffff"></path>
        <path d="M55.998 29.716H54.92v-9.604h1.064V21.4a2.7 2.7 0 0 1 1.022-1.092 2.84 2.84 0 0 1 1.512-.42q.953 0 1.68.476.728.476 1.148 1.316.42.826.42 1.876 0 1.065-.434 1.89a3.35 3.35 0 0 1-1.19 1.302q-.742.476-1.708.476-.826 0-1.456-.336a2.56 2.56 0 0 1-.98-.938zm0-5.964v.882q.252.742.868 1.204.615.448 1.414.448.7 0 1.218-.35a2.3 2.3 0 0 0 .826-.966q.308-.615.308-1.414t-.294-1.414a2.27 2.27 0 0 0-.798-.966 2 2 0 0 0-1.176-.35 2.05 2.05 0 0 0-1.218.378 2.5 2.5 0 0 0-.84 1.022q-.308.658-.308 1.526" fill="#ffffff"></path>
        <path d="M53.1 27h-1.54q-.729 0-1.107-.392-.378-.405-.378-1.148v-4.424H48.76v-.924h1.316v-2.016h1.078v2.016h1.848v.924h-1.848v4.326q0 .714.672.714H53.1z" fill="#ffffff"></path>
        <path d="M48.118 27h-1.54q-.728 0-1.106-.392-.378-.405-.378-1.148v-4.424h-1.316v-.924h1.316v-2.016h1.078v2.016h1.848v.924h-1.848v4.326q0 .714.672.714h1.274z" fill="#ffffff"></path>
        <path d="M42.182 27h-1.078v-3.962q0-1.05-.448-1.624-.434-.574-1.232-.574-.98 0-1.568.826-.588.825-.588 2.24V27H36.19V16.92h1.078v4.606q.294-.798.896-1.218.615-.42 1.47-.42 1.204 0 1.876.798.672.785.672 2.226z" fill="#ffffff"></path>
        <path fill-rule="evenodd" clip-rule="evenodd" d="M23.263 19.452c0-.804.69-1.457 1.536-1.457h.401c.847 0 1.536.653 1.536 1.457v1.993h-3.473zm4.6 1.994h-.078v-1.994c0-1.352-1.16-2.452-2.584-2.452h-.402c-1.425 0-2.584 1.1-2.584 2.452v1.994h-.078c-.628 0-1.137.483-1.137 1.078v4.064c0 .596.51 1.079 1.137 1.079h5.726c.628 0 1.137-.483 1.137-1.08v-4.063c0-.595-.51-1.078-1.137-1.078" fill="#ffffff"></path>
    </g>
</svg>