<svg preserveAspectRatio="xMidYMid meet" data-bbox="0 0 239.105 148.5" width="240" height="149" viewBox="0 0 240 149" xmlns="http://www.w3.org/2000/svg" data-type="ugc" role="presentation" aria-hidden="true" aria-label="">
    <g>
        <path fill="none" d="M93.5 125.5v23h-92v-23z" stroke="#252F9C"></path>
        <path d="M68.751 133.216h1.2l1.872 6.792h.024l2.004-6.792h1.32l2.004 6.792h.024l1.872-6.792h1.2l-2.472 8.496h-1.212l-2.064-6.936h-.024l-2.052 6.936h-1.212z" fill="#252F9C"></path>
        <path d="M63.947 141.928a4.7 4.7 0 0 1-1.788-.336 4.3 4.3 0 0 1-1.404-.948 4.5 4.5 0 0 1-.912-1.416 4.7 4.7 0 0 1-.324-1.764q0-.948.324-1.764a4.5 4.5 0 0 1 .912-1.416q.588-.6 1.404-.936a4.5 4.5 0 0 1 1.788-.348q.972 0 1.788.348a4 4 0 0 1 1.392.936q.588.6.912 1.416.336.816.336 1.764t-.336 1.764a4.23 4.23 0 0 1-2.304 2.364 4.7 4.7 0 0 1-1.788.336m0-1.08q.732 0 1.32-.264a3.2 3.2 0 0 0 1.008-.732q.42-.456.648-1.068.228-.624.228-1.32t-.228-1.308a3.05 3.05 0 0 0-1.656-1.8 3.1 3.1 0 0 0-1.32-.276 3.1 3.1 0 0 0-1.32.276 3.05 3.05 0 0 0-1.656 1.8 3.7 3.7 0 0 0-.228 1.308q0 .696.228 1.32.228.612.648 1.068t1.008.732q.588.264 1.32.264" fill="#252F9C"></path>
        <path d="M50.696 133.216h1.512l4.68 6.984h.024v-6.984h1.152v8.496H56.6l-4.728-6.984h-.024v6.984h-1.152z" fill="#252F9C"></path>
        <path d="M40.643 133.216h2.988q.816 0 1.344.228.528.216.828.564.312.336.432.768.12.42.12.816t-.12.828a1.94 1.94 0 0 1-.432.768q-.3.336-.828.564-.528.216-1.344.216h-1.836v3.744h-1.152zm1.152 3.744h1.512q.336 0 .66-.048.336-.06.588-.204.264-.144.42-.408.156-.276.156-.708c0-.432-.052-.52-.156-.696a1.06 1.06 0 0 0-.42-.42 1.6 1.6 0 0 0-.588-.192 3.6 3.6 0 0 0-.66-.06h-1.512z" fill="#252F9C"></path>
        <path d="M34.759 141.928a4.7 4.7 0 0 1-1.788-.336 4.3 4.3 0 0 1-1.404-.948 4.5 4.5 0 0 1-.912-1.416 4.7 4.7 0 0 1-.324-1.764q0-.948.324-1.764a4.5 4.5 0 0 1 .912-1.416q.588-.6 1.404-.936a4.5 4.5 0 0 1 1.788-.348q.972 0 1.788.348a4 4 0 0 1 1.392.936q.588.6.912 1.416.336.816.336 1.764t-.336 1.764a4.23 4.23 0 0 1-2.304 2.364 4.7 4.7 0 0 1-1.788.336m0-1.08q.732 0 1.32-.264a3.2 3.2 0 0 0 1.008-.732q.42-.456.648-1.068.228-.624.228-1.32t-.228-1.308a3.05 3.05 0 0 0-1.656-1.8 3.1 3.1 0 0 0-1.32-.276 3.1 3.1 0 0 0-1.32.276 3.05 3.05 0 0 0-1.656 1.8 3.7 3.7 0 0 0-.228 1.308q0 .696.228 1.32.228.612.648 1.068t1.008.732q.588.264 1.32.264" fill="#252F9C"></path>
        <path d="M22.164 133.216h1.152v3.528h4.404v-3.528h1.152v8.496H27.72v-3.888h-4.404v3.888h-1.152z" fill="#252F9C"></path>
        <path d="M15.948 139.936q.312.468.792.696.492.216 1.008.216.288 0 .588-.084.3-.096.54-.276.252-.18.408-.444a1.2 1.2 0 0 0 .156-.612q0-.492-.312-.744a2.5 2.5 0 0 0-.78-.432q-.456-.18-1.008-.336a4.4 4.4 0 0 1-1.008-.456 2.5 2.5 0 0 1-.768-.768q-.312-.492-.312-1.32 0-.372.156-.792a2.3 2.3 0 0 1 .516-.768 2.8 2.8 0 0 1 .888-.576q.552-.24 1.32-.24.696 0 1.332.192t1.116.78l-.936.852a1.55 1.55 0 0 0-.612-.54 1.94 1.94 0 0 0-.9-.204q-.48 0-.804.132-.312.12-.504.324a1.2 1.2 0 0 0-.276.42 1.4 1.4 0 0 0-.072.42q0 .54.312.828t.768.468q.468.18 1.008.324.552.144 1.008.408.468.252.78.696.312.432.312 1.2 0 .612-.24 1.104-.228.492-.624.828a2.8 2.8 0 0 1-.936.516q-.54.18-1.152.18a4.2 4.2 0 0 1-1.548-.288 2.55 2.55 0 0 1-1.164-.888z" fill="#252F9C"></path>
        <path d="M239.105 96.556v.378h-5.454v-7.56c-1.404 4.752-4.374 7.884-9.558 7.884-4.428 0-8.748-2.106-9.45-5.994-.918-5.508 2.376-8.748 6.534-10.476-1.404-3.132.27-9.828 7.506-9.828 4.482 0 9.234 2.376 9.234 9.018V93.37c0 1.89.378 2.7 1.188 3.186M228.197 71.5c-4.86 0-8.1 4.698-6.48 9.072 2.916-1.08 6.156-1.458 8.694-1.458 1.242 0 2.322.216 3.24.486v-.378c0-4.104-1.62-7.722-5.454-7.722m-2.808 25.056c4.698-.27 7.182-4.266 8.262-8.154v-8.316c-.27-.108-1.566-.486-3.24-.486-5.886 0-13.878 2.916-11.556 12.42.702 2.916 3.834 4.698 6.534 4.536" fill="#252F9C"></path>
        <path d="M210.921 96.556v.378h-5.454V82.462c-1.026 6.264-3.78 14.796-11.34 14.796-4.374 0-9.774-3.78-9.99-10.692-.324-13.338 12.096-15.606 18.09-15.606 1.242 0 2.322.216 3.24.486v-9.288c0-1.89-.162-2.43-1.242-2.592v-.432l5.13-1.134h.378v35.37c0 1.89.378 2.7 1.188 3.186m-14.364-.27c6.048-1.188 8.91-12.474 8.91-17.01v-7.56c-.27-.054-1.512-.486-3.24-.486-5.238.108-14.634 2.376-13.878 16.146.27 4.698 3.564 9.774 8.208 8.91" fill="#252F9C"></path>
        <path d="M166.512 70.96c7.236 0 13.5 4.536 13.5 11.988 0 8.64-7.398 14.31-14.634 14.31-7.29 0-13.5-4.428-13.5-11.988 0-8.91 7.398-14.31 14.634-14.31m3.024 25.326c6.156-1.782 7.83-8.532 5.94-15.066-1.89-6.48-6.966-11.07-13.122-9.288s-7.83 8.532-5.94 15.066c1.89 6.48 6.966 11.124 13.122 9.288" fill="#252F9C"></path>
        <path d="M135.806 58.594c4.158 0 8.694 2.592 11.88 5.076l-1.62 5.616h-.378c-3.078-7.236-7.02-9.99-11.286-9.99-5.346 0-8.424 3.024-8.748 6.264-1.026 10.8 22.14 7.236 22.14 20.736 0 6.426-5.778 10.962-13.446 10.962-6.426 0-10.422-2.16-14.634-5.346l1.62-6.156h.378c2.754 5.508 7.776 10.422 14.85 10.422 4.59 0 8.424-2.97 8.856-6.372 1.404-11.502-21.816-7.83-21.816-21.384 0-4.374 3.51-9.828 12.204-9.828" fill="#252F9C"></path>
        <path d="m105.864 87.376.27.108c-1.026 5.076-3.294 9.774-8.964 9.774-4.806 0-7.776-3.132-7.776-9.504V71.392h-3.186v-.432c4.59 0 4.968-4.806 4.968-7.398h4.266c0 4.158-4.104 7.236-7.344 7.398h11.934v.432H93.66v17.172c0 4.698 1.296 8.316 5.886 7.722 3.564-.486 5.346-4.752 6.318-8.91" fill="#252F9C"></path>
        <path d="M81.408 93.37c0 1.89.378 2.7 1.242 3.186v.378h-6.696v-.378c.81-.486 1.188-1.296 1.188-3.186V75.118c0-1.89-.162-2.43-1.188-2.592v-.378l5.076-1.188h.378zM79.14 66.586a2.535 2.535 0 0 1-2.538-2.538 2.535 2.535 0 0 1 2.538-2.538 2.535 2.535 0 0 1 2.538 2.538 2.535 2.535 0 0 1-2.538 2.538" fill="#252F9C"></path>
        <path d="M71.867 96.556v.378h-5.508V83.812c-.702 6.102-2.538 13.446-9.558 13.446-4.968 0-8.91-3.132-8.91-9.504V75.118c0-1.89-.162-2.43-1.188-2.592v-.378l5.076-1.188h.378v17.604c0 4.698 2.43 8.586 7.074 7.722 6.048-1.188 7.128-12.474 7.128-17.01v-4.158c0-1.89-.162-2.43-1.188-2.592v-.378l5.076-1.188h.378v22.41c0 1.89.378 2.7 1.242 3.186" fill="#252F9C"></path>
        <path d="M37.802 70.96c2.916 0 4.59 1.026 6.426 3.186l-3.294 4.644-.378-.216c-.108-3.078-1.62-7.074-4.536-6.642-5.292.81-5.994 14.742-5.994 19.332v2.106c0 1.89.378 2.7 1.188 3.186v.378h-6.696v-.378c.864-.486 1.242-1.296 1.242-3.186V75.118c0-1.89-.162-2.43-1.242-2.592v-.378l5.076-1.188h.432v14.472c.54-6.534 2.052-14.472 7.776-14.472" fill="#252F9C"></path>
        <path d="m20.898 59.134 1.728 6.588-.27.162c-2.43-2.754-5.832-6.318-11.826-6.318H5.994v17.658l12.42-1.134v2.754l-12.42-1.188V93.37c0 1.89.378 2.7 1.188 3.186v.378H.54v-.378c.81-.486 1.188-1.296 1.188-3.186V62.752c0-1.89-.378-2.7-1.188-3.186v-.432z" fill="#252F9C"></path>
        <path d="M220.703 37.476c3.24-.054 4.482 1.782 4.482 4.158 0 4.266-5.4 7.02-9.99 7.02-3.888 0-5.778-2.106-7.074-3.888-2.484 1.512-5.184 2.916-7.722 3.078-2.862.216-5.022-.81-5.076-3.294-.108-3.294 5.076-5.076 8.856-5.454-6.318-.756-11.448-4.968-11.448-11.826 0-8.91 7.452-14.31 14.688-14.31 2.16 0 4.212.432 6.048 1.188l9.234-2.7.324 2.7-8.694.378c3.888 1.89 6.588 5.508 6.588 10.422 0 8.64-7.398 14.31-14.688 14.31-.162 0-.324 0-.54-.054-3.564.162-7.722 1.404-7.452 4.644.108 1.782 1.026 3.078 3.024 3.078 2.754.054 5.886-2.052 9.342-4.158 3.996-2.376 7.344-5.184 10.098-5.292m-23.382-8.478c1.89 6.48 6.966 11.124 13.122 9.288 6.102-1.782 7.83-8.532 5.94-15.066-1.89-6.48-6.966-11.07-13.122-9.288s-7.83 8.532-5.94 15.066m24.57 13.554c.108-2.484-.54-4.32-2.7-3.996-1.674.216-5.13 2.538-8.262 4.482l-2.43 1.458c1.026 1.512 2.7 3.726 6.696 3.78 4.158.054 6.48-2.16 6.696-5.724" fill="#252F9C"></path>
        <path d="M188.222 35.37c.216 1.944.702 2.7 1.512 3.186v.378h-6.696v-.378c.864-.486 1.08-1.404.918-3.186s-.972-10.908-1.242-13.716c-.378-4.05-2.376-8.64-7.02-7.722-6.048 1.188-7.182 12.474-7.182 17.01v4.428c0 1.89.378 2.7 1.242 3.186v.378h-6.696v-.378c.81-.486 1.188-1.296 1.188-3.186V17.118c0-1.89-.162-2.43-1.188-2.592v-.378l5.076-1.188h.378v13.392c.702-6.048 2.538-13.392 9.558-13.392 4.428 0 8.208 3.024 8.856 9.504.54 5.238 1.08 10.908 1.296 12.906" fill="#252F9C"></path>
        <path d="M157.718 35.37c0 1.89.378 2.7 1.242 3.186v.378h-6.696v-.378c.81-.486 1.188-1.296 1.188-3.186V17.118c0-1.89-.162-2.43-1.188-2.592v-.378l5.076-1.188h.378zM155.45 8.586a2.535 2.535 0 0 1-2.538-2.538 2.535 2.535 0 0 1 2.538-2.538 2.535 2.535 0 0 1 2.538 2.538 2.535 2.535 0 0 1-2.538 2.538" fill="#252F9C"></path>
        <path d="M146.976 35.37c0 1.89.378 2.7 1.188 3.186v.378h-6.642v-.378c.81-.486 1.188-1.296 1.188-3.186V4.158c0-1.89-.162-2.43-1.188-2.592v-.432L146.598 0h.378z" fill="#252F9C"></path>
        <path d="M130.928 29.052c3.726 6.048 5.184 8.37 7.614 9.504v.378h-8.208v-.378c1.242-.972.648-2.322-.972-5.076l-6.102-9.936-4.374 3.834V35.1c0 1.89.378 2.97 1.242 3.456v.378h-6.696v-.378c.81-.486 1.188-1.566 1.188-3.456V3.834c0-1.89-.162-2.106-1.188-2.268v-.432L118.508 0h.378v26.892l5.724-5.022c5.562-4.968 6.858-7.074 4.698-8.478v-.432h7.128v.432c-2.97 1.188-5.562 3.402-10.476 7.722z" fill="#252F9C"></path>
        <path d="M104.531 12.96c2.916 0 4.59 1.026 6.426 3.186l-3.294 4.644-.378-.216c-.108-3.078-1.62-7.074-4.536-6.642-5.292.81-5.994 14.742-5.994 19.332v2.106c0 1.89.378 2.7 1.188 3.186v.378h-6.696v-.378c.864-.486 1.242-1.296 1.242-3.186V17.118c0-1.89-.162-2.43-1.242-2.592v-.378l5.076-1.188h.432v14.472c.54-6.534 2.052-14.472 7.776-14.472" fill="#252F9C"></path>
        <path d="M87.187 38.556v.378h-5.454v-7.56c-1.404 4.752-4.374 7.884-9.558 7.884-4.428 0-8.748-2.106-9.45-5.994-.918-5.508 2.376-8.748 6.534-10.476-1.404-3.132.27-9.828 7.506-9.828 4.482 0 9.234 2.376 9.234 9.018V35.37c0 1.89.378 2.7 1.188 3.186M76.279 13.5c-4.86 0-8.1 4.698-6.48 9.072 2.916-1.08 6.156-1.458 8.694-1.458 1.242 0 2.322.216 3.24.486v-.378c0-4.104-1.62-7.722-5.454-7.722m-2.808 25.056c4.698-.27 7.182-4.266 8.262-8.154v-8.316c-.27-.108-1.566-.486-3.24-.486-5.886 0-13.878 2.916-11.556 12.42.702 2.916 3.834 4.698 6.534 4.536" fill="#252F9C"></path>
        <path d="M48.904 12.96c4.428 0 9.828 3.78 10.044 10.638.324 13.392-12.096 15.66-18.144 15.66-1.188 0-2.268-.216-3.186-.486v9.288c0 1.89.162 2.43 1.188 2.592v.378l-5.076 1.188h-.378v-35.1c0-1.89-.162-2.43-1.188-2.592v-.378l5.076-1.188h.378v14.796c.972-6.264 3.726-14.796 11.286-14.796m-8.046 25.974c5.184-.054 14.634-2.322 13.878-16.092-.27-4.698-3.564-9.828-8.208-8.91-6.048 1.188-8.91 12.474-8.91 17.01v7.506c.27.108 1.512.54 3.24.486" fill="#252F9C"></path>
        <path d="M16.092.594c4.158 0 8.694 2.592 11.88 5.076l-1.62 5.616h-.378c-3.078-7.236-7.02-9.99-11.286-9.99-5.346 0-8.424 3.024-8.748 6.264-1.026 10.8 22.14 7.236 22.14 20.736 0 6.426-5.778 10.962-13.446 10.962-6.426 0-10.422-2.16-14.634-5.346l1.62-6.156h.378c2.754 5.508 7.776 10.422 14.85 10.422 4.59 0 8.424-2.97 8.856-6.372 1.404-11.502-21.816-7.83-21.816-21.384 0-4.374 3.51-9.828 12.204-9.828" fill="#252F9C"></path>
    </g>
</svg>