<svg preserveAspectRatio="xMidYMid meet" data-bbox="0 0 175 133" width="175" height="133" viewBox="0 0 175 133" xmlns="http://www.w3.org/2000/svg" data-type="ugc" role="presentation" aria-hidden="true" aria-label="">
    <g>
        <path d="M0 0h175v125a8 8 0 0 1-8 8H8a8 8 0 0 1-8-8z" fill="#ffffff"></path>
        <path d="M154 86v23a3 3 0 0 1-3 3H24a3 3 0 0 1-3-3V86a3 3 0 0 1 3-3h127a3 3 0 0 1 3 3" fill="#ED775D"></path>
        <path d="M117.103 101h-1.309q-1.463 0-1.463-1.507v-2.86h-.88v-1.166h.88v-1.463h1.452v1.463h1.265v1.166h-1.265v2.607q0 .572.528.572h.792z" fill="#ffffff"></path>
        <path d="M112.819 95.368v1.331h-.297q-.748 0-1.188.473-.429.463-.429 1.474V101h-1.452v-5.533h1.441v1.045a1.76 1.76 0 0 1 .451-.682q.286-.253.605-.352.33-.11.638-.11z" fill="#ffffff"></path>
        <path d="M104.927 101.176q-.913 0-1.474-.495-.55-.506-.55-1.309 0-.847.671-1.331.67-.484 1.87-.484h1.166q-.023-.55-.363-.847-.341-.308-.935-.308-.793 0-1.474.638l-.759-.869q.99-.88 2.365-.88 1.143 0 1.826.627.681.627.682 1.683V101h-1.276v-.671a2.05 2.05 0 0 1-.737.627q-.451.22-1.012.22m.341-1.067q.462 0 .814-.242.363-.253.528-.66v-.726h-1.067q-.561 0-.88.22a.7.7 0 0 0-.319.616q0 .352.253.572.252.22.671.22" fill="#ffffff"></path>
        <path d="m101.059 98.712.968.99a3.5 3.5 0 0 1-1.309 1.089 3.9 3.9 0 0 1-1.705.385 4 4 0 0 1-1.562-.297 3.8 3.8 0 0 1-1.243-.858 4.1 4.1 0 0 1-.825-1.309 4.6 4.6 0 0 1-.286-1.65q0-.89.286-1.639.297-.748.825-1.298a3.7 3.7 0 0 1 1.254-.858 4 4 0 0 1 1.595-.308q.903 0 1.672.385.782.374 1.298 1.089l-.968.99a2.5 2.5 0 0 0-.88-.847 2.17 2.17 0 0 0-1.133-.308q-.693 0-1.232.363-.539.352-.847.979t-.308 1.452.308 1.463q.309.627.847.99.54.352 1.232.352.615 0 1.144-.308t.869-.847" fill="#ffffff"></path>
        <path d="M88.62 101.176q-.858 0-1.507-.374a2.8 2.8 0 0 1-1.022-1.045q-.363-.67-.363-1.529c0-.859.12-1.078.363-1.518a2.7 2.7 0 0 1 1.023-1.045q.648-.374 1.507-.374t1.507.374q.66.375 1.034 1.045.373.66.373 1.518t-.373 1.529q-.375.66-1.035 1.045-.648.374-1.506.374Zm0-1.21a1.23 1.23 0 0 0 1.012-.484q.396-.484.396-1.254 0-.759-.396-1.243a1.23 1.23 0 0 0-1.011-.484q-.617 0-1.001.484-.386.484-.386 1.243 0 .77.386 1.254.385.484 1 .484" fill="#ffffff"></path>
        <path d="M84.93 101h-1.31q-1.462 0-1.462-1.507v-2.86h-.88v-1.166h.88v-1.463h1.452v1.463h1.265v1.166H83.61v2.607q0 .572.528.572h.792z" fill="#ffffff"></path>
        <path d="M76.215 101v-.693a1.94 1.94 0 0 1-.715.638 2.15 2.15 0 0 1-1.012.231 2.4 2.4 0 0 1-1.31-.374 2.7 2.7 0 0 1-.934-1.034q-.352-.67-.352-1.54t.352-1.529q.362-.66.957-1.034.594-.374 1.309-.374.571 0 1 .242.43.231.694.638V93.08h1.452V101zm-2.816-2.772q0 .759.396 1.254.406.484 1.067.484.473 0 .836-.264a1.43 1.43 0 0 0 .506-.715v-.715q0-.815-.385-1.287a1.22 1.22 0 0 0-1.001-.484q-.639 0-1.034.495-.385.484-.385 1.232" fill="#ffffff"></path>
        <path d="M69.178 101v-.693a1.95 1.95 0 0 1-.715.638q-.44.231-1.011.231a2.4 2.4 0 0 1-1.31-.374 2.7 2.7 0 0 1-.934-1.034q-.352-.67-.352-1.54t.352-1.529q.362-.66.957-1.034.593-.374 1.308-.374.573 0 1.002.242.428.231.693.638V93.08h1.451V101zm-2.816-2.772q0 .759.397 1.254.405.484 1.067.484.473 0 .836-.264a1.43 1.43 0 0 0 .505-.715v-.715q0-.815-.385-1.287a1.22 1.22 0 0 0-1-.484q-.639 0-1.034.495-.386.484-.386 1.232" fill="#ffffff"></path>
        <path d="M64.352 101h-1.606l-.605-1.727h-3.157L58.368 101h-1.54l2.937-7.865h1.65zm-4.928-2.981H61.7l-1.144-3.223z" fill="#ffffff"></path>
        <path fill="none" d="M144 55.5h5" stroke="#394DB6" stroke-linecap="square"></path>
        <path fill="none" d="M146.5 58v-5" stroke="#394DB6" stroke-linecap="square"></path>
        <path d="M79.504 59.16a2.4 2.4 0 0 1-1.27-.34 2.4 2.4 0 0 1-.88-.93 2.86 2.86 0 0 1-.31-1.35q0-.76.31-1.35a2.4 2.4 0 0 1 .88-.93q.56-.34 1.27-.34.72 0 1.28.34t.87.93q.32.59.32 1.35t-.32 1.35a2.34 2.34 0 0 1-.87.93q-.56.34-1.28.34m0-.67q.5 0 .87-.25a1.7 1.7 0 0 0 .58-.69q.21-.44.21-1.01 0-.58-.21-1.01a1.7 1.7 0 0 0-.58-.69 1.5 1.5 0 0 0-.87-.25 1.5 1.5 0 0 0-.86.25 1.7 1.7 0 0 0-.58.69q-.21.43-.21 1.01 0 .57.21 1.01t.58.69a1.5 1.5 0 0 0 .86.25" fill="#394DB6"></path>
        <path d="M75.204 59h-.77v-4.26h-.94v-.66h.94V53q0-1.2 1.14-1.2h.97v.64h-.78q-.3 0-.43.15-.13.14-.13.46v1.03h1.34v.66h-1.34z" fill="#394DB6"></path>
        <path d="M72.6 59h-.77v-2.83q0-.78-.33-1.17-.319-.4-.87-.4a1.34 1.34 0 0 0-.75.23q-.349.22-.57.71-.22.48-.22 1.25V59h-.77v-4.92h.76v1.01q.241-.64.71-.9.471-.27.99-.27.85 0 1.33.56.491.55.49 1.6z" fill="#394DB6"></path>
        <path d="M66.41 59h-.8v-7.15h.8z" fill="#394DB6"></path>
        <path d="M61.926 59h-1.1q-.52 0-.79-.28-.27-.29-.27-.82v-3.16h-.94v-.66h.94v-1.44h.77v1.44h1.32v.66h-1.32v3.09q0 .51.48.51h.91z" fill="#394DB6"></path>
        <path d="m57.574 57.69.54.51q-.71.96-1.96.96-.72 0-1.28-.33a2.44 2.44 0 0 1-.87-.93q-.31-.59-.31-1.36t.32-1.36.88-.92q.56-.34 1.28-.34 1.251 0 1.95.96l-.55.51a1.5 1.5 0 0 0-.58-.59 1.67 1.67 0 0 0-.84-.21q-.73 0-1.19.53t-.46 1.42q0 .88.46 1.42.47.53 1.22.53.9 0 1.39-.8" fill="#394DB6"></path>
        <path d="M52.305 59h-.76v-.78q-.24.43-.68.69-.429.25-.99.25-.83 0-1.33-.53t-.5-1.53v-3.02h.77v2.94q0 .72.32 1.1.321.37.9.37.51 0 .92-.31.41-.32.58-.85v-3.25h.77z" fill="#394DB6"></path>
        <path d="M45.676 59v-.78a1.86 1.86 0 0 1-.71.69q-.46.25-1.04.25-.69 0-1.23-.34a2.4 2.4 0 0 1-.84-.93 2.86 2.86 0 0 1-.31-1.35q0-.75.3-1.34.31-.6.84-.94a2.2 2.2 0 0 1 1.21-.34q.58 0 1.05.28t.72.75V51.8h.77V59zm-3.32-2.46q0 .57.21 1.01.22.44.6.69t.87.25q.57 0 1.01-.32.44-.33.62-.86v-.63q0-.62-.21-1.09a1.7 1.7 0 0 0-.59-.73 1.42 1.42 0 0 0-.86-.27q-.48 0-.86.25a1.7 1.7 0 0 0-.58.69q-.21.44-.21 1.01" fill="#394DB6"></path>
        <path d="M38 59.16a2.4 2.4 0 0 1-1.27-.34 2.4 2.4 0 0 1-.88-.93 2.86 2.86 0 0 1-.31-1.35q0-.76.31-1.35a2.4 2.4 0 0 1 .88-.93q.56-.34 1.27-.34.72 0 1.28.34t.87.93q.32.59.32 1.35t-.32 1.35a2.34 2.34 0 0 1-.87.93q-.56.34-1.28.34m0-.67q.5 0 .87-.25a1.7 1.7 0 0 0 .58-.69q.21-.44.21-1.01 0-.58-.21-1.01a1.7 1.7 0 0 0-.58-.69 1.5 1.5 0 0 0-.87-.25 1.5 1.5 0 0 0-.86.25 1.7 1.7 0 0 0-.58.69q-.21.43-.21 1.01 0 .57.21 1.01t.58.69a1.5 1.5 0 0 0 .86.25" fill="#394DB6"></path>
        <path d="M34.956 54v.74h-.17q-.46 0-.86.24-.39.23-.63.72-.24.48-.24 1.24V59h-.77v-4.92h.76v1.1q.25-.64.74-.91t1.01-.27z" fill="#394DB6"></path>
        <path d="M26.86 59h-.8v-7.15h2.62q.67 0 1.17.25t.78.7.28 1.06q0 .6-.28 1.05t-.78.71q-.5.25-1.17.25h-1.82zm1.82-6.45h-1.82v2.62h1.82q.66 0 1.03-.35.38-.35.38-.96 0-.62-.38-.96-.37-.35-1.03-.35" fill="#394DB6"></path>
        <path fill="none" opacity=".2" d="M21 66.5h133" stroke="#394DB6"></path>
        <path fill="none" opacity=".2" d="M21 43.5h133" stroke="#394DB6"></path>
        <path d="M150.696 20.959q.804 0 1.397.363.594.363.924 1.023.341.649.341 1.529 0 1.21-.748 2.497-.737 1.287-2.387 2.629h-1.188q1.265-1.013 1.991-1.815.726-.803 1.089-1.551a1.9 1.9 0 0 1-.671.495 2.2 2.2 0 0 1-.902.176q-.693 0-1.276-.33-.582-.33-.935-.924-.352-.594-.352-1.375 0-.77.341-1.386.353-.615.957-.968.616-.363 1.419-.363m-.022.737a1.77 1.77 0 0 0-.935.253 1.86 1.86 0 0 0-.649.693 2.1 2.1 0 0 0-.231 1.001q0 .561.231 1.001.243.44.649.693.419.242.935.242.507 0 .913-.231.419-.242.66-.682a2 2 0 0 0 .253-1.023q0-.572-.242-1.001a1.74 1.74 0 0 0-.649-.693 1.73 1.73 0 0 0-.935-.253" fill="#394DB6"></path>
        <path d="M144.261 20.959q.803 0 1.397.363t.924 1.023q.34.649.341 1.529 0 1.21-.748 2.497-.737 1.287-2.387 2.629H142.6q1.265-1.013 1.991-1.815.726-.803 1.089-1.551a1.9 1.9 0 0 1-.671.495 2.2 2.2 0 0 1-.902.176q-.693 0-1.276-.33t-.935-.924-.352-1.375q0-.77.341-1.386.353-.615.957-.968.617-.363 1.419-.363m-.022.737a1.77 1.77 0 0 0-.935.253q-.407.254-.649.693a2.1 2.1 0 0 0-.231 1.001q0 .561.231 1.001.242.44.649.693.418.242.935.242.506 0 .913-.231.418-.242.66-.682a2 2 0 0 0 .253-1.023q0-.572-.242-1.001a1.74 1.74 0 0 0-.649-.693 1.73 1.73 0 0 0-.935-.253" fill="#394DB6"></path>
        <path d="M139.796 29.132a.63.63 0 0 1-.462-.187.65.65 0 0 1-.176-.462.65.65 0 0 1 .176-.462.63.63 0 0 1 .462-.187.6.6 0 0 1 .451.187.63.63 0 0 1 .187.462.63.63 0 0 1-.187.462.6.6 0 0 1-.451.187" fill="#394DB6"></path>
        <path d="m132.933 27.625.594-.55q.726 1.365 2.013 1.364.814 0 1.298-.561t.484-1.463q0-.528-.22-.946a1.7 1.7 0 0 0-.605-.671 1.6 1.6 0 0 0-.902-.253q-.472 0-.957.253a1.56 1.56 0 0 0-.715.781h-.781l.484-4.444h4.18v.737h-3.487l-.286 2.706q.275-.363.704-.561.429-.21.957-.209.715 0 1.276.363.572.352.902.957.33.594.33 1.331 0 .792-.341 1.408-.33.605-.935.957c-.605.352-.869.352-1.397.352a3.04 3.04 0 0 1-1.518-.385q-.671-.396-1.078-1.166" fill="#394DB6"></path>
        <path d="m126.47 27.636.594-.55q.759 1.089 1.936 1.221V25.26q-1.21-.253-1.738-.715-.528-.473-.528-1.331 0-.572.286-1.034.297-.473.814-.759.517-.285 1.177-.341v-1.221h.671v1.232a2.95 2.95 0 0 1 1.232.451q.561.352.99.957l-.594.55q-.65-1-1.628-1.199v2.75q1.275.264 1.826.77.561.495.561 1.408 0 .605-.297 1.1-.297.484-.836.803a3.1 3.1 0 0 1-1.265.374v1.221H129v-1.221q-1.563-.132-2.53-1.419m1.067-4.433q0 .55.341.836.351.285 1.133.44v-2.651q-.66.077-1.067.451-.408.374-.407.924m3.729 3.575q0-.55-.374-.869-.375-.33-1.221-.517v2.915q.737-.076 1.166-.495a1.4 1.4 0 0 0 .429-1.034" fill="#394DB6"></path>
        <path d="M109.595 29.208q-.754 0-1.326-.273a2.2 2.2 0 0 1-.897-.754 2 2 0 0 1-.312-1.118q0-1.001.858-1.573.871-.572 2.314-.572h1.508q-.039-.637-.481-.988-.443-.351-1.17-.351-.571 0-1.053.221a2.8 2.8 0 0 0-.845.598l-.897-1.04a3.6 3.6 0 0 1 1.261-.806 4.3 4.3 0 0 1 1.612-.299q.962 0 1.677.325a2.6 2.6 0 0 1 1.131.936q.403.598.403 1.469V29h-1.56v-.767a2.5 2.5 0 0 1-.936.715 3.1 3.1 0 0 1-1.287.26m.403-1.287q.585 0 1.053-.286a1.73 1.73 0 0 0 .689-.767v-.832h-1.378q-.702 0-1.131.247t-.429.715q0 .416.325.676.338.247.871.247" fill="#394DB6"></path>
        <path d="M105.82 29h-1.703v-.832a2.4 2.4 0 0 1-.91.767q-.558.273-1.3.273a3.16 3.16 0 0 1-1.651-.442 3.3 3.3 0 0 1-1.183-1.222q-.441-.793-.442-1.82c-.001-1.027.148-1.287.442-1.807q.443-.78 1.183-1.222a3.14 3.14 0 0 1 1.638-.442q.755 0 1.313.299.56.285.897.78V19.64h1.716zm-5.408-3.276q0 .897.52 1.482.534.572 1.391.572.624 0 1.105-.312a1.67 1.67 0 0 0 .676-.832v-.858q0-.961-.52-1.521-.519-.572-1.326-.572-.832 0-1.339.585-.507.572-.507 1.456" fill="#394DB6"></path>
        <path d="M93.968 29.208q-1.053 0-1.872-.442a3.4 3.4 0 0 1-1.287-1.235q-.455-.793-.455-1.807t.455-1.794q.468-.793 1.287-1.235t1.872-.442q1.065 0 1.885.442.819.442 1.274 1.235.468.78.468 1.794t-.468 1.807a3.3 3.3 0 0 1-1.274 1.235q-.819.442-1.885.442m0-1.43q.832 0 1.339-.572t.507-1.482q0-.897-.507-1.469t-1.339-.572q-.819 0-1.326.572t-.507 1.469q0 .91.507 1.482t1.326.572" fill="#394DB6"></path>
        <path d="m81.173 27.479 1.183-1.183q.507.637 1.313 1.027a4 4 0 0 0 1.703.377q.948 0 1.495-.351.56-.364.559-.949 0-.52-.507-.832-.494-.325-1.781-.52-1.886-.286-2.73-.936t-.845-1.742q0-.845.468-1.495.48-.65 1.313-1.014.832-.364 1.898-.364 1.248 0 2.223.481.975.468 1.65 1.248l-1.17 1.17a3.5 3.5 0 0 0-1.17-1.001 3.1 3.1 0 0 0-1.507-.377q-.846 0-1.378.338-.533.338-.533.91 0 .455.468.715.48.26 1.742.455 1.885.285 2.756.988.885.69.884 1.885 0 .884-.494 1.547-.494.65-1.365 1.014-.87.351-2.015.351-1.34 0-2.392-.481a5.4 5.4 0 0 1-1.768-1.261" fill="#394DB6"></path>
        <path d="m76.692 26.829 1.08 1.053a3.6 3.6 0 0 1-1.249.988q-.714.338-1.638.338-1.014 0-1.82-.442a3.45 3.45 0 0 1-1.26-1.235q-.47-.793-.469-1.807 0-1.014.468-1.794a3.3 3.3 0 0 1 1.274-1.222q.82-.455 1.846-.455.91 0 1.625.351a3.46 3.46 0 0 1 1.222.962l-1.079 1.053a2.06 2.06 0 0 0-.689-.676q-.415-.26-.988-.26-.546 0-.975.273a1.85 1.85 0 0 0-.676.715 2.2 2.2 0 0 0-.247 1.053q0 .598.247 1.066.247.455.676.728.429.26.975.26.573 0 .988-.26.416-.273.69-.689Z" fill="#394DB6"></path>
        <path d="M69.19 21.33a1.03 1.03 0 0 1-.74-.286.98.98 0 0 1-.3-.715q0-.429.3-.715.3-.3.74-.299.444 0 .742.299.3.285.299.715 0 .416-.3.715-.297.286-.74.286Zm.86 7.67h-1.716v-6.539h1.716z" fill="#394DB6"></path>
        <path d="M67.112 29h-1.638q-1.782 0-1.781-1.781v-3.367h-1.144v-1.391h1.144v-1.729h1.716v1.729h1.625v1.391h-1.625v3.068q0 .675.65.676h1.053z" fill="#394DB6"></path>
        <path d="M58.23 29.208q-1.052 0-1.871-.442a3.4 3.4 0 0 1-1.287-1.235q-.456-.793-.455-1.807 0-1.014.455-1.794a3.26 3.26 0 0 1 1.287-1.235q.819-.442 1.872-.442 1.066 0 1.885.442t1.274 1.235q.468.78.468 1.794t-.468 1.807q-.455.78-1.274 1.235-.82.442-1.885.442Zm0-1.43q.833 0 1.34-.572t.507-1.482q0-.897-.507-1.469t-1.34-.572q-.818 0-1.325.572t-.507 1.469q0 .91.507 1.482t1.326.572Z" fill="#394DB6"></path>
        <path d="M52.471 21.33a1.03 1.03 0 0 1-.74-.286.98.98 0 0 1-.3-.715q0-.429.3-.715.297-.3.74-.299c.443.001.542.1.741.299q.3.285.3.715 0 .416-.3.715-.3.286-.74.286ZM53.33 29h-1.716v-6.539h1.716z" fill="#394DB6"></path>
        <path d="M44.849 29h-1.703v-9.36h1.715v3.744q.34-.52.91-.819.573-.312 1.326-.312.91 0 1.639.442.741.442 1.17 1.222.441.78.441 1.807t-.441 1.82q-.443.78-1.184 1.222a3.2 3.2 0 0 1-1.663.442q-.754 0-1.313-.286a2.4 2.4 0 0 1-.898-.767zm.013-3.224v.845q.195.533.675.845.495.312 1.119.312.857 0 1.377-.572.533-.585.533-1.482 0-.885-.494-1.456-.493-.585-1.339-.585-.806 0-1.338.572-.534.56-.534 1.521Z" fill="#394DB6"></path>
        <path d="m40.879 26.959.91 1.053a3.55 3.55 0 0 1-1.287.884 4.4 4.4 0 0 1-1.69.312q-1.131 0-2.002-.442a3.3 3.3 0 0 1-1.34-1.222q-.48-.78-.48-1.807t.455-1.807a3.3 3.3 0 0 1 1.26-1.235q.807-.442 1.82-.442.975 0 1.73.442.754.43 1.183 1.196.429.767.429 1.781v.598h-5.083q.168.767.728 1.183.572.403 1.39.403 1.184 0 1.977-.897m-2.366-3.367q-.676 0-1.144.416-.456.416-.585 1.144h3.38q-.105-.716-.546-1.131-.442-.429-1.105-.429" fill="#394DB6"></path>
        <path d="M34.367 22.344v1.56h-.351q-.91 0-1.456.546-.546.532-.546 1.755V29h-1.716v-6.539H32v1.287q.22-.533.572-.832.35-.312.754-.442.416-.13.806-.13z" fill="#394DB6"></path>
        <path d="M23.678 29h-1.755v-9.295h3.77q1 0 1.742.364a2.74 2.74 0 0 1 1.17.988q.429.637.429 1.482c0 .845-.143 1.062-.43 1.495a2.83 2.83 0 0 1-1.17 1.001q-.74.351-1.741.351h-2.015zm2.015-7.813h-2.015v2.717h2.015q.727 0 1.144-.364t.416-1.001q0-.624-.416-.988t-1.144-.364" fill="#394DB6"></path>
    </g>
</svg>