<svg preserveAspectRatio="xMidYMid meet" data-bbox="1 1 194 194" width="196" height="196" viewBox="0 0 196 196" xmlns="http://www.w3.org/2000/svg" data-type="ugc" role="presentation" aria-hidden="true" aria-label="">
    <g>
        <g filter="url(#ccc3e131-b9fa-444f-a8b3-73e8d4e0bef4_comp-lrt6j5ri)">
            <path d="M195 11v174c0 5.523-4.477 10-10 10H11c-5.523 0-10-4.477-10-10V11C1 5.477 5.477 1 11 1h174c5.523 0 10 4.477 10 10z" fill="#ffffff" fill-opacity=".25"></path>
            <path fill="none" d="M195 11v174c0 5.523-4.477 10-10 10H11c-5.523 0-10-4.477-10-10V11C1 5.477 5.477 1 11 1h174c5.523 0 10 4.477 10 10z" stroke="#ffffff" stroke-width=".8"></path>
        </g>
        <g clip-path="url(#cf298cbe-0cc3-4be3-af75-4ca5e5dc7b39_comp-lrt6j5ri)">
            <path opacity=".234" fill-rule="evenodd" clip-rule="evenodd" d="M21.497 132.723c3.336 6.906 10.01 20.719 16.683 24.272 6.673 3.554 13.347-3.152 20.02-5.16s13.347.682 20.02 1.05 13.347-1.584 20.02-1.041c6.673.544 13.347 3.583 20.02-6.866 6.673-10.45 13.347-34.388 20.02-40.43 6.673-6.042 13.347 5.813 20.02 2.644 6.673-3.168 13.347-21.36 16.683-30.456l3.337-9.096v108.68H18.16v-50.503l3.337 6.906Z" fill="url(#2855595c-3db6-4194-a978-2bd4671f7308_comp-lrt6j5ri)"></path>
            <path fill="none" d="m18.16 125.817 3.337 6.906c3.336 6.906 10.01 20.719 16.683 24.272 6.673 3.554 13.347-3.152 20.02-5.16s13.347.682 20.02 1.05 13.347-1.584 20.02-1.041c6.673.544 13.347 3.583 20.02-6.866 6.673-10.45 13.347-34.388 20.02-40.43 6.673-6.042 13.347 5.813 20.02 2.644 6.673-3.168 13.347-21.36 16.683-30.456l3.337-9.096" stroke="#ffffff" stroke-width="1.144" stroke-linecap="round"></path>
        </g>
        <g clip-path="url(#65033e40-cd24-4e13-abc9-e5858b0ce3cb_comp-lrt6j5ri)">
            <path d="m24.508 31.986.783-.783c.87 1.062 1.922 1.593 3.157 1.593.769 0 1.382-.179 1.84-.536.466-.357.7-.832.7-1.427 0-.513-.201-.906-.604-1.181-.394-.284-1.066-.503-2.018-.659-1.245-.201-2.137-.503-2.677-.906-.54-.412-.81-.993-.81-1.744 0-.549.146-1.034.44-1.455a3.03 3.03 0 0 1 1.235-.988c.53-.247 1.13-.37 1.798-.37 1.492 0 2.737.567 3.734 1.702l-.769.768c-.43-.512-.883-.887-1.359-1.125-.466-.238-1.002-.357-1.606-.357-.723 0-1.295.16-1.716.48-.412.32-.618.764-.618 1.332 0 .44.188.782.563 1.03.375.247 1.002.439 1.881.576 1.309.201 2.242.526 2.8.975.568.439.852 1.075.852 1.908 0 .576-.156 1.089-.467 1.537-.311.449-.746.801-1.304 1.057-.55.248-1.18.371-1.895.371-1.583 0-2.896-.6-3.94-1.798Zm11.438 1.798c-.476 0-.897-.091-1.263-.274a2.173 2.173 0 0 1-.865-.755 2.09 2.09 0 0 1-.302-1.113c0-.686.26-1.23.782-1.633.531-.403 1.24-.604 2.128-.604h1.895v-.055c0-.568-.174-1.016-.522-1.345-.339-.339-.806-.508-1.4-.508-.778 0-1.437.325-1.977.974l-.687-.672c.77-.806 1.68-1.208 2.732-1.208.577 0 1.08.114 1.51.343.43.22.765.535 1.002.947.238.403.357.879.357 1.428v4.256h-1.002v-.92c-.256.347-.59.627-1.002.837a3.116 3.116 0 0 1-1.386.302Zm.15-.878c.531 0 .994-.133 1.387-.399a2.23 2.23 0 0 0 .838-1.084v-1.167H36.55c-.614 0-1.09.119-1.428.357-.339.229-.508.558-.508.988 0 .394.133.71.398.948.275.237.636.357 1.085.357Zm6.507.659h-1.057V23.68h1.057v9.885Zm7.47-1.936.713.686c-.357.494-.778.865-1.263 1.112a3.481 3.481 0 0 1-1.579.357c-.677 0-1.276-.155-1.798-.467a3.31 3.31 0 0 1-1.208-1.276c-.284-.55-.426-1.167-.426-1.854 0-.686.142-1.3.426-1.84a3.362 3.362 0 0 1 1.18-1.29 3.146 3.146 0 0 1 1.69-.466c.612 0 1.152.15 1.619.453.476.302.846.723 1.112 1.263.265.53.398 1.144.398 1.84v.411h-5.313c.073.677.32 1.231.742 1.661.43.43.979.645 1.647.645.421 0 .8-.1 1.14-.302.338-.201.645-.512.92-.933Zm-2.266-4.119c-.567 0-1.052.202-1.455.604-.394.403-.632.93-.714 1.58h4.2c-.063-.669-.278-1.2-.644-1.593-.357-.394-.82-.59-1.387-.59Zm4.244 5.011.687-.727a3.52 3.52 0 0 0 1.002.81c.384.192.814.288 1.29.288.495 0 .893-.115 1.195-.343.31-.23.466-.527.466-.893 0-.302-.132-.54-.398-.714-.256-.183-.7-.32-1.331-.411-.961-.156-1.639-.38-2.032-.673-.384-.293-.577-.7-.577-1.222 0-.622.243-1.116.728-1.482.485-.376 1.112-.563 1.88-.563.568 0 1.076.11 1.525.33.448.219.846.53 1.194.933l-.687.727a2.936 2.936 0 0 0-.892-.796 2.14 2.14 0 0 0-1.14-.302c-.448 0-.814.105-1.097.316-.284.201-.426.462-.426.782 0 .256.119.462.357.618.238.146.659.265 1.263.357.997.146 1.702.384 2.114.714.412.32.618.778.618 1.372 0 .421-.12.797-.357 1.126-.238.32-.568.572-.989.755-.412.174-.883.261-1.414.261-.659 0-1.226-.11-1.702-.33a4.368 4.368 0 0 1-1.277-.933Z" fill="#ffffff"></path>
            <path d="m25.085 72.897 2.224-2.224c1.19 1.52 2.654 2.407 4.393 2.664v-5.711c-2.087-.421-3.624-1.08-4.613-1.977-.988-.915-1.482-2.133-1.482-3.652 0-1.025.265-1.94.796-2.745.53-.824 1.263-1.483 2.196-1.977.934-.494 2.014-.787 3.24-.879V53.35h1.84v3.102c2.233.293 4.127 1.41 5.683 3.35l-2.279 2.224c-.952-1.373-2.087-2.224-3.404-2.554v5.3c2.214.439 3.816 1.107 4.804 2.004.989.878 1.483 2.095 1.483 3.651 0 1.08-.265 2.041-.796 2.883-.531.842-1.282 1.529-2.252 2.06-.97.512-2.105.823-3.404.933v3.047h-1.812v-3.047c-1.355-.11-2.6-.449-3.734-1.016a9.037 9.037 0 0 1-2.883-2.389Zm3.953-11.01c0 .66.22 1.19.66 1.593.439.403 1.153.723 2.141.96v-5.078c-.842.091-1.52.366-2.032.823-.512.458-.768 1.025-.768 1.702Zm7.441 8.704c0-.659-.22-1.18-.659-1.565-.44-.403-1.208-.741-2.306-1.016v5.327c.952-.11 1.684-.403 2.196-.879.513-.494.77-1.117.77-1.867Zm19.133 5.574H42.486v-2.993l6.92-6.535c1.006-.951 1.693-1.757 2.059-2.416.384-.677.576-1.373.576-2.087 0-.896-.274-1.601-.824-2.114-.549-.53-1.29-.796-2.223-.796-1.703 0-3.185.98-4.448 2.938l-2.389-2.334c1.812-2.49 4.091-3.734 6.837-3.734 1.336 0 2.498.247 3.486.742.989.475 1.748 1.153 2.28 2.031.548.86.823 1.886.823 3.075 0 .86-.137 1.675-.412 2.444-.274.769-.75 1.574-1.428 2.416-.677.824-1.62 1.775-2.828 2.855l-3.926 3.515h8.621v2.993Zm8.524-19.632h3.102v19.632h-3.706V60.432l-4.613 3.35v-3.734l5.217-3.515Zm20.862 19.632H71.874v-2.993l6.919-6.535c1.007-.951 1.693-1.757 2.06-2.416.384-.677.576-1.373.576-2.087 0-.896-.275-1.601-.824-2.114-.55-.53-1.29-.796-2.224-.796-1.702 0-3.185.98-4.448 2.938l-2.389-2.334c1.813-2.49 4.091-3.734 6.837-3.734 1.336 0 2.498.247 3.487.742.988.475 1.748 1.153 2.279 2.031.549.86.823 1.886.823 3.075 0 .86-.137 1.675-.411 2.444-.275.769-.75 1.574-1.428 2.416-.677.824-1.62 1.775-2.828 2.855l-3.926 3.515h8.621v2.993Zm7.206 0h-3.706V56.533h3.706v9.143l7.633-9.143h4.558l-8.127 9.445 9.198 10.187h-4.97l-8.291-9.445v9.445Z" fill="#ffffff"></path>
            <path fill-rule="evenodd" clip-rule="evenodd" d="m114.065 55.028 5.945 6.006h-11.889l5.944-6.006Z" fill="#ffffff"></path>
        </g>
        <defs fill="none">
            <clipPath id="cf298cbe-0cc3-4be3-af75-4ca5e5dc7b39_comp-lrt6j5ri">
                <path d="M160.16 0v108.68H0V0h160.16z" fill="#ffffff" transform="translate(18.16 67.64)"></path>
            </clipPath>
            <clipPath id="65033e40-cd24-4e13-abc9-e5858b0ce3cb_comp-lrt6j5ri">
                <path d="M97.08 0v63.6H0V0h97.08z" fill="#ffffff" transform="translate(23.85 19.564)"></path>
            </clipPath>
            <linearGradient id="2855595c-3db6-4194-a978-2bd4671f7308_comp-lrt6j5ri" x1="104.134" y1="116.696" x2="104.134" y2="176.32" gradientUnits="userSpaceOnUse">
                <stop offset=".208" stop-color="#ffffff"></stop>
                <stop offset="1" stop-color="#ffffff" stop-opacity=".01"></stop>
            </linearGradient>
            <filter id="ccc3e131-b9fa-444f-a8b3-73e8d4e0bef4_comp-lrt6j5ri" x="-39.4" y="-39.4" width="274.8" height="274.8" filterUnits="userSpaceOnUse" color-interpolation-filters="sRGB">
                <feFlood flood-opacity="0" result="BackgroundImageFix"></feFlood>
                <feGaussianBlur in="BackgroundImageFix" stdDeviation="20"></feGaussianBlur>
                <feComposite in2="SourceAlpha" operator="in" result="effect1_backgroundBlur_1427_12153"></feComposite>
                <feBlend in="SourceGraphic" in2="effect1_backgroundBlur_1427_12153" result="shape"></feBlend>
            </filter>
        </defs>
    </g>
</svg>