<svg preserveAspectRatio="xMidYMid meet" data-bbox="0.5 0.5 1042 493" width="1043" height="494" viewBox="0 0 1043 494" xmlns="http://www.w3.org/2000/svg" data-type="ugc" role="presentation" aria-hidden="true" aria-label="">
    <g>
        <mask id="952de6e5-32ec-4342-a3c0-235deb6e54a3_comp-lyctu20u" maskUnits="userSpaceOnUse" x="0" y="0" width="1043" height="494" fill="#000000">
            <path d="M1043 0v494H0V0z" fill="#ffffff"></path>
            <path fill-rule="evenodd" clip-rule="evenodd" d="M269 11c0-5.523 4.477-10 10-10h753c5.52 0 10 4.477 10 10v472c0 5.523-4.48 10-10 10H279c-5.523 0-10-4.477-10-10V227c0-8.284-6.716-15-15-15s-15 6.716-15 15v81c0 5.523-4.477 10-10 10H11c-5.523 0-10-4.477-10-10V94c0-5.523 4.477-10 10-10h218c5.523 0 10 4.477 10 10v81c0 8.284 6.716 15 15 15s15-6.716 15-15z"></path>
        </mask>
        <path fill-rule="evenodd" clip-rule="evenodd" d="M269 11c0-5.523 4.477-10 10-10h753c5.52 0 10 4.477 10 10v472c0 5.523-4.48 10-10 10H279c-5.523 0-10-4.477-10-10V227c0-8.284-6.716-15-15-15s-15 6.716-15 15v81c0 5.523-4.477 10-10 10H11c-5.523 0-10-4.477-10-10V94c0-5.523 4.477-10 10-10h218c5.523 0 10 4.477 10 10v81c0 8.284 6.716 15 15 15s15-6.716 15-15z" fill="#ffffff" fill-opacity=".2"></path>
        <path d="M279 .5c-5.799 0-10.5 4.701-10.5 10.5h1a9.5 9.5 0 0 1 9.5-9.5zm753 0H279v1h753zm10.5 10.5c0-5.799-4.7-10.5-10.5-10.5v1c5.25 0 9.5 4.253 9.5 9.5zm0 472V11h-1v472zm-10.5 10.5c5.8 0 10.5-4.701 10.5-10.5h-1c0 5.247-4.25 9.5-9.5 9.5zm-753 0h753v-1H279zM268.5 483c0 5.799 4.701 10.5 10.5 10.5v-1a9.5 9.5 0 0 1-9.5-9.5zm0-256v256h1V227zm-30 0v81h1v-81zm0 81a9.5 9.5 0 0 1-9.5 9.5v1c5.799 0 10.5-4.701 10.5-10.5zm-9.5 9.5H11v1h218zm-218 0a9.5 9.5 0 0 1-9.5-9.5h-1c0 5.799 4.701 10.5 10.5 10.5zM1.5 308V94h-1v214zm0-214a9.5 9.5 0 0 1 9.5-9.5v-1C5.201 83.5.5 88.201.5 94zm9.5-9.5h218v-1H11zm218 0a9.5 9.5 0 0 1 9.5 9.5h1c0-5.799-4.701-10.5-10.5-10.5zm9.5 9.5v81h1V94zm30-83v164h1V11zM254 190.5c8.56 0 15.5-6.94 15.5-15.5h-1c0 8.008-6.492 14.5-14.5 14.5zm0 21c-8.56 0-15.5 6.94-15.5 15.5h1c0-8.008 6.492-14.5 14.5-14.5zM238.5 175c0 8.56 6.94 15.5 15.5 15.5v-1c-8.008 0-14.5-6.492-14.5-14.5zm31 52c0-8.56-6.94-15.5-15.5-15.5v1c8.008 0 14.5 6.492 14.5 14.5z" fill="#ffffff" mask="url(#952de6e5-32ec-4342-a3c0-235deb6e54a3_comp-lyctu20u)"></path>
        <path d="M226 268v27c0 5.523-4.477 10-10 10H24c-5.523 0-10-4.477-10-10v-27c0-5.523 4.477-10 10-10h192c5.523 0 10 4.477 10 10" fill="#D8E2EC" fill-opacity=".7"></path>
        <path d="M191.507 286.144a.7.7 0 0 1-.504-.204.7.7 0 0 1-.192-.504q0-.3.192-.504a.7.7 0 0 1 .504-.204q.3 0 .492.204a.7.7 0 0 1 .204.504q0 .3-.204.504a.65.65 0 0 1-.492.204" fill="#333853"></path>
        <path d="M189.683 280.096h.936l-2.808 6.948q-.24.6-.612.936-.36.348-1.14.348h-.696v-.792h.696q.408 0 .636-.192t.36-.564l.276-.756-2.4-5.928h.984l1.884 4.944z" fill="#333853"></path>
        <path d="M182.616 286v-.936q-.3.516-.852.828-.552.3-1.248.3a2.7 2.7 0 0 1-1.476-.408 2.9 2.9 0 0 1-1.008-1.116q-.372-.708-.372-1.62 0-.9.36-1.608.372-.72 1.008-1.128a2.67 2.67 0 0 1 1.452-.408q.696 0 1.26.336t.864.9v-3.78h.924V286zm-3.984-2.952q0 .684.252 1.212.264.528.72.828t1.044.3q.684 0 1.212-.384.528-.396.744-1.032v-.756q0-.744-.252-1.308a2.04 2.04 0 0 0-.708-.876 1.7 1.7 0 0 0-1.032-.324q-.576 0-1.032.3-.444.3-.696.828a2.8 2.8 0 0 0-.252 1.212" fill="#333853"></path>
        <path d="M173.136 286.192q-.624 0-1.104-.24a1.9 1.9 0 0 1-.756-.66 1.83 1.83 0 0 1-.264-.972q0-.9.684-1.428.696-.528 1.86-.528h1.656v-.048q0-.744-.456-1.176-.444-.444-1.224-.444-1.02 0-1.728.852l-.6-.588q1.008-1.056 2.388-1.056.756 0 1.32.3.564.288.876.828.312.528.312 1.248V286h-.876v-.804a2.46 2.46 0 0 1-.876.732q-.54.264-1.212.264m.132-.768q.696 0 1.212-.348a1.95 1.95 0 0 0 .732-.948v-1.02h-1.548q-.804 0-1.248.312-.444.3-.444.864 0 .516.348.828.36.312.948.312" fill="#333853"></path>
        <path d="m169.09 284.308.624.6q-.468.648-1.104.972a3.04 3.04 0 0 1-1.38.312q-.888 0-1.572-.408a2.9 2.9 0 0 1-1.056-1.116 3.5 3.5 0 0 1-.372-1.62q0-.9.372-1.608.384-.72 1.032-1.128a2.75 2.75 0 0 1 1.476-.408q.804 0 1.416.396.624.396.972 1.104.348.696.348 1.608v.36h-4.644q.096.888.648 1.452.564.564 1.44.564.552 0 .996-.264t.804-.816m-1.98-3.6q-.744 0-1.272.528-.516.528-.624 1.38h3.672q-.084-.876-.564-1.392-.468-.516-1.212-.516" fill="#333853"></path>
        <path d="M163.529 280v.888h-.204q-.552 0-1.032.288-.468.276-.756.864-.288.576-.288 1.488V286h-.924v-5.904h.912v1.32q.3-.768.888-1.092a2.5 2.5 0 0 1 1.212-.324z" fill="#333853"></path>
        <path d="m151.027 285.088.6-.636q.384.444.876.708.504.252 1.128.252.648 0 1.044-.3.408-.3.408-.78a.71.71 0 0 0-.348-.624q-.336-.24-1.164-.36-1.26-.204-1.776-.588-.504-.384-.504-1.068 0-.816.636-1.296.636-.492 1.644-.492.744 0 1.332.288t1.044.816l-.6.636a2.6 2.6 0 0 0-.78-.696 1.87 1.87 0 0 0-.996-.264q-.588 0-.96.276-.372.264-.372.684 0 .336.312.54.312.192 1.104.312 1.308.192 1.848.624.54.42.54 1.2 0 .552-.312.984-.312.42-.864.66-.54.228-1.236.228-.864 0-1.488-.288a3.8 3.8 0 0 1-1.116-.816" fill="#333853"></path>
        <path d="M149.862 277.864a.65.65 0 0 1-.192.48.62.62 0 0 1-.456.18.66.66 0 0 1-.468-.18.68.68 0 0 1-.18-.48.633.633 0 0 1 .648-.66q.276 0 .456.192.192.18.192.468m-.18 8.136h-.924v-5.904h.924z" fill="#333853"></path>
        <path d="M144.588 286h-1.32q-.624 0-.948-.336-.324-.348-.324-.984v-3.792h-1.128v-.792h1.128v-1.728h.924v1.728h1.584v.792h-1.584v3.708q0 .612.576.612h1.092z" fill="#333853"></path>
        <path d="M139.477 286h-.912v-.936a2.2 2.2 0 0 1-.816.828q-.516.3-1.188.3-.996 0-1.596-.636t-.6-1.836v-3.624h.924v3.528q0 .864.384 1.32.384.444 1.08.444.612 0 1.104-.372.492-.384.696-1.02v-3.9h.924z" fill="#333853"></path>
        <path d="M129.846 286.192a2.9 2.9 0 0 1-1.524-.408 2.9 2.9 0 0 1-1.056-1.116q-.372-.708-.372-1.62t.372-1.62a2.9 2.9 0 0 1 1.056-1.116 2.9 2.9 0 0 1 1.524-.408 2.9 2.9 0 0 1 1.536.408q.672.408 1.044 1.116.384.708.384 1.62t-.384 1.62a2.8 2.8 0 0 1-1.044 1.116 2.9 2.9 0 0 1-1.536.408m0-.804q.6 0 1.044-.3t.696-.828.252-1.212q0-.696-.252-1.212a2.03 2.03 0 0 0-.696-.828 1.8 1.8 0 0 0-1.044-.3 1.8 1.8 0 0 0-1.032.3q-.444.3-.696.828-.252.516-.252 1.212 0 .684.252 1.212t.696.828 1.032.3" fill="#333853"></path>
        <path d="M125.148 280.096h.936l-2.808 6.948q-.24.6-.612.936-.36.348-1.14.348h-.696v-.792h.696q.408 0 .636-.192t.36-.564l.276-.756-2.4-5.928h.984l1.884 4.944z" fill="#333853"></path>
        <path d="M116.371 286.192q-.624 0-1.104-.24a1.9 1.9 0 0 1-.756-.66 1.83 1.83 0 0 1-.264-.972q0-.9.684-1.428.696-.528 1.86-.528h1.656v-.048q0-.744-.456-1.176-.444-.444-1.224-.444-1.02 0-1.728.852l-.6-.588q1.008-1.056 2.388-1.056.756 0 1.32.3.564.288.876.828.312.528.312 1.248V286h-.876v-.804a2.46 2.46 0 0 1-.876.732q-.54.264-1.212.264m.132-.768q.696 0 1.212-.348a1.95 1.95 0 0 0 .732-.948v-1.02h-1.548q-.804 0-1.248.312-.444.3-.444.864 0 .516.348.828.36.312.948.312" fill="#333853"></path>
        <path d="M112.71 286h-.924v-8.64h.924z" fill="#333853"></path>
        <path d="M105.843 286h-1.032l-1.356-4.74-1.344 4.74h-1.044l-1.752-5.904h.948l1.344 4.908 1.392-4.908h.936l1.392 4.956 1.38-4.956h.912z" fill="#333853"></path>
        <path d="m97.453 284.308.624.6q-.468.648-1.104.972a3.04 3.04 0 0 1-1.38.312q-.888 0-1.572-.408a2.9 2.9 0 0 1-1.056-1.116 3.5 3.5 0 0 1-.372-1.62q0-.9.372-1.608.384-.72 1.032-1.128a2.75 2.75 0 0 1 1.476-.408q.804 0 1.416.396.624.396.972 1.104.348.696.348 1.608v.36h-4.644q.096.888.648 1.452.564.564 1.44.564.552 0 .996-.264t.804-.816m-1.98-3.6q-.744 0-1.272.528-.516.528-.624 1.38h3.672q-.084-.876-.564-1.392-.468-.516-1.212-.516" fill="#333853"></path>
        <path d="M91.035 286h-.924v-3.396q0-.936-.396-1.404-.384-.48-1.044-.48-.48 0-.9.276-.42.264-.684.852-.264.576-.264 1.5V286h-.924v-5.904h.912v1.212q.288-.768.852-1.08a2.35 2.35 0 0 1 1.188-.324q1.02 0 1.596.672.588.66.588 1.92z" fill="#333853"></path>
        <path d="M81.896 280v.888h-.204q-.552 0-1.032.288-.468.276-.756.864-.288.576-.288 1.488V286h-.924v-5.904h.912v1.32q.3-.768.888-1.092a2.5 2.5 0 0 1 1.212-.324z" fill="#333853"></path>
        <path d="M76.653 286h-.912v-.936a2.2 2.2 0 0 1-.816.828q-.516.3-1.188.3-.996 0-1.596-.636t-.6-1.836v-3.624h.924v3.528q0 .864.384 1.32.384.444 1.08.444.612 0 1.104-.372.492-.384.696-1.02v-3.9h.924z" fill="#333853"></path>
        <path d="M67.022 286.192a2.9 2.9 0 0 1-1.524-.408 2.9 2.9 0 0 1-1.056-1.116q-.372-.708-.372-1.62t.372-1.62a2.9 2.9 0 0 1 1.056-1.116 2.9 2.9 0 0 1 1.524-.408 2.9 2.9 0 0 1 1.536.408q.672.408 1.044 1.116.384.708.384 1.62t-.384 1.62a2.8 2.8 0 0 1-1.044 1.116 2.9 2.9 0 0 1-1.536.408m0-.804q.6 0 1.044-.3t.696-.828.252-1.212q0-.696-.252-1.212a2.03 2.03 0 0 0-.696-.828 1.8 1.8 0 0 0-1.044-.3 1.8 1.8 0 0 0-1.032.3q-.444.3-.696.828-.252.516-.252 1.212 0 .684.252 1.212t.696.828 1.032.3" fill="#333853"></path>
        <path d="M61.416 286h-.96v-3.768l-3-4.812h1.116l2.388 4.056 2.4-4.056h1.044l-2.988 4.836z" fill="#333853"></path>
        <path d="M50 281.5c0 6.904-5.596 12.5-12.5 12.5S25 288.404 25 281.5 30.596 269 37.5 269 50 274.596 50 281.5" fill="#FEFFFD"></path>
        <g clip-path="url(#e106cb69-f3f3-46bc-a441-2e396f585bf2_comp-lyctu20u)">
            <path d="M41.97 274.193c.193 0 .36.136.398.326l.087.438a2.03 2.03 0 0 0 1.593 1.593l.438.088a.406.406 0 0 1 0 .796l-.438.088a2.03 2.03 0 0 0-1.593 1.593l-.087.437a.407.407 0 0 1-.797 0l-.087-.437a2.03 2.03 0 0 0-1.593-1.593l-.438-.088a.406.406 0 0 1 0-.796l.438-.088a2.03 2.03 0 0 0 1.593-1.593l.087-.438a.406.406 0 0 1 .398-.326Z" fill="url(#4c7409fc-e93f-4753-8a44-3d2bdb7f426c_comp-lyctu20u)"></path>
            <path d="M36.283 276.63c.183 0 .344.122.392.299l.364 1.333a5.28 5.28 0 0 0 3.704 3.705l1.333.363a.406.406 0 0 1 0 .784l-1.333.363a5.28 5.28 0 0 0-3.704 3.705l-.364 1.333a.406.406 0 0 1-.784 0l-.363-1.333a5.28 5.28 0 0 0-3.705-3.705l-1.333-.363a.406.406 0 0 1 0-.784l1.333-.363a5.28 5.28 0 0 0 3.705-3.705l.363-1.333a.405.405 0 0 1 .392-.299" fill="url(#6aad2c6f-d480-4ded-aa1e-5cf8b496bbd4_comp-lyctu20u)"></path>
        </g>
        <path d="M226 206v27c0 5.523-4.477 10-10 10H92c-5.523 0-10-4.477-10-10v-27c0-5.523 4.477-10 10-10h124c5.523 0 10 4.477 10 10" fill="#C6DDFF" fill-opacity=".7"></path>
        <mask fill="none" id="ffd1b3b2-5df3-4c1f-bd87-ba7167e7c637_comp-lyctu20u" style="mask-type:alpha" maskUnits="userSpaceOnUse" x="190" y="207" width="25" height="25">
            <path d="M215 219.5c0 6.904-5.596 12.5-12.5 12.5s-12.5-5.596-12.5-12.5 5.596-12.5 12.5-12.5 12.5 5.596 12.5 12.5" fill="#D9D9D9"></path>
        </mask>
        <g mask="url(#ffd1b3b2-5df3-4c1f-bd87-ba7167e7c637_comp-lyctu20u)">
            <path d="M215 207v25h-25v-25z" fill="#ffffff"></path>
            <path d="M195.578 232.564h13.596c.401.016.786-.153 1.037-.455s.338-.701.235-1.075c-.797-2.739-3.036-4.869-5.889-5.601 1.28-.67 2.145-1.896 2.321-3.29h.154c.479.01.911-.274 1.075-.707a1 1 0 0 0-.162-.946v-1.908c.039-2.722-1.929-5.088-4.694-5.643a5.63 5.63 0 0 0-4.474 1.126c-1.246.993-1.973 2.465-1.987 4.023v2.418a.99.99 0 0 0-.162.946c.164.433.596.718 1.075.707h.205c.184 1.394 1.05 2.618 2.33 3.29-2.85.735-5.085 2.865-5.881 5.602-.094.363-.01.747.228 1.043s.604.469.993.47" fill="#116DFF"></path>
        </g>
        <path d="M181.858 221.552h-.624a89 89 0 0 1-.084-1.776q-.024-.624-.06-1.272-.024-.66-.048-1.224a105 105 0 0 1-.048-1.392q0-.312.156-.48a.53.53 0 0 1 .396-.18q.24 0 .396.18.156.168.156.48a105 105 0 0 1-.108 2.616l-.048 1.272a103 103 0 0 1-.084 1.776m-.312 2.592a.7.7 0 0 1-.504-.204.7.7 0 0 1-.192-.504q0-.3.192-.504a.7.7 0 0 1 .504-.204q.3 0 .492.204a.7.7 0 0 1 .204.504q0 .3-.204.504a.65.65 0 0 1-.492.204" fill="#333853"></path>
        <path d="M179.806 218v.888h-.204q-.552 0-1.032.288-.468.276-.756.864-.288.576-.288 1.488V224h-.924v-5.904h.912v1.32q.3-.768.888-1.092a2.5 2.5 0 0 1 1.212-.324z" fill="#333853"></path>
        <path d="m174.176 222.308.624.6q-.468.648-1.104.972a3.04 3.04 0 0 1-1.38.312q-.888 0-1.572-.408a2.9 2.9 0 0 1-1.056-1.116 3.5 3.5 0 0 1-.372-1.62q0-.9.372-1.608.384-.72 1.032-1.128a2.75 2.75 0 0 1 1.476-.408q.804 0 1.416.396.624.396.972 1.104.348.696.348 1.608v.36h-4.644q.096.888.648 1.452.564.564 1.44.564.552 0 .996-.264t.804-.816m-1.98-3.6q-.744 0-1.272.528-.516.528-.624 1.38h3.672q-.084-.876-.564-1.392-.468-.516-1.212-.516" fill="#333853"></path>
        <path d="M166.737 224v-.936q-.3.516-.852.828-.552.3-1.248.3a2.7 2.7 0 0 1-1.476-.408 2.9 2.9 0 0 1-1.008-1.116q-.372-.708-.372-1.62 0-.9.36-1.608.372-.72 1.008-1.128a2.67 2.67 0 0 1 1.452-.408q.696 0 1.26.336t.864.9v-3.78h.924V224zm-3.984-2.952q0 .684.252 1.212.264.528.72.828t1.044.3q.684 0 1.212-.384.528-.396.744-1.032v-.756q0-.744-.252-1.308a2.04 2.04 0 0 0-.708-.876 1.7 1.7 0 0 0-1.032-.324q-.576 0-1.032.3-.444.3-.696.828a2.8 2.8 0 0 0-.252 1.212" fill="#333853"></path>
        <path d="M160.112 224h-.924v-8.64h.924z" fill="#333853"></path>
        <path d="M154.561 224.192a2.9 2.9 0 0 1-1.524-.408 2.9 2.9 0 0 1-1.056-1.116q-.372-.708-.372-1.62t.372-1.62a2.9 2.9 0 0 1 1.056-1.116 2.9 2.9 0 0 1 1.524-.408 2.9 2.9 0 0 1 1.536.408q.672.408 1.044 1.116.384.708.384 1.62t-.384 1.62a2.8 2.8 0 0 1-1.044 1.116 2.9 2.9 0 0 1-1.536.408m0-.804q.6 0 1.044-.3t.696-.828.252-1.212q0-.696-.252-1.212a2.03 2.03 0 0 0-.696-.828 1.8 1.8 0 0 0-1.044-.3 1.8 1.8 0 0 0-1.032.3q-.444.3-.696.828-.252.516-.252 1.212 0 .684.252 1.212t.696.828 1.032.3" fill="#333853"></path>
        <path d="M145.358 224h-.912v-8.64h.924v3.816q.3-.576.876-.924a2.44 2.44 0 0 1 1.284-.348q.816 0 1.44.408t.984 1.128q.36.708.36 1.608 0 .912-.372 1.62a2.87 2.87 0 0 1-1.02 1.116 2.65 2.65 0 0 1-1.464.408q-.696 0-1.248-.3a2.23 2.23 0 0 1-.852-.828zm.012-2.784v.756q.216.636.744 1.032.528.384 1.212.384.6 0 1.044-.3.456-.3.708-.828.264-.528.264-1.212t-.252-1.212a1.94 1.94 0 0 0-.684-.828q-.432-.3-1.008-.3-.588 0-1.044.324-.456.312-.72.876t-.264 1.308" fill="#333853"></path>
        <path d="M140.276 224h-1.32q-.624 0-.948-.336-.324-.348-.324-.984v-3.792h-1.128v-.792h1.128v-1.728h.924v1.728h1.584v.792h-1.584v3.708q0 .612.576.612h1.092z" fill="#333853"></path>
        <path d="M135.343 215.864a.65.65 0 0 1-.192.48.62.62 0 0 1-.456.18.66.66 0 0 1-.468-.18.68.68 0 0 1-.18-.48.633.633 0 0 1 .648-.66q.276 0 .456.192.192.18.192.468m-.18 8.136h-.924v-5.904h.924z" fill="#333853"></path>
        <path d="m129.117 222.308.624.6q-.468.648-1.104.972a3.04 3.04 0 0 1-1.38.312q-.888 0-1.572-.408a2.9 2.9 0 0 1-1.056-1.116 3.5 3.5 0 0 1-.372-1.62q0-.9.372-1.608.384-.72 1.032-1.128a2.75 2.75 0 0 1 1.476-.408q.804 0 1.416.396.624.396.972 1.104.348.696.348 1.608v.36h-4.644q.096.888.648 1.452.564.564 1.44.564.552 0 .996-.264t.804-.816m-1.98-3.6q-.744 0-1.272.528-.516.528-.624 1.38h3.672q-.084-.876-.564-1.392-.468-.516-1.212-.516" fill="#333853"></path>
        <path d="M119.565 224h-.924v-8.64h.924v5.412l2.844-2.676h1.236l-3.096 2.844 3.42 3.06h-1.332l-3.072-2.784z" fill="#333853"></path>
        <path d="M113.746 224.192q-.624 0-1.104-.24a1.9 1.9 0 0 1-.756-.66 1.83 1.83 0 0 1-.264-.972q0-.9.684-1.428.696-.528 1.86-.528h1.656v-.048q0-.744-.456-1.176-.444-.444-1.224-.444-1.02 0-1.728.852l-.6-.588q1.008-1.056 2.388-1.056.756 0 1.32.3.564.288.876.828.312.528.312 1.248V224h-.876v-.804a2.46 2.46 0 0 1-.876.732q-.54.264-1.212.264m.132-.768q.696 0 1.212-.348a1.95 1.95 0 0 0 .732-.948v-1.02h-1.548q-.804 0-1.248.312-.444.3-.444.864 0 .516.348.828.36.312.948.312" fill="#333853"></path>
        <path d="M106.014 223.268h-.708l-2.856-6.408V224h-.936v-8.58h1.224l2.928 6.636 2.952-6.636h1.212V224h-.936v-7.14z" fill="#333853"></path>
        <path d="M226 144v27c0 5.523-4.477 10-10 10H24c-5.523 0-10-4.477-10-10v-27c0-5.523 4.477-10 10-10h192c5.523 0 10 4.477 10 10" fill="#D8E2EC" fill-opacity=".7"></path>
        <path d="M208.616 159.552h-.636q-.06-.588.024-.996.096-.408.384-.756.3-.36.864-.756.528-.384.732-.744.216-.372.216-.924 0-.624-.432-.984-.432-.372-1.176-.372-1.272 0-2.136 1.356l-.648-.588q.54-.756 1.26-1.152.72-.408 1.536-.408 1.14 0 1.824.576t.684 1.536q0 .492-.144.876-.132.372-.456.72a6.4 6.4 0 0 1-.84.732 3.7 3.7 0 0 0-.648.588 1.45 1.45 0 0 0-.312.576q-.084.3-.096.72m-.348 2.592a.7.7 0 0 1-.504-.204.7.7 0 0 1-.192-.504q0-.3.192-.504a.7.7 0 0 1 .504-.204q.3 0 .492.204a.7.7 0 0 1 .204.504q0 .3-.204.504a.65.65 0 0 1-.492.204" fill="#333853"></path>
        <path d="M204.717 162h-1.32q-.624 0-.948-.336-.324-.348-.324-.984v-3.792h-1.128v-.792h1.128v-1.728h.924v1.728h1.584v.792h-1.584v3.708q0 .612.576.612h1.092z" fill="#333853"></path>
        <path d="M199.606 162h-.912v-.936a2.2 2.2 0 0 1-.816.828q-.516.3-1.188.3-.996 0-1.596-.636t-.6-1.836v-3.624h.924v3.528q0 .864.384 1.32.384.444 1.08.444.612 0 1.104-.372.492-.384.696-1.02v-3.9h.924z" fill="#333853"></path>
        <path d="M189.975 162.192a2.9 2.9 0 0 1-1.524-.408 2.9 2.9 0 0 1-1.056-1.116q-.372-.708-.372-1.62t.372-1.62a2.9 2.9 0 0 1 1.056-1.116 2.9 2.9 0 0 1 1.524-.408 2.9 2.9 0 0 1 1.536.408q.672.408 1.044 1.116.384.708.384 1.62t-.384 1.62a2.8 2.8 0 0 1-1.044 1.116 2.9 2.9 0 0 1-1.536.408m0-.804q.6 0 1.044-.3t.696-.828.252-1.212q0-.696-.252-1.212a2.03 2.03 0 0 0-.696-.828 1.8 1.8 0 0 0-1.044-.3 1.8 1.8 0 0 0-1.032.3q-.444.3-.696.828-.252.516-.252 1.212 0 .684.252 1.212t.696.828 1.032.3" fill="#333853"></path>
        <path d="M185.276 156.096h.936l-2.808 6.948q-.24.6-.612.936-.36.348-1.14.348h-.696v-.792h.696q.408 0 .636-.192t.36-.564l.276-.756-2.4-5.928h.984l1.884 4.944z" fill="#333853"></path>
        <path d="M176.499 162.192q-.624 0-1.104-.24a1.9 1.9 0 0 1-.756-.66 1.83 1.83 0 0 1-.264-.972q0-.9.684-1.428.696-.528 1.86-.528h1.656v-.048q0-.744-.456-1.176-.444-.444-1.224-.444-1.02 0-1.728.852l-.6-.588q1.008-1.056 2.388-1.056.756 0 1.32.3.564.288.876.828.312.528.312 1.248V162h-.876v-.804a2.46 2.46 0 0 1-.876.732q-.54.264-1.212.264m.132-.768q.696 0 1.212-.348a1.95 1.95 0 0 0 .732-.948v-1.02h-1.548q-.804 0-1.248.312-.444.3-.444.864 0 .516.348.828.36.312.948.312" fill="#333853"></path>
        <path d="M172.838 162h-.924v-8.64h.924z" fill="#333853"></path>
        <path d="m162.617 161.088.6-.636q.384.444.876.708.504.252 1.128.252.648 0 1.044-.3.408-.3.408-.78a.71.71 0 0 0-.348-.624q-.336-.24-1.164-.36-1.26-.204-1.776-.588-.504-.384-.504-1.068 0-.816.636-1.296.636-.492 1.644-.492.744 0 1.332.288t1.044.816l-.6.636a2.6 2.6 0 0 0-.78-.696 1.87 1.87 0 0 0-.996-.264q-.588 0-.96.276-.372.264-.372.684 0 .336.312.54.312.192 1.104.312 1.308.192 1.848.624.54.42.54 1.2 0 .552-.312.984-.312.42-.864.66-.54.228-1.236.228-.864 0-1.488-.288a3.8 3.8 0 0 1-1.116-.816" fill="#333853"></path>
        <path d="M161.452 153.864a.65.65 0 0 1-.192.48.62.62 0 0 1-.456.18.66.66 0 0 1-.468-.18.68.68 0 0 1-.18-.48.633.633 0 0 1 .648-.66q.276 0 .456.192.192.18.192.468m-.18 8.136h-.924v-5.904h.924z" fill="#333853"></path>
        <path d="M158.417 162h-.924v-3.396q0-.9-.384-1.392-.372-.492-1.056-.492-.84 0-1.344.708t-.504 1.92V162h-.924v-8.64h.924v3.948q.252-.684.768-1.044.528-.36 1.26-.36 1.032 0 1.608.684.576.672.576 1.908z" fill="#333853"></path>
        <path d="M151.806 162h-1.32q-.624 0-.948-.336-.324-.348-.324-.984v-3.792h-1.128v-.792h1.128v-1.728h.924v1.728h1.584v.792h-1.584v3.708q0 .612.576.612h1.092z" fill="#333853"></path>
        <path d="m143.613 160.308.624.6q-.468.648-1.104.972a3.04 3.04 0 0 1-1.38.312q-.888 0-1.572-.408a2.9 2.9 0 0 1-1.056-1.116 3.5 3.5 0 0 1-.372-1.62q0-.9.372-1.608.384-.72 1.032-1.128a2.75 2.75 0 0 1 1.476-.408q.804 0 1.416.396.624.396.972 1.104.348.696.348 1.608v.36h-4.644q.096.888.648 1.452.564.564 1.44.564.552 0 .996-.264t.804-.816m-1.98-3.6q-.744 0-1.272.528-.516.528-.624 1.38h3.672q-.084-.876-.564-1.392-.468-.516-1.212-.516" fill="#333853"></path>
        <path d="M137.086 161.484q0 .876-.384 1.56a2.77 2.77 0 0 1-1.044 1.08q-.66.396-1.512.396-.768 0-1.416-.3a2.96 2.96 0 0 1-1.08-.828l.612-.624q.696.948 1.872.948.6 0 1.056-.288.456-.276.708-.78.264-.504.264-1.164v-.48a2.1 2.1 0 0 1-.852.78q-.54.288-1.236.288a2.77 2.77 0 0 1-1.476-.396 2.8 2.8 0 0 1-1.02-1.092q-.36-.696-.36-1.584 0-.876.372-1.572a2.9 2.9 0 0 1 1.008-1.116 2.6 2.6 0 0 1 1.44-.408q.732 0 1.284.336.564.324.852.912v-1.056h.912zM132.19 159q0 .672.252 1.188.264.504.72.792t1.044.288q.684 0 1.212-.396c.528-.396.6-.604.744-1.02v-.636q0-.744-.252-1.308a2.04 2.04 0 0 0-.708-.876 1.7 1.7 0 0 0-1.032-.324q-.576 0-1.032.3-.444.288-.696.804T132.19 159" fill="#333853"></path>
        <path d="M129.659 162h-.924v-3.396q0-.936-.396-1.404-.384-.48-1.044-.48-.48 0-.9.276-.42.264-.684.852-.264.576-.264 1.5V162h-.924v-5.904h.912v1.212q.288-.768.852-1.08a2.35 2.35 0 0 1 1.188-.324q1.02 0 1.596.672.588.66.588 1.92z" fill="#333853"></path>
        <path d="M119.628 162.192q-.624 0-1.104-.24a1.9 1.9 0 0 1-.756-.66 1.83 1.83 0 0 1-.264-.972q0-.9.684-1.428.696-.528 1.86-.528h1.656v-.048q0-.744-.456-1.176-.444-.444-1.224-.444-1.02 0-1.728.852l-.6-.588q1.008-1.056 2.388-1.056.756 0 1.32.3.564.288.876.828.312.528.312 1.248V162h-.876v-.804a2.46 2.46 0 0 1-.876.732q-.54.264-1.212.264m.132-.768q.696 0 1.212-.348a1.95 1.95 0 0 0 .732-.948v-1.02h-1.548q-.804 0-1.248.312-.444.3-.444.864 0 .516.348.828.36.312.948.312" fill="#333853"></path>
        <path d="M116.077 162h-.924v-3.396q0-.9-.384-1.392-.372-.492-1.056-.492-.84 0-1.344.708t-.504 1.92V162h-.924v-8.64h.924v3.948q.252-.684.768-1.044.528-.36 1.26-.36 1.032 0 1.608.684.576.672.576 1.908z" fill="#333853"></path>
        <path d="m108.792 160.428.648.612q-.852 1.152-2.352 1.152-.864 0-1.536-.396a2.9 2.9 0 0 1-1.044-1.116q-.372-.708-.372-1.632t.384-1.632c.384-.708.608-.84 1.056-1.104a2.9 2.9 0 0 1 1.536-.408q1.5 0 2.34 1.152l-.66.612q-.252-.456-.696-.708a2 2 0 0 0-1.008-.252q-.876 0-1.428.636t-.552 1.704q0 1.056.552 1.704.564.636 1.464.636 1.08 0 1.668-.96" fill="#333853"></path>
        <path d="M97.186 162.192a2.9 2.9 0 0 1-1.524-.408 2.9 2.9 0 0 1-1.056-1.116q-.372-.708-.372-1.62t.372-1.62a2.9 2.9 0 0 1 1.056-1.116 2.9 2.9 0 0 1 1.524-.408 2.9 2.9 0 0 1 1.536.408q.672.408 1.044 1.116.384.708.384 1.62t-.384 1.62a2.8 2.8 0 0 1-1.044 1.116 2.9 2.9 0 0 1-1.536.408m0-.804q.6 0 1.044-.3t.696-.828.252-1.212q0-.696-.252-1.212a2.03 2.03 0 0 0-.696-.828 1.8 1.8 0 0 0-1.044-.3 1.8 1.8 0 0 0-1.032.3q-.444.3-.696.828-.252.516-.252 1.212 0 .684.252 1.212t.696.828 1.032.3" fill="#333853"></path>
        <path d="M93.365 162h-1.32q-.624 0-.948-.336-.324-.348-.324-.984v-3.792h-1.128v-.792h1.128v-1.728h.924v1.728h1.584v.792h-1.584v3.708q0 .612.576.612h1.092z" fill="#333853"></path>
        <path d="M86.123 162h-1.32q-.624 0-.948-.336-.324-.348-.324-.984v-3.792h-1.128v-.792h1.128v-1.728h.924v1.728h1.584v.792h-1.584v3.708q0 .612.576.612h1.092z" fill="#333853"></path>
        <path d="M81.12 162h-.924v-3.396q0-.936-.396-1.404-.384-.48-1.044-.48-.48 0-.9.276-.42.264-.684.852-.264.576-.264 1.5V162h-.924v-5.904h.912v1.212q.288-.768.852-1.08a2.35 2.35 0 0 1 1.188-.324q1.02 0 1.596.672.588.66.588 1.92z" fill="#333853"></path>
        <path d="M71.089 162.192q-.624 0-1.104-.24a1.9 1.9 0 0 1-.756-.66 1.83 1.83 0 0 1-.264-.972q0-.9.684-1.428.696-.528 1.86-.528h1.656v-.048q0-.744-.456-1.176-.444-.444-1.224-.444-1.02 0-1.728.852l-.6-.588q1.008-1.056 2.388-1.056.756 0 1.32.3.564.288.876.828.312.528.312 1.248V162h-.876v-.804a2.46 2.46 0 0 1-.876.732q-.54.264-1.212.264m.132-.768q.696 0 1.212-.348a1.95 1.95 0 0 0 .732-.948v-1.02h-1.548q-.804 0-1.248.312-.444.3-.444.864 0 .516.348.828.36.312.948.312" fill="#333853"></path>
        <path d="M66.048 162H64.92l-1.896-7.272L61.128 162H60l-2.448-8.58h1.032l2.004 7.38 1.932-7.38h1.02l1.956 7.44 2.016-7.44h.984z" fill="#333853"></path>
        <path d="M50 157.5c0 6.904-5.596 12.5-12.5 12.5S25 164.404 25 157.5 30.596 145 37.5 145 50 150.596 50 157.5" fill="#FEFFFD"></path>
        <g clip-path="url(#fd5a20fa-b259-4217-aa4b-26cdba65eb00_comp-lyctu20u)">
            <path d="M41.97 150.193c.193 0 .36.136.398.326l.087.438a2.03 2.03 0 0 0 1.593 1.593l.438.088a.406.406 0 0 1 0 .796l-.438.088a2.03 2.03 0 0 0-1.593 1.593l-.087.437a.407.407 0 0 1-.797 0l-.087-.437a2.03 2.03 0 0 0-1.593-1.593l-.438-.088a.406.406 0 0 1 0-.796l.438-.088a2.03 2.03 0 0 0 1.593-1.593l.087-.438a.406.406 0 0 1 .398-.326Z" fill="url(#4dc323c5-e097-466d-9cf6-3ab32ff056f0_comp-lyctu20u)"></path>
            <path d="M36.283 152.63c.183 0 .344.122.392.299l.364 1.333a5.28 5.28 0 0 0 3.704 3.705l1.333.363a.406.406 0 0 1 0 .784l-1.333.363a5.28 5.28 0 0 0-3.704 3.705l-.364 1.333a.406.406 0 0 1-.784 0l-.363-1.333a5.28 5.28 0 0 0-3.705-3.705l-1.333-.363a.406.406 0 0 1 0-.784l1.333-.363a5.28 5.28 0 0 0 3.705-3.705l.363-1.333a.405.405 0 0 1 .392-.299" fill="url(#b75b5eee-6088-4225-8e60-465618eddd0c_comp-lyctu20u)"></path>
        </g>
        <path d="M142 84c0 12.15-9.85 22-22 22s-22-9.85-22-22 9.85-22 22-22 22 9.85 22 22" fill="#D5E1FF"></path>
        <path d="M142 84c0 12.15-9.85 22-22 22s-22-9.85-22-22 9.85-22 22-22 22 9.85 22 22" fill="url(#503fcc42-3a16-49e2-9878-e92506d0cff1_comp-lyctu20u)" style="mix-blend-mode:multiply"></path>
        <path fill-rule="evenodd" clip-rule="evenodd" d="M120 106c12.15 0 22-9.85 22-22s-9.85-22-22-22-22 9.85-22 22 9.85 22 22 22m0-8c8.284 0 14-5.716 14-14s-5.716-14-14-14-14 5.716-14 14 5.716 14 14 14" fill="url(#30dad7ac-4015-4a3f-bc80-251fe072bf93_comp-lyctu20u)"></path>
        <path fill-rule="evenodd" clip-rule="evenodd" d="M142 84c0-12.15-9.849-22-22-22s-22 9.85-22 22 9.85 22 22 22 22-9.85 22-22m-7 0c0-8.284-6.715-15-15-15s-15 6.716-15 15 6.716 15 15 15c8.285 0 15-6.716 15-15" fill="url(#e5575d91-6448-4bf7-b859-3f8bf431aee4_comp-lyctu20u)"></path>
        <path d="M126.857 73.117c.285 0 .53.2.586.48l.129.644a2.99 2.99 0 0 0 2.342 2.343l.644.13a.598.598 0 0 1 0 1.171l-.644.129a2.99 2.99 0 0 0-2.342 2.343l-.129.644a.598.598 0 0 1-1.171 0l-.129-.644a2.99 2.99 0 0 0-2.343-2.343l-.643-.129a.598.598 0 0 1 0-1.172l.643-.129a2.99 2.99 0 0 0 2.343-2.343l.129-.644a.6.6 0 0 1 .585-.48" fill="#ffffff"></path>
        <path d="M118.496 76.702c.269 0 .505.18.576.44l.535 1.96a7.77 7.77 0 0 0 5.447 5.45l1.961.536a.598.598 0 0 1 0 1.153l-1.961.534a7.77 7.77 0 0 0-5.447 5.45l-.535 1.962a.597.597 0 0 1-1.152 0l-.535-1.962a7.77 7.77 0 0 0-5.447-5.45l-1.96-.534a.597.597 0 0 1 0-1.153l1.96-.535a7.77 7.77 0 0 0 5.447-5.45l.535-1.961a.6.6 0 0 1 .576-.44" fill="#ffffff"></path>
        <defs fill="none">
            <linearGradient id="4c7409fc-e93f-4753-8a44-3d2bdb7f426c_comp-lyctu20u" x1="31.562" y1="287.215" x2="44.127" y2="277.62" gradientUnits="userSpaceOnUse">
                <stop offset=".107" stop-color="#6F56F9"></stop>
                <stop offset=".541" stop-color="#116DFF"></stop>
                <stop offset="1" stop-color="#18D2DE"></stop>
            </linearGradient>
            <linearGradient id="6aad2c6f-d480-4ded-aa1e-5cf8b496bbd4_comp-lyctu20u" x1="31.562" y1="287.215" x2="44.127" y2="277.62" gradientUnits="userSpaceOnUse">
                <stop offset=".107" stop-color="#6F56F9"></stop>
                <stop offset=".541" stop-color="#116DFF"></stop>
                <stop offset="1" stop-color="#18D2DE"></stop>
            </linearGradient>
            <linearGradient id="4dc323c5-e097-466d-9cf6-3ab32ff056f0_comp-lyctu20u" x1="31.562" y1="163.215" x2="44.127" y2="153.62" gradientUnits="userSpaceOnUse">
                <stop offset=".107" stop-color="#6F56F9"></stop>
                <stop offset=".541" stop-color="#116DFF"></stop>
                <stop offset="1" stop-color="#18D2DE"></stop>
            </linearGradient>
            <linearGradient id="b75b5eee-6088-4225-8e60-465618eddd0c_comp-lyctu20u" x1="31.562" y1="163.215" x2="44.127" y2="153.62" gradientUnits="userSpaceOnUse">
                <stop offset=".107" stop-color="#6F56F9"></stop>
                <stop offset=".541" stop-color="#116DFF"></stop>
                <stop offset="1" stop-color="#18D2DE"></stop>
            </linearGradient>
            <linearGradient id="503fcc42-3a16-49e2-9878-e92506d0cff1_comp-lyctu20u" x1="101.639" y1="52.571" x2="129.152" y2="104.24" gradientUnits="userSpaceOnUse">
                <stop stop-color="#033FA0"></stop>
                <stop offset=".526" stop-color="#116DFF"></stop>
                <stop offset="1" stop-color="#5BEAB3"></stop>
            </linearGradient>
            <radialGradient id="30dad7ac-4015-4a3f-bc80-251fe072bf93_comp-lyctu20u" cx="0" cy="0" r="1" gradientUnits="userSpaceOnUse" gradientTransform="matrix(0 91.5 -97 0 120 88.5)">
                <stop offset=".225" stop-color="#ffffff" stop-opacity="0"></stop>
                <stop offset=".31" stop-color="#ffffff" stop-opacity=".67"></stop>
            </radialGradient>
            <radialGradient id="e5575d91-6448-4bf7-b859-3f8bf431aee4_comp-lyctu20u" cx="0" cy="0" r="1" gradientUnits="userSpaceOnUse" gradientTransform="matrix(94.5 0 0 107.75 121.5 84)">
                <stop offset=".19" stop-color="#ffffff" stop-opacity="0"></stop>
                <stop offset=".26" stop-color="#ffffff" stop-opacity=".25"></stop>
            </radialGradient>
            <clipPath id="e106cb69-f3f3-46bc-a441-2e396f585bf2_comp-lyctu20u">
                <path d="M47.247 271.752v19.495H27.752v-19.495z" fill="#ffffff"></path>
            </clipPath>
            <clipPath id="fd5a20fa-b259-4217-aa4b-26cdba65eb00_comp-lyctu20u">
                <path d="M47.247 147.752v19.495H27.752v-19.495z" fill="#ffffff"></path>
            </clipPath>
        </defs>
    </g>
</svg>